<mxfile host="65bd71144e">
    <diagram name="第 1 页" id="Ku7rGSH6ahA40yERtkHX">
        <mxGraphModel dx="-4799" dy="573" grid="0" gridSize="10" guides="1" tooltips="1" connect="1" arrows="1" fold="1" page="1" pageScale="1" pageWidth="827" pageHeight="1169" math="0" shadow="0">
            <root>
                <mxCell id="0"/>
                <mxCell id="1" parent="0"/>
                <mxCell id="08zl2Wz16HbDXzCnhwST-168" value="&lt;b&gt;&lt;br&gt;&lt;/b&gt;" style="rounded=1;whiteSpace=wrap;html=1;arcSize=8;fillColor=none;strokeColor=#666666;gradientColor=#b3b3b3;dashed=1;strokeWidth=0.5;direction=south;glass=0;" parent="1" vertex="1">
                    <mxGeometry x="5884" y="495" width="725" height="95" as="geometry"/>
                </mxCell>
                <mxCell id="08zl2Wz16HbDXzCnhwST-176" value="&lt;b&gt;&amp;nbsp;CV&lt;/b&gt;" style="rounded=1;whiteSpace=wrap;html=1;shadow=0;strokeColor=#333333;align=left;glass=0;arcSize=8;dashed=1;strokeWidth=0.2;" parent="1" vertex="1">
                    <mxGeometry x="5891" y="497.9" width="210" height="88" as="geometry"/>
                </mxCell>
                <mxCell id="Y8qZJC03_dcixNUR7gRR-10" value="" style="rounded=1;whiteSpace=wrap;html=1;fillColor=#e1d5e7;strokeColor=#9673a6;arcSize=1;" parent="1" vertex="1">
                    <mxGeometry x="5884" y="600" width="725" height="284" as="geometry"/>
                </mxCell>
                <mxCell id="08zl2Wz16HbDXzCnhwST-147" value="&lt;b&gt;&lt;br&gt;&lt;/b&gt;" style="rounded=1;whiteSpace=wrap;html=1;arcSize=8;fillColor=#dae8fc;strokeColor=#6c8ebf;" parent="1" vertex="1">
                    <mxGeometry x="6297.75" y="610" width="105.5" height="90" as="geometry"/>
                </mxCell>
                <mxCell id="08zl2Wz16HbDXzCnhwST-99" value="" style="rounded=1;whiteSpace=wrap;html=1;glass=0;arcSize=8;dashed=1;fillColor=none;strokeColor=#666666;gradientColor=#b3b3b3;strokeWidth=0.5;" parent="1" vertex="1">
                    <mxGeometry x="5884.5" y="895" width="725" height="74" as="geometry"/>
                </mxCell>
                <mxCell id="08zl2Wz16HbDXzCnhwST-52" value="&lt;font style=&quot;font-size: 14px&quot;&gt;&lt;b&gt;&lt;br&gt;&lt;/b&gt;&lt;/font&gt;" style="rounded=1;whiteSpace=wrap;html=1;arcSize=8;fillColor=#fff2cc;strokeColor=#d6b656;gradientColor=#ffd966;" parent="1" vertex="1">
                    <mxGeometry x="5887.25" y="712" width="200" height="123" as="geometry"/>
                </mxCell>
                <mxCell id="08zl2Wz16HbDXzCnhwST-87" value="" style="rounded=1;whiteSpace=wrap;html=1;arcSize=8;strokeWidth=0.2;align=left;strokeColor=#333333;shadow=0;glass=0;dashed=1;" parent="1" vertex="1">
                    <mxGeometry x="5888.5" y="899.73" width="716" height="31.27" as="geometry"/>
                </mxCell>
                <mxCell id="08zl2Wz16HbDXzCnhwST-88" value="" style="rounded=1;whiteSpace=wrap;html=1;arcSize=8;strokeWidth=0.2;align=left;strokeColor=#333333;shadow=0;glass=0;dashed=1;" parent="1" vertex="1">
                    <mxGeometry x="5889.5" y="932.73" width="715" height="31.27" as="geometry"/>
                </mxCell>
                <mxCell id="08zl2Wz16HbDXzCnhwST-89" value="" style="shape=image;verticalLabelPosition=bottom;labelBackgroundColor=default;verticalAlign=top;aspect=fixed;imageAspect=0;image=data:image/png,iVBORw0KGgoAAAANSUhEUgAAAHwAAAAeCAYAAADuInrvAAAG8ElEQVRoge2ae0yU6RXGf7Osq+7CBpjiBV0iTegmYkQji1DYOmNSiSS4M0mhXpKNbS3T6GiCAUlNCEP0H7UiibZK2HbNVoNlVHS5uSSGcbeDQmOhVFw7zIZhwNRdhlkW5DKA0D/IfOFzvrmBbGlnnv++857znId5mPc77wuy6enpaYIIGLz23xYQxPeLoOEBhqDhAYag4QGGoOEBhqDhAYag4f9jGHgxMq/6RW94cXExMpkMpVK5YD1SU1NZsWIFN2/e9CnfYDAgk8mQyWQ+9/i19U9zlSfg0+9aaXz+5bw4Fr3hCw2DwUBTUxN9fX2cP39+wfokvBnDJ/a/zrl+YvoFF213+Unou/PSsegNX+iLQIVCgUqlIioqirKysgXr84vI9/nkWyN9k4Nzqr9ou0vG2wnIQ0LnpeP1eVV/D/Bn25wrqqqqFrzHW68t5Tfy7VyyNVK46gMAmobNtIx8Rc94P93j/QxOjfLOEjkxb0TyzhI5GW9vZNWScMyOr2l8/iV/WXdo3joWveH/T1f9Pwt/j19aP+J339Tx6Xetkjmdjmd0Op4BcNn+BbFLo/hBSCgfRqTxhmz+dvm8pefl5ZGcnIxcLmfv3r3o9XoMBgNKpVI0UOl0OlHMWbdmzRpyc3Pp7e2V5G9paUGj0RAXF0dcXBwajYbHjx9L5s7uYTabOXfuHEqlEp1O55KnVquJiIggOTmZvLw8bDabC5+T6+V6mBkaMzIykMlkZGRkSOb4guEpB3+w3cXs+Nqt2VLocvTxt5EuPrZ/Pq8ZwAmffmViY2OxWCzCc0VFBRUVFZw5cwaDweCS74xlZ2ej1+uFeGlpKaWlpXR3dxMTEyPEq6qqOHDgAHa7XYiZzWb0ej1HjhyR1GQwGFAoFBw9epTq6moAtm3bJqxv2LCBjo4O4bm5uZnm5mbKy8upq6sjNTXVRe/sepPJhEajEf189fX11NfXu/uY3KLT8Qxt758ZnRr3u9aJgRcjfNR/j46xp5yK/vmcebwanp6eLphdVFTEpk2b6O3t5dq1a+Tn53us1ev1Qs3t27e5fPkyAAcPHqSmpgaAwcFBCgsLBbNPnTpFUlISLS0tFBQUUFxc7LFHdXU1arWa1atXizQ7zX5Zs9FoJC0tDZvNhlwud8t74sQJwezZHDdu3PCqaTas4/38yvpHn/O94f6wmavfNrEv4sdzqvdouE6no6GhAYDKykqysrKENa1WS2JiIg8fPnRbn5+fL2yBKpWKZcuWcenSJWpra7FYLKxbt46SkhLBnNnva4VCwbFjxzwOba2trZSVlZGTk+O3Zo1Gw/Xr1yV579y5w5UrVwBc+LVarcvu4Q4jU+P89t+VXvP8RZmtkR8tXcV7b/7Q71qP7/Curi4AsrKyRB+cE/v27fNIrlKpRM+zt1HnrnHv3j0ASkpKJDncxQFCQkJEZvijuba2FofDIcnr1BQVFeXCD1BeXu5W02xctN2lZ9wuiv00bINPtd5qzn3zGf0vnvvN5dFwq9UKwPr16yXXN2/e7JF848aNoue1a9e65Di3TXdcnnrExcW5xHzVPDY2xv379yVzHjx4AEB8fLzkekpKiltNgo7xfuoH20Wx90PfpXDVB1T6cbxyV9M7Yef2wN995nHCo+HR0dHAzAAlhSdPnngkDw31fkngHN7ccXnqsXz5cpeYP5q3bNkimeOMd3Z2Sq63t7dLxmejfqid8elJUeyL5//i2cQA9UP/9FrvS03NYJvf33KPhjvNuHr1quQRqa6uzq9mnnpcuHBBct1d3BufN80pKSmEhYVJcmzduhWAp0+fCsPlbJw8edKjhrHpCZdvtxPZlt/zcf/nHut9rbFNDvl1xAMvhh8/fpyVK1cCM9tbTU0NAwMDtLW1cfjwYeE4NB+cPn0agI6ODpRKJUajEQCj0YhSqfRpOJqL5rNnz7rlyMrKQqFQADMnilu3bgkcOp1OdNSUgsVhwz7p//t1LvjHiNWvfI9TelhYGA0NDSQkJACQmZkpWt+/f79w1JorUlJSKCoqori4GIPBQFpammjdueYrvGmGmUne23s4NzeXtrY2enp6UKvVojW1Wu3xOrZ7wvVyZ6HQPvYKDYeZwauxsZHCwkK6uroYHR0lPT2dHTt2kJSUJLqQAUhMTBS+HS8jOjqazMxMhoaGRHGdTkd4eDgVFRWYzWYiIyPZvn07e/bsoaenx4UnPj7ebQ+nZqvVilarxWQyYbFYkMvlxMbGcujQIXbv3i3Kz8nJwWQyiWK7du2iubmZgoICHj16hNlsZufOnSQlJZGdnY3JZHK7+zwY/sqttleNyekp7JPDRL7+lk/5suD/pQcWFv2fR4N4tQgaHmAIGh5gCBoeYAgaHmD4Dy7E9mWWR9MoAAAAAElFTkSuQmCC;fillColor=none;" parent="1" vertex="1">
                    <mxGeometry x="6158.17" y="902.23" width="106.52" height="25.77" as="geometry"/>
                </mxCell>
                <mxCell id="08zl2Wz16HbDXzCnhwST-90" value="" style="shape=image;verticalLabelPosition=bottom;labelBackgroundColor=default;verticalAlign=top;aspect=fixed;imageAspect=0;image=data:image/jpeg,/9j/4AAQSkZJRgABAQEAAAAAAAD/4QAuRXhpZgAATU0AKgAAAAgAAkAAAAMAAAABAG0AAEABAAEAAAABAAAAAAAAAAD/2wBDAAoHBwkHBgoJCAkLCwoMDxkQDw4ODx4WFxIZJCAmJSMgIyIoLTkwKCo2KyIjMkQyNjs9QEBAJjBGS0U+Sjk/QD3/2wBDAQsLCw8NDx0QEB09KSMpPT09PT09PT09PT09PT09PT09PT09PT09PT09PT09PT09PT09PT09PT09PT09PT09PT3/wAARCAEKAdoDASIAAhEBAxEB/8QAHwAAAQUBAQEBAQEAAAAAAAAAAAECAwQFBgcICQoL/8QAtRAAAgEDAwIEAwUFBAQAAAF9AQIDAAQRBRIhMUEGE1FhByJxFDKBkaEII0KxwRVS0fAkM2JyggkKFhcYGRolJicoKSo0NTY3ODk6Q0RFRkdISUpTVFVWV1hZWmNkZWZnaGlqc3R1dnd4eXqDhIWGh4iJipKTlJWWl5iZmqKjpKWmp6ipqrKztLW2t7i5usLDxMXGx8jJytLT1NXW19jZ2uHi4+Tl5ufo6erx8vP09fb3+Pn6/8QAHwEAAwEBAQEBAQEBAQAAAAAAAAECAwQFBgcICQoL/8QAtREAAgECBAQDBAcFBAQAAQJ3AAECAxEEBSExBhJBUQdhcRMiMoEIFEKRobHBCSMzUvAVYnLRChYkNOEl8RcYGRomJygpKjU2Nzg5OkNERUZHSElKU1RVVldYWVpjZGVmZ2hpanN0dXZ3eHl6goOEhYaHiImKkpOUlZaXmJmaoqOkpaanqKmqsrO0tba3uLm6wsPExcbHyMnK0tPU1dbX2Nna4uPk5ebn6Onq8vP09fb3+Pn6/9oADAMBAAIRAxEAPwDqyhzSYPrUh6misdTtViPDCj5qkNJxS1K0IyWpOaeRTaLsNBuTRk07FJimmxWQzJppJqTFN2VSZDSGZNNJNPIppFO5NhhLU3JpTTAapCY/mnoajyKXeKdxEoA655oywHHWod5pPMp3Fyk3nNnpR5zZyRio/MXINBkU000FmSmRcfKeT2NNBJ61AZFHelEhI4p3sKxKX9KQytUf1pHJ7dKLhYl884xTd7ZNRg0ZoETiRgOtAkaod5pQaLDvYn3t2pp3cEmm5pjy+9CTE2TpIc8mh5CO9VvMNIZCafKK5K83bNQu5xxTc5pwAqkrEt3IwW5oBYU7ZTSccVe5Gww8555qPnNPAzR5Z6jFUtBbkZHvSYankNTMtzTJsIcjnNNJJpxBppBpoTE5x1qMmnbTSFKYhMijI6Uuyl8ulcLMYR6UzBqfyx3oIWncLFfmk5qchaacU7isQc0nNSmmUXYrDDmmkmnmmkUAMJNNOafTTTuBGc03mnmmkUXAZzS80ppeKLgegc5pcUuMk07AryWeshlG01IMU7jFJ3KTRBsNNxU5xTCKlNlaEVGRTimaNlUiXoMzSGnYFIQDV7Ge5GajOTVjZUbpRcpIgINNINWUjx1oMQNLmCyKm00uDVnyqQx0cwcpVOaYc1aMRzSeSTRzA4oq4J6UhDVb8nFNMZqlInlK2xu9OGRTyDSbGPY07k8rF6il2cU4RN6GniNvejmDlbK+00uw1OYmpBEx6c4p86FyMaImPpR5L/3fyqQRt6U4RvnGTR7QPZsrlHHY1GQ3oa0Rbv2Jo+zN3NNVEJ02Z4jJ6g0piPbp71fMNRyRACrU7shwsUTGaXYakcUzmrTIasIUPrTSgp+xs9KQqM9adyWhoi9DQYyOtSiJhjH6UpjboR0pcw0ittqPHWr2xajITPSmpA4lIg0mKtybewFQELk1alchqxCaQ5qQ4ppxVJkMjyaCTS8UhpiG80nNLRTAbSGnU096AGkUw080UxMjNNp9NNAhhFIRT8U0ii4DDTCKkNMxQAwilxSkUuKAPQyME0zB61O6DJppSvLvqeq9iOm5xUmykxT0ZN2hmfajOaXHHSk2miyBNjaMU7ZRsosHMMxSYPNSYpMU7BzJDB70pRTS4Ao4pWYc4mKYSR0FPckVExb0oUbg5WDLd6UY71CXYUnmGr9mS6lixsB70vToKq+YaPOal7NjVZFg/SoXHtTPMc0ZPemqTE6yHiMdxUyBcdAaiQr3P504Sqh65FN0yfbE2cY+WnCRccjp14pBNEeN2M+oppeMdJOfap9m+xftuzHZR6UbR0xUXnDafun6jFAlj6Hg+xodIFWJw43c4p5KegzVbKH+Ij9aa8cmPlcMKFTXUTrMsGXZ3HtUf2gnrgVVIYHnOaTNaKmjN1WTmRs9KYQz+tM8zFIbgjpT5Gthc6e44wmmGM54pDMx6mmea1UkyXJD/LPrQUAqEyMe9HmGq5WLmRLvI6dKjeVumTSb80hdRQkJsaZDTTIT0FOJX0pC69hTSFfzIjk1Gc1MSPSmGqWhL1IiKTFSde1NIqrk2I8UYp+DSbDTuKxHxSVIUpvFFwsMINJinmkINFwGYpuKk2mmlKLhYYRTCKl2n0o8pj2P5UcyDlbICKQip/Jak8vFK6CzK5FNIqd0AqI007g1YiNP4pDS0wPTDEckmm+VnpU8jkHIHHr1pTIqJuY/TArx22j1tGVfKP8AkUnkGh75d4x0pJLrIzGMk9jTTYWQvk+oo8vHaqkl42/G7n2pv210xxn0q0m9iG4rRlsxmmbKg+3ynsoz0FN+1PzyK0jFvcycoonKE9qbsNQm5k9aY8zHqxzV2aRnzK5YKAdaaSBzUYLHGX7cUmwv1YfU0lFvcbklsKZAe9MJzUqWrOfkKt9DTZIXj5ZeM445qly3tfUTcrXtoQkMe1NMbdxUyBvbHvSnHOR9MGtFoZN3K+yk2VLzxim855qiLsbijFPCE9KUxkUXCzIsUlSUmKLjsMwaTFPxRii4rDQKMU7FJigaAOR3oDsOhoxRikF2BkY9/wA6bzTsUYoHe43mmVJSUxEeKQj2qXApCKLgRYFAFP8ALpwQd6LjSG7RTTEtTDaDSna/Q1N3ctJFcoo60hC1MY6YYyO9FxWITj0pCB9ae8bDmmYaqExDGKYU+lTbG9M0uxu60XCxWIpuyrZiBHvUZjI4oUkJxZB5dHl1dihzwVNTi1Qdql1UtDSNFvYzBFml8oelaZhXsopPLUdQKj2xaoszfL9BR5Q7irr7ewqJ8nsBR7S4ezsVsAcgc+9NcnHJqcxk0ww8cijmXUXK+hVcgeuajLsegxVsxe36VE8Tnv8AkKtTRDgyk6GoyKuG2b0P40w27elWpruZuD7FQilwas/Zz3p32c0+dB7NnoskokBTDDAz061kXN/cISiIdqjHTND6ts4ACkdxzTE1WI58wqxPXIrzlTle9jvc4pWuUvttzv3GMnJzjHWnRPLNISY2G3kr0q8mrWgJ2xDjgYFRvqMcmS0TMGOFyMVauugm09mOS4TeQ8SITxkCg/Z353OWzxkdaqpJEcsQozwFByasRcg8kA8HHNO1tkTe61Yn2dTljxzjr1pDHjOCOKf5XOSxNO2D0rWKfUxlJdCIfSl2VIRnmjFWZ3IwgFLin4oxTEKHaIh1G046jmrMd4siFJwM4+961GkYRAyuMnsaikRzk7VJ9jisZqMnb8TohzRV/wABskewnacqeQRUZBHUEfXil/egjgAfWnHJ6kn61rFuxhJK4zFNIqTFJVXJsMHFBz1p9NoAbiinUUXAZiin0UrgMxRikklSP7zVH9sh6bj+VZOtBOzaNFSm1dJkuKTFNE0T9HX8eKf16HP0q1OL2dyXGS3Q3FGDTqKq4hmKMU7FFAhpFNxT6Si4DaTNONNNML2GE03fSkU0imF2OEpFIZW9cUw0lFkLnZJ57etJ5inrUVFHKh85L5qilEgqCilyoamyz5oB5o80Z6Cq/PSlG/3x71PKi1NluOTkCp9/SqAOO4pXkbs35VlKF3obRqWRoF1A61EXX2qiZH/yaieRs0lR8xut5F93QdxzQroR2rNyeSaPN/CqdISrWdzQfGDgioi6hDkiqMkzHgce9ReZQqL6sTrq+hfMi44wT3qEyqMmqnmMM4OKYXOMZq1SsZutclkuCc4qM3DY5NQkmmnNaKCRm6jbJjMcil8/61W5pcmjlQudm7JZ3LgfMuAcgikSyn3guDKD/CDXTyRRjIVCo+lMSJgf3fX1HFcik+51OydrXOc+wyh+IXVT0yelSJY3ZOFyEHQE8CugeFhy3Oe9MKEVSlfqS9OhRhsGHM0iknjgYxU4iWPhen86mwKTFUkQ3cZ+VJin0VRI0Ivf9KdsXPHSkooAcSn93p3zTDt7D8+aSihILiHFJS0UxDaSnYpMU7iG0lOxRimA2kp1IcDqcCk5KKuxqLbshlLiopLpE4B3H2qvJdHqzYHpXHVx0IaR1Z008JOWr0RaeRU71VmvAM44qlLeE5CVASznmvOqYmpV3dl2R3U8PCHS7JJJmdic0wBjShKeOK5+axvYQBvWngsOhIpryLGhdmCqo5YnGKzpde02M/PfQ59Ac/yq487+FEy5Vuan2mUdJG/Omm+nHSTP1Gaxn8SaSP8Al7B+iE/0qI+KNIHWeQ/SM1snWW1zNqi97G5/adwO6n6inJqdwf4EP4YrnH8Y6ZH9yG4kPuAtU5vHjci2sUX0Lvn+VbReIfcycaHkdql/cP8A8sV59zUdzqyWab7uWCEY6MeT+Fed3Xi7VLkEed5Sn+GIbax5bmSZy0jsxPUk5zW8Y1n8UrGMvZLZHdaj4+UZj06Lc3/PWUYA+i/41NpnjqGbCajF5THjzY+V/EdR+tefRh5ZFjjVnkchVVRksT2Hua9W8J/CTfHHd+JHZWYZFnGcY/329fYfnXRG663MJKL6WNCG4huoxJbSrKjdGQ5qUxSY/wBW35GuwtdO0vQbUi2t7WyhHVsBc/UnqfrTE8SaK7+Wur2BfP3ROtbe0MeTscaR27+lNrv5La2vYwXiilRhwwAOfxFYOpeGiiGWwJYDkxE5P4H+lVGonuS4s52m04ggkEEEHBB7UYrS5NhtJnFTW9tLeTpDAu6RjgD/AD2rq9P8N2lqA1wonm6ksPlH0H+NS5JbjSb2OPQu/wB1Wb6DNJIJerIw+oIr0Rpba1AVnhhHYEhaEurabhJoX9gwNRz+RVn3PNt5PekJNdzrenWH9nzTzW6h0XKsg2knt0964faapNMTTQ3e3qaPMPelKGmkVWgtRPMNRknmnmmHNCsK7e42mmnHNIRTuIaaaadimkUXCww001IRTCKLjsxhpaCKXFK4WPQ3dS5y2R9MVMksQ6H86qHqaSuRwT0OlTa1LhEcjZ8z9ajeJP73Hsc1XoqPZW2Zftn1Q57dc8S/nTMe+felpK1irdbmTd9lYMUmKWiqJExRilptACUU4ikwadwsJTa0/wCxJMZ85OmehqjFbyTSeXGpZu/tRcLENJWvHonGZJsHuFGaSbRCEJglBYdFcYzS5kgUWzJqOSeOIfMwFZmpXt3a3LW80bRSDqvr/iKZp2nXmrzEQISqn5nY/Kv/ANf2rini5N8sFqdkMLFLmm9C1LqS9I1z7mqsly78yOceldDF4MGwedetu9ETGPzqteeCZQha1u/NI/gkG3P41z1KdeWsjenUox0ic890BwgqE7pDliama1e3kaOSNkdTypHSnLET0Brjemh1LUiSOpAlXLLTZ72TZboXI6kdB9TW5D4RmwDNcpGfRF3EfnWkKM5/CjOdWENGzmRGepwB6nio5biKIHncR+FdZJ4KikHN/Nn12CsLVvAmoQxtJZTpdADOzG1z9Oxq/qk1q0QsTB6JnM6neLdwNBIqmJuq9K5S505QSYTx2BrXuXeN3SRWR1OGVhgg1SkOa3pXhoTUtIxpLd425BFREEVqv3q7o/hPVPEkhGnWpaIHDTOdsa/j6+wzXXGd9GjllBLW5zZppzXq9n8FCUBv9XCseqwQ5A/E1Yk+CdgR+71i7Df7USmtLGV0ePU3pXceKfhdqHhvT5dRW8t7qziwXPKOMnHQ9eT2Nc94W0U+IPE9hpxB8uWTMpHZBy36DH40Bc9N+FHgpLSyTX9QiBupxm1Vh/qk/v8A1P6Cul8ceNLfwhpykKs1/cAiCEnp/tN7D9eldITFbW5PyxwxJnjoqgf0Ar5o8Ua9L4k8Q3eoyE7ZG2xKT92McKPy5+ppvQlasZq+v6jr90bjU7uSdychScKvsF6AVTDgdh+VQUuaRR0Xh/xbqfhy5ElhcN5WctA5zG/1Hb6jBr3Xwx4ktPFGkreWnyup2zRE5Mben0PUGvmvfXVfDrxG2g+KrcO+LW7IgnBPAz91vqDj8zQgauj2DxJpQwb2BcHOJVHf3rnMCvQbi3S5t5beYZjlUo2PQ8V4RJ4g1LQNVudOumFyLaVoyJeG4Pr7jB5zWsZ20ZlyX1R6/wCF7NYrNrkj55TtB9FH+JpfEOrSWQS3tztlkGWb+6Pb3NJ4N1KLVvC9pdQqVB3KVJztIaqHiqFhexTYOx49oPuP/wBdCabB3SMJ3ZiWYlmJySec0zJqQ02tCNSV766e1Ns0ztCSDtJzjFVSD6mpKbRsG4zaaTZ6mnGkNFwsJ5a92/TNHlp/eP5UYpNlJ+o0vIDGnrTDGv8Ae/SnbTTTGaV/Mq1+gwovZqYU9CKl2Uuyhyt1BQv0IPLpyW5PWpggFTJtFYVKzS0OmlQTepT+zgdeal2r/dFTSjjpTMH0rH20jp9hFFGTx1fGYYgtwgPK4Jz+NQ6n4yu7xHSAC2iJ42nLH8fT6YrkZJmEgC9QOcHrSecTwSeOK7FHqedc6/RfGFzZYiu91zB0BJ+dfx7j612Wm6xZ6qD9kl3OoyUZdrD8PSvIElI71ZhvpIXDxuyODkMpwRScQPY8GivKhrl6Jlm+1zmReAxc8VbtvEeowzCUXbuVGSrtkEfSpsOx6TRXFHxvdiQnyLcqQMLk/L+PvW1beLdMuBmSVoGyBtkHX8R2oE0bdNqjDr2m3LlIbpXYHHAJz+lWJb6GLq2T6ColUjH4mVGnKWyJqCQASSAPesqbWxyI1A9zzWZc6nLKD8x6VzTxaWkVc6IYST1k7Hp6cxqfVRWbd3lp4fsDLMcljwB96Rvb6Vftv+PSE+sa/wAq4DxXcPe69MhJ8uD92q+nr+ZrWtU5IXW7M6NPnnZ7ItS+OrwyZht4ETPCkFj+db+geJI9Y3RSRiG5UZ2g5DD2+npXApbmtLSQ1rqdtMuQVkAP0PB/nXFDEzUld3R2VMPDldlZnZa7oiaxBGAQkqMMPjovcf1+tMvb+08OWUdvBHuYD93EDjPuT71sY5xXnOramLnUriTGTvKjPYDiunES9muaK1Zz0Iuq+VvRGuPFl+Xz5MG3+7g/zrf0rVotVhJUbJU++mc49/pXnEl43PNX/C2otF4kt13fLNmMj1yP8RXNRrz50pO6Z0VqEOVtKzR1HiyzU2BvlRTJDjcfVf8A61cLLfseM8elen6rEJtIvIyOGgcc/SvGDMW/KqxVNc6a6iws24NPodP4b8TR6LPcG6DvFImQqjJLjp+fNSX3xE1CUn7JFDbp2yN5/WuPeTrUMko7nFTGc0lFOyLdODbk1qdMnj/W43DGeKQA8q0QwfyruPC3imLxJbSAxiG7hx5kYOQQf4h7fyryKK1urn/j3tp5f9yMt/Kur8Aadqlj4ojkmsrmGB4nV2eMqOmR+orelOd9dUYVoQs7aMv/ABO0NPIj1iBQrhhHPgfez0b6jp+VeZua9z8aQrN4P1RWAO2HePqCDXhRzjjk9h61VWNpXXUmjK8bPodP4I8InxLftNdbl0+3I8wjjzG/uD+ZNeuXNzp+gaUZZjFaWVuvAAwF9AAOpNV/DGkrovh6zs1UBwgaQjqXbk/4fhXmXxO16TUdeOmxufstkdpUH70h6n8On51qrQV+pk71JW6F7Vvi/cmRk0ewjSIHAkuCWY/8BHT9azI/i14gjcF4rGRe6mIr/I1xhFNIqedvqX7NLodd4u+Ij+KPDaaebI20pmDylX3Iyjpjv1wefSrHwasRJ4kvbsjm3ttq57Fmx/IGuGIr034MAeZrB74i/wDZquLu9SJRstDrviFfNYeBdVlQ4d4vKUjtuO3+RNfOeMV7/wDFUE+BbgDvPFn/AL6rwmS3PpVN6kRTtcrUlPdCKbimMM0b2T5lOGXkH0pvNGaAPqXRbz+0dDsLzvPbxufqVH9a8R+KtuLTx7dsowJ445fxK4P8q9f8E5/4QjRN3X7IleU/GRx/wm0YHUWcefzahkR3LXwr8ZRaRdyaRqMgjtbp90UrHiOTpg+gbj8RXsV1axXkDQzruRh+XuPevlXNd14S+KWo6BGlpqCG/sV4UM2JIx7N3A9D+YoTsNq532paBqdgS9vD9vt85zFxKv1U/e/A/hWRFewXEhjSTEq8NE4Kuv1U811+h+N9B8Q7Vsb5Fnb/AJYTfI4/A9fwzV/WPD+na5H5eo2qyMo+WUfLIn0YciqUmTyrqcOaSs7xLpWteDCLiOc6hpTHAeUZaP2bH8+n0qlZ+LrO4wJw0Dnrn5l/On7Qap32ZuEUhFRRXkcwBR1dT0ZTmpSRT5r7C5bbiYowKp3mq2tiUWeXBY4GBnH19qil16yidR5jMGPVBnFDuxqyL5FII3c4UEn2qrJrenoCY2aY4BCqev41i3Xiy+MZhtNtuGbBdVwfzNReT0SLtFat/cdLJbSx/eXHGTz0qL6nAHUnjFcg/iPU4yW+2vJkYJIBBqhdarc3h/fTMwxjaDgVSjJrUlyinpc7W41OztRmS5jHoAdxP5VkTeJ5ZCy2saxxgH535P5f/rrmHlMmFY4APUDpToZgEkQjlhgNQ6atd6jVV7LQuSaneid3W8mDOvJ3+tVPt15/z8T/APfw0kg2WxJzk7VFM86P+6ado9iXKXccZfkG0YBP1zTQ/NEpGQAMADgU1PvAnPoAO9UtiepKHz/WnbzVq20W/vOYLWTH95xtH5mtS38JNwb67RPVYhuP5nj+dZTrQhuzSNGctkYG9hj2qxaxXVydtrDJKx4+QZxXWW+j6Za4KW3muP4pju/TpWgJW2BVwqDoqjAFcs8alpFHRHCP7TObtvDV9Jg3U0VuvcE7m/IVsW2kafbABw9yw5y5wPyFWtjH1qQRE1yzxNSfW3odMaEI9LjhcCNNkKLGn91BioXkZu5qwlsx7GpRaj+IgVg5dWbJW2KGxjS/Zy+eO1aGyKPrz9ajkuVjBC4HHalfsFj0i34toR6Io/SuC1gRJrN2zHJMp4Fd7bnNtCfVFP6V5l4huMa7ejPSUiu/FJuCOHC/GxXulT7oAqOK9Y3kIz1kUfrWVJck0WsxN7b/APXVP/QhXHGGp2yejPaf4q8dvLj/AEyf/ro3869i/irxG8P+mT5/56v/ADrtxSukcWFdmxXmY9DV/wANMf8AhJdO5/5bisZ5lFaPheUnxRpo7eeK5oL3kdU37r9D1+9/48Ln/rk//oJrwozAAY54r3S+/wCQddf9cX/9BNeConyADrjiurELVHJhbq5t+HPDV54luiIz5NtGcSTEZx7D1Nel6b4T0XRIfMFvG7qPmnuCGI/PgfhVzQdNj0jRLW0jUDbGCx/vMeSfzrzbx3rtxqWtTWSuy2dq2wRg8Mw6sfXnirSVKN2rsTlKrJpOyO4ufHWgWJKfbhIV42wIWA/LijSvHOla1qUdjafaTLICQXjwOBk968cxiui+H4/4rG0/3ZP/AEE1MarbSHKjFJs9L8Vf8ipqn/Xs9eH2EYl1K0Q9GnQH/voV7j4p/wCRU1T/AK9nrw2Bzb3MMw/5ZyK/5HNVVeqJo/Cz6J/5aY96+ddakabW7+RuWa4kJz/vGvoeOVZUSVDlXAcEdwea8I8Yaa+m+KtQhYEK0pkQ+qtz/Uj8KursmRR3aMAimkVP5ZpPKY9qxTsdFivivQfg7ciPW9QticGW3DD32tz/ADrhTER1rX8I6muh+J7K8Y4iD7JT/sNwfy6/hVxlZozmrpnrnjyya+8F6lGoyyRiUAf7Jz/LNeEIg/CvpeSNJomjcBo5FKkdcg/4ivANd0OTQtbuLGQHbG2Y2I+8h6H8uPwqqumpFHW6MWW1GCwGQOoHaqj2+RlcEeordjj6Vn6latalZoxiOQ4K+h/+vUU6l3Zmk6el0ZjxkVGY2chFBLMcADuTV0OsnUYNdR8PPDR1zxVBI65tLIieUkcHH3V+pP6A1umYNdT2/SLP+ztGsbP/AJ97dIz9QoH868I+Kd4Lzx/fhTlYFSHj1C8/qTXvWo38Wl6dcX1ywEVvGZGJ74/qTx+NfMF9dS6jqFxeT5824laRs9iTn9KZKKuaUGjFFBQueh7g5B9K9A8EfE290i5hsdYma605iEEjnLwe+e6j0P4V59SE8EUC3Pq24t4L+0kgnRZredNrKeQyn/Oa+b9f01tB8Q3umsSRbylVY916g/kRXvfg6SWXwZo7z58xrSPJP0/wxXjnxWK/8LAvNuM+VFux67f/ANVDEtzn7a9ltzmGRkPcqcZqzJqU1wgWSeRlznBYmsgPUgekm1sVvuXDIcnGSPzpyOxw2WwOF571UEh9akEnAHbOa0VR21J5F0FFw0eRnknJ9qDM0mfmJzzjNNMYckg8k55qMoydj9atST2IaaJZCYyVPpnjkUgKnr09qjyeDnOOmeaSqETI6jJIzn9KZnqfembzRvHuaVhXH7j05x9aMj3p8PlFx5h6noeMVJ5kf/POL86LjsdVD4W0+E5uJprg/wB0fIP0rTt7e1swPstpDGR0YLk/manEJJ6VMlqT2rw51pS+Js9eNOMdkQGSST7xJ+tKImPrVtYVTqR/On7407ZrLmNCulsT2NTJbY64H1oNzjpxUb3NLVjLAjQdTmjzUToBVB7r3qCS8HrTUbhc0nusd6gkvD61mPdE1C8x9apQFcvyXXXmqst1kH6VUeX3qF5hg/SqUBNnudr/AMecHvGv8q8j8SyH/hJNRHpM1emWmuaWLO3DajaAiNQQZRxxXlHiS4E3iTUHgdXjaZirKcgiu2vZxRxYe6k7lQye9OtZV+323P8Ay1T/ANCFVfLJ6mprKNUvbdmOAsqEk8Y+YVzJJM6m3Y96/irwa93G9uOf+Wr/APoRr2v+29M3f8hG0/7+rXjVxHvvJ2HIaRiCO/NdGIaaRy4aLTdyr5da3hZMeKNN/wCu4qokJPWtTw+Et9fsZJGVEWUFmY4Armi/eR1yXuv0PVb3/jwuf+uT/wDoJrw1ECbTj7uDXtF5qtg9ncKt9bEtGwAEg54ryMW52jjtXRiJK6szmw0XZ3PareVbi2hmQgpIgYEd8ivIvGWly6f4iumdCIrhzLE+OGzz+YOa6Xwl4oWxgXT9RJEKnEU2M7fY+3vXZSJZanbbXFvdQtyAcMKt8taKs9TJc1GbutDwsp+vAr0T4f8Aheaxd9VvozHI6bII2GCAerH0z0rpBp2h6RmcW9lbled5ABH51z+o+O7STVrSC2ulS2Ey+a5PL8/oPrUxiqbvJ3ZcpuorRVkdF4lBfwxqajqbdxXin2NiOley6rrekz6VeRLqVmzNCwCidcnj+teNvrTYHlwovHU80Yi7asPD2Sdz1XwHq/27REs5z/pNoNmD/EnY/h0/CpPGPhKPxJbJLCVS+gGI2PAcf3T/AI15Fba/qFleR3VtcGOWM5BA4PsR3B9K9M0D4naZqMax6oRY3OMFj/qm+h7fQ/nWlN80bSM5x5Zc0Tzm/sZ9MnMF1ZyxSKcESDGfp6j6VQkMj8DaueODX0ALjT9RhGJbS5iI4G5XFR/ZdIssyeTp8BH8RWNcUlRtsx+301R4NJpF5Hard3EEyW7NtWRxtUnrxmmJbL/eX869F+JniXQr7w3Lp8F/FcXokV41h+cAg9yOBwTXj5pum3sxqppqj3bwD4kGo6emm3Uim8t1whJyZUH9R0rR8VeFoPElmBkRXkQ/dSkZ/wCAn2P6V89Q3EtrPHPbSNFLE25HQ4Kn2r1bwv8AF6CSNLbxGhikHH2qJcq3+8o6H3GR7CtErqz1MW7O8dDAvPD95pEhXUYvIVTjex+U/Rq53X7+1eBba3kWQq25mHT8K+gLXVdK1qD/AEa8s7uNh90OrZ/A0g0PR438wabp6t13eQg/pWSw6Tvc1eIbVrHz/wCG/B2r+JblVsbZlgz89zKCsaj69z7CvefDXhy08MaSljZ5Yk7pZiMNK/cn+WO1JqfirQtEhP2zUrWLaOIkYM34KK8w8XfFm51WGSy0JHtLZhte4fiVx7f3Qfz+lb7GGrLfxS8ZR3rnQdPlDwxNm6kU5DMOiD1A6n3rzQxg1EDTt5xSZSsjpbb4d61qHhuDWLCFbhJdx8lT+8ABxkA9QcHpXN3VlPZSGK7glgkU4KyoVI/Ova/B/wAR/Dz6TaafPIdOkt4ljCzcocdww9evOOtdmLjT9SjBEtndRkcfMjinYV2j5ZyvqPwrrfCHw+1LxNeRyTwyWumA5knkXbuHcID1PbPQV7uunaXbnzFtLCNh/EI0Uis3V/G+gaIhN3qULSAcRQnzH/IdPxxRYV77GvJJa6VpzO7LBZ2sWSTwERR/QCvmnxDq7a94hvtSYEC4lLKp7L0A/ICt/wAb/ES88VZtLeNrTTA2fKzlpcd2I9P7o4+tcdQxpWFBpQ9MozSGTA08PUANKDQFywHp4kNVw9OD0DuWPlPb8qb5foc/Xiow9OD01JrZiaT3HpbSy7tq8KMkk4qSK1DxtI7fKq52r3pgkNSx3BjBHBUjBBFV7RiUELa20TurM5YYJC464rQ2xf5FZtqRDJknK9R7Vb+0xf3aTl5jjHTY9EMygnAFMe496z3uhk81CbknvXjKB6lzSe4HPNQvcqM81QMxPeojITVcoXLr3lQvcse9V8k0lNJILjzKx70wuTSGmnNVYQpeonkp+KYU9qdhETyMelM+Y1YEWe1KLcntTukK1yukee36VKkZ9KtJb1Olv7VLkUkUxCxp627d6vJb1Olv7Vm5DUSglqP7oqwlv7VdS29qsR2p44qHULUSgLY+lPFrntWmLZRUgiX0H41m5jsZYsvb9KmFiO9X/wB2vU/gK57WvFkVnuhsFWSUcFzyF/xNOCnN2RLcYq7NC4FtYw+bcyLGnYscZ+g71g3XiXkrp8QQdPMfkn8P8a5y4vLi9nM1zK0kh7sc4/8ArUB67YYfl1b1OaVbm0Wxcubq4uzuuJmkPoT0qDpTPMNNMhrZRIuPOPQU0mojIaaXq1ElscSaaXppemF6pIm48EjkEj6cUyQl/vEn6nNMyaSqSJbExSU6kOKZI3FJinUGmAzGDkcH1HFKZZSMGWQj0Lk0tIRQIjwB2FJT8UmKAExSU7FNoEFPRyhyuQfY4plOoAkMrOMM7EehJNJhewA+gplGaBilKjIqTfS0AQ4ppqYikIoERUtLikIoAUGlzTKWgCUPS76hpQaAJt9ODmoAaeDQO5MHp/mVACKXNAHbknNHJqXyuad5YrzT0iHFLg1NtFGygCHBowam2Uvl0AV9lG01ZEdOEVK4FXyqcIatiEVIkPtSch2KqQmpUt6tpDU6W59Pz4qHMaRTS39qlSEelWcRR/fkX6Dmmm9gj+6pY+9RdvZFaII7YnHFWEtQOW4+tUJdXYcLtUe1UZdSeT+JmpqnJ7i5kjfMkEXVh+FRPqMSdOawk8+Y8ZA9TVqKFARuYyN6Cj2SW4XbNAX7ynEa/kKeXKAvM4woycnGKiJS1gMtwyxRKMkZrkda1yTUiYYcx2wP3ehb6/4U4U+Z2WwpSSRJr3iR7rdb2TFIejOOC3/1q58A0/YKXFd0EoKyOSTcndjMUvNOxSVdybCc0UtNNUJjTTDTzUbmmiWMJpKdRVkjc0UYooEJRRzSUAFFFFABSUtFACYpCKdRQAzFIRUmKbimIZiinYpKAEptOxRQA2lyaWm0CHZoptJmgB2KbinZpKAG4pKfSUANop1NoAKUGkooAkBp2aiFLmgD0YnmjNVBf2hJxcxfnU0dxDJ92eI/8DArzuVroejzLuTUuKVEU/8ALWP8DmpBHGOrk/QVI7oYBTgKf5kKdifqaab1U+6qj6DmjlbDmQ9ImPRT+VSi3PfA+pqlJqZ/v4+lVZNS6/MTR7NsOdI2cRR/ekB+gpDeQR/dUk+5rAN6z9ATTkNxL91W/Kn7NLcOe+xsvqTD7oVaqy6iT96Qn2FVRZzHmRgo9zThbQJ95i59BQopbBdsR70n7qkn3oAuZexUe/FWI45DxBb4/wBoinm1c/8AHzcqo/uqc0XQWZUMEaczS5PoOanhTJAggJ9yKljS2j/1cTSN6tUs16tsmbiVYV7KOppNsa0HR2bnBuJMD+6KLzUrTSY8AZlI4Uck/wCFYV74kY5SzUxjoZG5Y/4VivI0jlmYlickk5zTVJvVkuaWxc1HU7jUZN0zfKD8qjoKp4o5orVJJWRk227sMUUU0mqEBIphNBNMNUkSxSaYTQTTCatEtik01zTSaYTWiRDY7NGajzS5qiR9FNzS5oAKKKKQCUUUlMBc0UlJmgB1FJmloASilpKACjFFFACYpMU6g0CGYop2KSgBuKYakpMUCGUUEUtACUUmKSgB1NoooAKKKKAClz/nNJRQBczTsio80oNIu5KHI6Ej6VKlzKn3ZXH0Yiq2aXNKw7mgmpXI6Tv+JzUg1O47srfUVmh6eHpWXYfM+5qJqf8AfhVvoSKtR6rbD71qfwOaww9OD1LgmNTaOjj1iz/55sn/AADNWBq1ketw49hGa5YPT81LoxZSrSR1I1LTOplyf9rNP/tjT0+7NGv0QmuTzRU+wXcftn2Ook16y7zyP7BSKqSeILZM+XbyOfVjisEigHHUUexig9s2aU2v3coIjCwr/sDn86z3d5SWkZmY9STnNKMHpTttHKlsg5m9yPFOAp+ylxUspDaQ04000DuNJphpxppppCuNNMNONMJqkiWMJqMmpDUZrREMaTTM049Kjq0ZsdS02jNMQ7NLmm5ozQMdmlpmaWgB1FJmjNABRRSZoAWkozRQAuaBSdKKAFpKKKADNFJRmgBaKSigQUlLRQA3FJinUlAhhop2KaaAG0U7FJigBtGaMUlMBc0ZptFAFrNLmm0tSUPozTaXNADs0uabS0hjg5p4eoqWgCYPSiSoM0uaALHmUvmVBvpNxoAs76N9Qb6XPvQBMHxTxcEdarZpN9FkxptbF0XCnvS+aKo76N5HQ1PIiudl3zBSF6p+a3enCYVLgNTuWCaYXqPzM96TfRyhzDyaYaTcaaTTSFzAaYadTDVJEtjTUdPJptUiWJS0lFMQtFFFABS5pKKAFopKKBjqTNFFAgo5pKM0ALmijiigBaKSigYtJiiigQUUUlABRmiigAoIpKKACm06m0CE5paKKAG9aTFOooAZikxUlJgUAS0tNpaRQtFFFAC06m0CkMdS0lLQAUlLRQAUUYooAM0ZpKMUAOzRmm0UwHZpM0lGaBC5pKKKADJoEhpKSgB+/wBaMimUlFguPJppNFJQFwzSUppKYgoNJRQAUUvWjFABRRikoAWkpaDQAlLRR0oAKKKMUABpOaWkoAXNFJS0ALRSUUALSUUUAJRRRQAUUmaWgBtFFLigQlFFJQAUUUUAJmnUlLQA6ipJv+PmT/eNR1JQtFFLQAUtFFAxaWkp1ACUtFKPu/jQAlJTqSgBKKX1oNABSU4Uf4UANpKdRTENop1FADaSn0hoAZRS0UAJRQaKBBRSiigBpplSUGmA3mloooAKMUtFACUUvpRQAlFLQKAG0tLSf40AFFFHpQAhopaKAEpaSloAM0UUUAJQaWigBlLmlptAhc0lFFABSUtFACUUtJQAUtJW5b/8e8X+4P5UAf/Z;fillColor=none;" parent="1" vertex="1">
                    <mxGeometry x="6336.64" y="904.73" width="39.68" height="22.27" as="geometry"/>
                </mxCell>
                <mxCell id="08zl2Wz16HbDXzCnhwST-91" value="" style="shape=image;verticalLabelPosition=bottom;labelBackgroundColor=default;verticalAlign=top;aspect=fixed;imageAspect=0;image=data:image/jpeg,/9j/4AAQSkZJRgABAQAAAQABAAD/4gIcSUNDX1BST0ZJTEUAAQEAAAIMbGNtcwIQAABtbnRyUkdCIFhZWiAH3AABABkAAwApADlhY3NwQVBQTAAAAAAAAAAAAAAAAAAAAAAAAAAAAAAAAAAA9tYAAQAAAADTLWxjbXMAAAAAAAAAAAAAAAAAAAAAAAAAAAAAAAAAAAAAAAAAAAAAAAAAAAAAAAAAAAAAAApkZXNjAAAA/AAAAF5jcHJ0AAABXAAAAAt3dHB0AAABaAAAABRia3B0AAABfAAAABRyWFlaAAABkAAAABRnWFlaAAABpAAAABRiWFlaAAABuAAAABRyVFJDAAABzAAAAEBnVFJDAAABzAAAAEBiVFJDAAABzAAAAEBkZXNjAAAAAAAAAANjMgAAAAAAAAAAAAAAAAAAAAAAAAAAAAAAAAAAAAAAAAAAAAAAAAAAAAAAAAAAAAAAAAAAAAAAAAAAAAAAAAAAAAAAAAAAAAAAAAAAAAAAAAAAAAB0ZXh0AAAAAEZCAABYWVogAAAAAAAA9tYAAQAAAADTLVhZWiAAAAAAAAADFgAAAzMAAAKkWFlaIAAAAAAAAG+iAAA49QAAA5BYWVogAAAAAAAAYpkAALeFAAAY2lhZWiAAAAAAAAAkoAAAD4QAALbPY3VydgAAAAAAAAAaAAAAywHJA2MFkghrC/YQPxVRGzQh8SmQMhg7kkYFUXdd7WtwegWJsZp8rGm/fdPD6TD////bAEMABQUFBQUFBQYGBQgIBwgICwoJCQoLEQwNDA0MERoQExAQExAaFxsWFRYbFykgHBwgKS8nJScvOTMzOUdER11dff/bAEMBBQUFBQUFBQYGBQgIBwgICwoJCQoLEQwNDA0MERoQExAQExAaFxsWFRYbFykgHBwgKS8nJScvOTMzOUdER11dff/AABEIAyAEsAMBIgACEQEDEQH/xAAdAAEAAQUBAQEAAAAAAAAAAAAAAgEDBAUGBwgJ/8QAVBABAAEDAgAHCA4HBwIEBgMAAAECAxEEBQYSITE0QVEHEyJxcoKxshUyQlJhYoGRkqHB0eHwFCMzc4OiwiQ2Q4Szw9IWUyUmVGNFZHST4vJERlb/xAAcAQEAAQUBAQAAAAAAAAAAAAAABgEDBAUHAgj/xABKEQEAAQQAAgUHBgoIBgIDAAAAAQIDBBEFBhIhMUFREyJhcYGRsjJCobHB0RQjNVJicnSCg5IVFiQlM0NT4TQ2RHOTosLxB7Pi/9oADAMBAAIRAxEAPwD7LAAAAAAAAAAAAAAAAAAAAAAAAAAAAAAAAAAAAAAAAFqu5RRTmuuKY+GcNVf3e1b5LUTXPbzQDdLdddFEZqriPHOGh77uupjwaO909vtfW5U6dprqnjX9RMz14++oGfc3LSUf4vGn4sZYdW80c1Fmqqr4ZiPV4zJt7do7cfseN8NU5/Bm02bVHtbdMeKIBpfZLXXPaaT+WZJvbtc5rE0+KMetLoAHOTTvNXvo86I+1XvW89tf04+90QDne9bz21/Tj7zvW89tf04+90QDne9bz21/Tj7zvW89tf04+90QDne9bz21/Tj7zvW89tf04+90QDne9bz21/Tj7zvW89tf04+90QDne9bz21/Tj7zvW89tf04+90QDne9bz21/Tj7zvW89tf04+90QDne9bz21/Tj7zvW89tf04+90QDne9bz21/Tj7zvW89tf04+90QDne9bz21/Tj7zvW89tf04+90QDne9bz21/Tj7zvW89tf04+90QDne9bz21/Tj7zvW89tf04+90QDne9bz21/Tj7zvW89tf04+90QDne9bz21/Tj7zvW89tf04+90QDne9bz21/Tj7zvW89tf04+90QDne9bz21/Tj7zvW89tf04+90QDne9bz21/Tj7zvW89tf04+90QDne9bz21/Tj7zvW89tf04+90QDne9bz21/Tj7zvW89tf04+90QDne9bz21/Tj7zvW89tf04+90QDne9bz21/Tj7zvW89tf04+90QDne9bz21/Tj7zvW89tf04+90QDne9bz21/Tj7zvW89tf04+90QDne9bz21/Tj7zvW89tf04+90QDne9bz21/Tj7zvW89tf04+90QDne9bz21/Tj7zvW89tf04+90QDne9bz21/Tj71OLvNPuap86J+10YDn+/7tb57E1eOnPqyr7Kau3+10mPkmn1m/AaSnebFU4rt1x80sy3r9Jc5r8RPxvB9ZkV2bFz29umrxxDDubZpK4zFE0+KZBn01RVGaaomPgnK45+dqv25zp9VMePNP10o/pG56T9tb49PbjP10/aDohqLW66e7yV5on4eWPnpbOmqm5TmmqJjqmAXAAAAAAAAAAAAAAAAAAAAAAAAAAAAAAAAAAAAAAAAAAAAAAAAAAAAAAAAAAAAAAAAAAAAAAAAAAAABGqYiMzOIjraXU7ny8TTUceqeSKuePN7QbS9ft2KeNcrimPhai7ud69XNvSW5me2Yz9XV8pa229eq75qrkzM+5ieX5Z6vkbq1Zt2aeLboimOyAaOnbL96rj6q7Piicz9za2dJp9PH6u3ET288swAAAAAAAAAAAAAAAAAAAAAAAAAAAAAAAAAAAAAAAAAAAAAAAAAAAAAAAAAAAAAAAAAABhXtDpb/LXbiJ99HJLV1aDV6Wrj6a7NUdcc0/NzS6EBobO6TTVxNVbmmqOeYifrhubV2i7TxqK4qjtW71i1fpxcoieyetpq9DqtLVVXpbkzHXT1/NzSDohp9Nulu7MW70cSvmzPNMtwAAAAAAAAAAAAAAAAAAAAAAAAAAAAAAAAAAAAAAAAAAAAAAAAAAAAAAAAAAAAAAAAAAAAAAAxdRqrWlo41yfFHXLH1uuo0tPFjFV2eaOz4amBp9Dc1FXf9ZM9sUTycnxuyPgBb/te51cngWM/J+MtxptHZ0tOLdHL11TzyyaYpppiIiIjmiIXAAAAAAAAAAAAAAAAAAAAAAAAAAAAAAAAAAAAAAAAAAAAAAAAAAAAAAAAAAAAAAAAAAAAAAAAAAAa7U6C1qYzMcWvqqjn+Xtayi/qttq4l+Jrt80T/wAZ+x0i1dt0XaeLXRFUT1SCFm9bv0U3KK8wyHN3dPf0FU3tPVNVHXE9UfG7fG22k1lvVUZp5KuumeoGcAAAAAAAAAAAAAAAAAAAAAAAAAAAAAAAAAAAAAAAAAAAAAAAAAAAAAAAAAAAAAAAAAA1Ou10WMWrXLdnk8Suv1saenvdHLdnm+D4VrQ6GaJ7/f5b08sRPuON9oGi0ExV37UeFcnlxPLie2fhboAAAAAAAAAAAAAAAAAAAAAAAAAAAAAAAAAAAAAAAAAAAAAAAAAAAAAAAAAAAAAAAAAAAAAAAAAAAAAAAHP6rRV2Kv0jTckxyzTHV5PwfA6ABrdFraNXTjkiuOePtpbJoNbpK7Vz9J0/JVE5riPTT/UztFrKNVbzzVxzx9wNiAAAAAAAAAAAAAAAAAAAAAAAAAAAAAAAAAAAAAAAAAAAAAAAAAAAAAAAAAAAAAA1+s1dOkt55ONPJTH3su7dos26rlc4piMy0Gnt17jqKtRcjwKZxEdU/B/yBe0Glrrrp1V/M1zy08b01f0t8AAAAAAAAAAAAAAAAAAAAAAAAAAAAAAAAAAAAAAAAAAAAAAAAAAAAAAAAAAAAAAAAAAAAAAAAAAAAAAAAAAADnNZYr0l2NVp+SPdR1R+FTo1uaYmmYmMxMcsAs6fUUai1TXT4pjsllOa8LbdVmM94ufn56XQ01RXTExOYmMxILgAAAAAAAAAAAAAAAAAAAAAAAAAAAAAAAAAAAAAAAAAAAAAAAAAAAAAAAAAANbr9V+j2PBnFdXJHwfCDXa25VrNTRprU+DE+FPVxqevzW+tWqLNum3RGKaYxDX7Zpv0e13yqPDufVT1Q2oAAAAAAAAAAAAAAAAAAAAAAAAAAAAAAAAAAAAAAAAAAAAAAAAAAAAAAAAAAAAAAAAAAAAAAAAAAAAAAAAAAAAAAMTU2KdTZqtzyZ5Ynsnqarbr1duurSXeSYnwPtj/AIugaHdNPMcXVUclVE08bHZnkq80G+GHptRGosxcz8Ex2VU87MAAAAAAAAAAAAAAAAAAAAAAAAAAAAAAAAAAAAAAAAAAAAAAAAAAAAAAAAAc3H/iGvzz2bf1/wD7NluV/vOmqiJxVc5I8XX9SO26fvOmpmYxVc5avsj5gbQAAAAAAAAAAAAAAAAAAAAAAAAAAAAAAAAAAAAAAAAAAAAAAAAAAAAAAAAAAAAAAAAAAAAAAAAAAAAAAAAAAAAAAABbqoiqmYmOSYxhcAc7pZq0Wur09U+BV7Tx9X3OiaXdbE1Wov0+2tzy496ztJfi/Yor6+afK6wZgAAAAAAAAAAAAAAAAAAAAAAAAAAAAAAAAAAAAAAAAAAAAAAAAAAAAAALF+5Fm1Xcn3NNUg0uo/tm5UWfcUck+tP3OhaPabUzFy/VyzVVjP8ANP1t4AAAAAAAAAAAAAAAAAAAAAAAAAAAAAAAAAAAAAAAAAAAAAAAAAAAAAAAAAAAAAAAAAAAAAAAAAAAAAAAAAAAAAAAAAAC1XTFymumrliYmJho9uqmxqb2lq7cx46fwdC53cYmxq7Ooj5fHT+AOiFuKoqiJjliYzC4AAAAAAAAAAAAAAAAAAAAAAAAAAAAAAAAAAAAAAAAAAAAAAAAAAAAA028XOJp4oj3c8vip8JuXP6z9fuOns88Rxcx/NP1A2mltd509m38FOfK9tLMAAAAAAAAAAAAAAAAAAAAAAAAAAAAAAAAAAAAAAAAAAAAAAAAAAAAAAAAAAAAAAAAAAAAAAAAAAAAAAAAAAAAAAAAAAABrNytRc0tzHPR4cebz/U2a3VTFVM0z1xMAwtvu980trPPT4E+b+DYtBtMzbr1FieeKs/R8GW/AAAAAAAAAAAAAAAAAAAAAAAAAAAAAAAAAAAAAAAAAAAAAAAAAAAAAc/o/wBdumouc/F43L8vFj6m8qni01T2RVLS7NGf0ivrmaY9NX2g3wAAAAAAAAAAAAAAAAAAAAAAAAAAAAAAAAAAAAAAAAAAAAAAAAAAAAAAAAAAAAAAAAAAAAAAAAAAAAAAAAAAAAAAAAAAAAAOfo/U7vMRyRc4380cb0ugaHcf1Wv0l3t4ufNn8W+AAAAAAAAAAAAAAAAAAAAAAAAAAAAAAAAAAAAAAAAAAAAAAAAAAAABi6qeLptR1eBVj5mBs8f2eqeua5/liKWTudXF0lz4UNrjGjtT2zVP80g2YAAAAAAAAAAAAAAAAAAAAAAAAAAAAAAAAAAAAAAAAAAAAAAAAAAAAAAAAAAAAAAAAAAAAAAAAAAAAAAAAAAAAAAAAAAAAANBvEY/R6o581fZU3lM8ammY64ajeI/UWp+P60S2Wlnjae1PwAyAAAAAAAAAAAAAAAAAAAAAAAAAAAAAAAAAAAAAAAAAAAAAAAAAAAAard+i+f/AEyu7b0Kx53rSs7v0Wny49Er229Csed60g2AAAAAAAAAAAAAAAAAAAAAAAAAAAAAAAAAAAAAAAAAAAAAAAAAAAAAAAAAAAAAAAAAAAAAAAAAAAAAAAAAAAAAAAAAAAAAANRvHRqP3tP2snQT/ZLU/BPpljbx0an95Holk7f0O14qvTIM4AAAAAAAAAAAAAAAAAAAAAAAAAAAAAAAAAAAAAAAAAAAAAAAAAAAGp3fotPlx6JXtt6FY871pWd36LT5ceiV7behWPO9aQbAAAAAAAAAAAAAAAAAAAAAAAAAAAAAAAAAAAAAAAAAAAAAAAAAAAAAAAAAAAAAAAAAAAAAAAAAAAAAAAAAAAAAAAAAAAAAAGo3jo1P7yPRLJ2/odrxVemWNvHRqf3keiWTt/Q7Xiq9MgzgAAAAAAAAAAAAAAAAAAAAAAAAAAAAAAAAAAAAAAAAAAAAAAAAAAAand+i0+XHole23oVjzvWlZ3fotPlx6JXtt6FY871pBsAAAAAAAAAAAAEcxl8p90fut7hd12p2fg5q50+m09dVu/rKP2t2unwaqbc+5ppnkzHLPVyPBbmu1927327rtRXezmblV6ua/nqnKdcK5Ez8/Gt5GRk040XKYqoomnp16nsmqNxrbT5PGLNmuaKLc3NdsxOo9ni/SgfEXAzur8IODWpsW9x1d7cNtzTTctXquPct0++orq5eNT72ZxPwc77L0Ot0246XTazS3ouWL9um5auRzVUVRxoqaDjnAc3gN2im/wBGu1c35O7Rvo1a7vRLMw82zmUzNG4qjtplsgGkZgAAAAAAAAAAAANRrt023a7XfdfrrGmt8/Gu1xR63O853Huv8FdFmnS/pGuuf+1RxKM+Vc4v1RLLxeH5+bMxjYd27HZ0qafNj1zPUxb+bi40fjr9FHomev3PXR8067u17xfmY0OzaazT1TdrquT/AC8Vyuq7pfDXV8nsv3mOy1aoo+vFU/WkFjk3jF3ruRZs+iuvc/8ApEtPd5n4bb30JuXPDo063/Np9gD4ju8J+Empn9fv+4V/BOoriPmpnDX1azW3Zzc1t6v4arldXrSz6OR78xHT4hbp9VG/rmGvr5wsx8jCqq9dcR9kvurjR2wrl8JRdu/9y59KfvXqL+opnNOou0z8Fcx6svc8j1RHVxKP/F//AEs/10pjt4dP/lj7n3QPimxve92JzZ3bV0dnFvV0/a3mm4c8LtJOaN81FXwXMXfWipi3OTMun/DzLVX60TT9W12jnTD3HlMS7T+rVE/Xp9dD5v0XdY4R2aojUWNLqae2aJt1fPTOPqdhoO61td7FGs27UaeffW5pu0f0z9TU5HLfGLH/AE0XI8bdUT9Ha2Vjmjg1/UTkzbme65TMfT2PYBze28Jtj3aKI0e5WrlU0+0mriV/Qq4tX1OkaSu3ctVTTct1UVR3VRMT9Le2r1q/RFdq7RXTPzqaoqj6AB5XAAAAAAAAAAAAAAAAAAAWprpppzMxER1zyOW13C/YdDx6atd325Ee0sRx5+76zcR2zpYv5OPjU9K9eotx+lMRv1bdcPJtZ3RrkzVGj22Ijqru15/lp+9oL/DThDf5tTTbieq3REetxpWar9umJ62nu8ycNtzMU1V3J/Qp6vfOnvA+cru9bze5K9z1U56uPNMfNTLEnUair22ou1eVXM+tLHrzqad+ZM+1h1c02t+ZhVz66oj730vlV8z8e5/3KvpVL9u/qKfa6m7Hirmn1ZWKuKU0/wCTv95WOZ4ntwp/8n+z6RHz5a3fdrP7PdNTHwceZj5qpbSxwr3+zj+1xdjsroir1Ypl5/pjHj5VuuPVqWTb5jxqtdOxdp9Xnfc9vHl2l4d6imMarQUVx11W6pp+qrjel0mj4V7PqfAqv1WKp9zdji/zU8n1sm3xLCuTERfppnwq8362xs8Uwb8xFN+Ime6rzZ+l1oxrV2i9Rx6KqaqZ5picxLJZ0TvslsInfZIAAAAAAAAAAAAAAADUbx0an95Holk7f0O14qvTLG3jo1P7yPRLJ2/odrxVemQZwAAAAAAAAAAAAAAAAAAAAAAAAAAAAAAAAAAAAAAAAAAAAAAAAAAANTu/RafLj0Svbb0Kx53rSs7v0Wny49Er229Csed60g2AAAAAAAAAADmOFWquaDgzwg1dr9rY0GouW5jqroomafrdO1uu0dnX6TV6S9GbOos12rkdtNcTTL3aqt0XrNdynpUU10zVT40xPXDxciqq3XTTOpmmYifS/OCM47fhVw6HhHwe1/BjeNXtetomK7FdXe7mPBu0Ve1rp7Yqj5p5Ggw+lrN+3kWrd21ciu3XTFVNUdkxPXEufXKKrdc0VR1xOphHD7K7iesu6rgNprdyrMabVX7NEz7zMXP5eNMPj/T6bUazUWNPp7VV3UXa6aLduiMzVXV4MRTFL7s4B8HZ4K8GNu225idRTHfNRMcsTduzxquL8FOcfIgn/wCQcrHjheNjVVRN6u/FdNPfEUxMTV6uvTdcDt1zkXK430YomJ9c9kO6AchSoAAAAAAAAHNb7wi2ng5ov0rc9ZFmjliij21dyqn3NEc9VT5t4V91fe98m7ptu423aOeNHg1fr7lPxq6facbsj55bjhPAuIcYrjyNvoWd9d6vqp6u6PGfU12dxTFwI/GVdKvXVRT2+3we78IeH/Bvg1TNvVarv2qp/wD4unxXcz8blxT8svD9+7r3CTcprt7bFG3WJ5ImjFd6Y+NXVGI+SPleSREzOZ5czmZnnmU3R+H8o8KwejXdt/hN6Pn3I832U9iGZvH83I6UUVeSo8KJ6/bLK1Go1WsvVX9VqLt+5PPcu1zXX9KqcoLbpdp4L8IN74s7ftGovUT/AIvF4lv6dXFj62/uXbGLaiq5XRbt099UxTEeho4pu5Fc00U1V1z3RE1TP1tCnEPZNu7jW834pr3DcNNpox7W3E3q/wCmPrl22j7jvBzT4q1Oq1epnsmqLdHzUxn60fyOa+CWNxGTN2d61bpmr6eqGxtcvcWvxvyEUR411RH0dr5qiE4w+ubHc+4H6anwdhs1fvKq7vrzU3Nrgxwcsx+r2DQR4rFH3NVXzxhR8jCvz+tqn6tsyOUMyr5WZZj1RM/Xp8YRjtXYx2vtONk2eIxG06P/AOxR9y3Vwf2GuPC2PRT47FH3LH9eMfvwK/54+56q5LyJ3rOo9tE/e+NYhOIfWl7gXwVvU5q2DSxPxKeJ6vFaXVdy7grfiZtWdRp5/wDbuzP+pxl61zlw6ufxli/RPqpmPrYV7kzicbm3fsV+jdUT9T5oiF2Ie063uRzGatFvGfe271v7aZ+xxe48BOE22Rmrbar1uOe5p575H0aeX6m0scd4XlTFNvLoirwr3RPs6WttFl8A4xiRVNzCuTTHzqIiuPX5u9OPjknMcnZLsdp4acINpxFGum/aj/CvZuU+bNU5j5JcnxZpqqiYmmYnljGOX4wysixj5Vvo3rNFynwqjbVWMvKwrnTx79dqvxpmaffp7/svdI2rXVU2tfTOiuzycaZzZn5er5Y+V6RbuW7tui5brpqpqjMTTOYnxPjl0eycJ932C5TOl1EzZzmuxXxqqK+3weqr4YRDiPK9qd14NyaKu3ydc7ifVPd7U14Vzteomm3xG306ezytEaqj1x2S+rRwnB3hpte/U0WeP+j6vi8tiuefyJ6/Fzu7Q29YvY1ybd63NFcd0uhYuXjZtmm9j3qblueyY+3wkAWmSAAAAAAAAAAA4zhBwr0GyUd6jN/VTT4Fmnq7Kq56qRYycmxiWqrt65FFEd8/Z4y6fU37OltVXb96i3bp9tXVMU0x45qedbt3QtPamq1tuni/VzTerzTbjyY55+p5xuu97hvd7j6u/M08bNFqOS3R5MfbPK1ilVWkG4hzRkXpqt4VPkqP9SeuufZ3Nnr953XdKqp1etrrpznvcTijzYp5GviCIZ2i2/XbhXxNHpbt6euaaeNHnTzR8ssWuqZ6o60djy+Tciapru3Ku/rqqliRC47rRdz/AHS7GdVqLenjHtaf1k/0x9bqdPwB2izETdru3564qqimP5YWZs3q+yNetusfgHErsRM2Itx+nVFP0drx+ITjHa94tcF9jsfs9ss5+NE1+tLYU7bt9EeDobFPit0/ctzgV1dt2mPZLaW+V8jq6eVbj1RM/Xp885p7YTzT2voj9C0v/prX0I+5Zq2zb6o8LQ6erx2qfuWa+FV1dl+P5ZXv6tVx2ZdM+umY+14FEJvbrnB3ZbvttutZ7aYmj1WovcC9puxm1Vfsz8WrjU/NUwrvB8v5tVFXtmPreKuAZdHyardftmPreVxCcQ7PUcCtdRHG02ot3eymqJon+qHNavbddop/tOlro+NMZo82aeRpMrFy8eJm7YrpiO/W498dTDuYOTj/AOJYqiI79bj3x1KaTWarRV8fT6iu3PXxZxE+VHNLstv4Y3Ixb19njRzd9txifOp+5w8QmxLPEsvDq3Zv1RH5s9dPuXsbJyLE/i7kxH5vbT7ntuj1ul1tvvmnv0109eJ5vG2LwrTajUaW733T3ardfbE9XZVHNMeN6DtHCezq5ps6vFu9PNXHJRV90pTw7mTGyqqbWRHkrs9UTPyKp9E93tSPF4lbvapuRFFfr6p+52gCStoAAAAAAAAAAAA1G8dGp/eR6JZO39DteKr0yxt46NT+8j0Sydv6Ha8VXpkGcAAAAAAAAAAAAAAAAAAAAAAAAAAAAAAAAAAAAAAAAAAAAAAAAAAADU7v0Wny49Er229Csed60rO79Fp8uPRK9tvQrHnetINgAAAAAAAAAAADkeEXBPZOFGmp0+6aGm9xeW3diZouW6u2iunljxczyivuBbLXciq3v2uotZ9pVRRXVjysU+h9CjZ4XGuL8Oo8ni59y3b/ADO2mPVE70xr2Hi5ExVdsU1T46+551wW7nfBrgnMXtFpq7mq4uJ1Wonj3Ijrpp5KYojyYh6KDCyMnJy7s3cm/XduT21VzuV63bt2qYpt0RTTHdAAsvYAAAAAA8o4cd0jQcFrVek01NGq3SaeS1nwLXG5qrk0/wAtMcs/A0fdH7pFOy03to2e7TXuPNfvxy06b4vw1+jxvmeqq5drrrrrqrrqrqqrqqmZmqqqeNNVU1cs1VJvy7yrVmxbzM+no4+ulRa7Jr8JnwpRri3G6cfp2Mad3I6qq+6n1elsN13bct81tzW7jqq9Rfq655qafe0xTyRTT2Q18QRDoNg4N7twj1tOm27TTcnwe+XavBt2qffVz1eLnnqdKqqxsHH3PQs2LVHopppiPqQz8dk3dR0q7lc+mZmZaJ6Zwc7mfCDfYtXr9H6BpJ4sxdu0zx6o7abfP8s4h7bwT7m+zcHKbWovURrNfHhd+rp8C3P/ALdHNHj53p7n3FudJqmuzw2iNR1eWrj6aafv9yUcP5ajquZte99cW6Z7PXP3PNth7m3BnZOJXGk/TNRTy9+1WK8eTR7WPmz8L0OmmmmmIiIiIjkiOqF4QbIysrLuTcyMiu7X41zv3eHsSqxj2MajoWbVNFPhTGvf4gCwvAAAAAAAAOd3Tg9s+8UVRrdFauTxcRciOLcjxV08ryneu5jqbFNV3aNR36MZixdmmmvzZ8GJ+XD3gbDD4rn4Mx5HImaI/wAuvzqZ9k/Y0/EOBcM4lE+XxqfKf6lHm1e+O32vjjVaXU6S9XZ1Fqqzcjkqt10zTVHyVLD6s3XYtq3uzFnW6WLmKfAr5q6Z+LPPDwrhJwI3LYKqtRZzqdDz99pjw7flxTzeOOTxJlw/mDHztW7mrV2eyJnzav1Z+xzjjHKubw2Kr1ufL48dc1RHnU/rR9riozFWYmYmJzExOJzTzVUzS9b4K90CqibWj3uvjU+DTb1c88fBX2x8b5+15LAys3Ex823NF6jevk1d9M+hp+G8Ty+F34vY1zXZ0qJ+TXHhMPsO3XReppqpmKqZjMTE5iWQ+c+CPDO/stVGj1tdVzQ1VY5fCqs+T2x76Pme/wBi/Z1Nqi9arprt3KaaqKonMVRVzSgGfg3sG70K+umfk1x2T/v6HX+D8ZxuL483LXm3KdeUtz20z4+mPSzQGE3AAAAAAADzXhnwoq2217H6O5/a7lPGrrj/AAqPg+NV7ns5+xWI2xc3MsYGPXfvVapp7I75meyI9MrfCzhjTt83dBt1UVarmuXeem18Hw1eh5BVVVXXNddc1VVTVNdVUzM5q56qpqQ5ZnM8vXMzzzUnEK1VRTGocs4hxLJ4nfm5dnVMfIojspj7/Sk2O37Xr90u970mnmuY9vV1Ux76qauSHR8GuCN/eOLqtTxrWj54x4Nd3yeyn4fmezaPQ6XQWKLGls02rdPuaYx86zETX2z1Nvwnl67mxTeyN2rPbEfOq9W+yPS4naOAeg0cU3dwr/Sr0cve4zFuPk56vld5Zs2bFFNuzbpoojmppjixHyMse6YineoTvFwcTCo6OPZpo8ZiOufXIAqywAAAAABammLlOKoiY64510U1scfuHBXb9VFVdin9GuT10R4Hy0/c4fX7Nr9un9fbzb42Iu08tE+V2fK9oY9yii5RNFyiKqZjliYz87RcQ4BiZlNVVuPI3fzqY6p9cNdkcNx725pjydXjT2T64eHRC47TeOC+Iq1G30TPXNn/AI/c4vExOJjExyTDnPEsLK4ddm3kUa3vo1R101R4xLRXcW5j19Cun1T3T6nV7Lwgr0s0afV1zVY5ouTyzb8r4voeiU101001RVExMck9UvFYh1Ow7zOlqo0uoqzYmcUVT/hz/wAfQ3nL/M02K6MPNubtTqm3dqn5M9kRVM90+Pc2uDmTTq3dq3Hzap7vX6Ho4DpDcgAAAAAAAAANRvHRqf3keiWTt/Q7Xiq9MsbeOjU/vI9Esnb+h2vFV6ZBnAAAAAAAAAAAAAAAAAAAAAAAAAAAAAAAAAAAAAAAAAAAAAAAAAAAA1O79Fp8uPRK9tvQrHnetKzu/RafLj0Svbb0Kx53rSDYAAAAAAAAAAAAAAAAAAAAAAPF+6Xw/wD+ntPO1bbcj2UvUZrrjl/RrVXuvLq9zHVz9jqOHPC3T8Etmr1PJXrL3Gt6Sz76v31Xxaeer5ut8c6jUajXam9qdTdqu371dVVy5VPLM1Vcaaqky5U5f/pC5TnZVv8As9urVFE/5lUfZH0o7xziv4LT+D2a/wAbVHnVR82Pvlj5rqqmqquZmZqmZqnMzNXhTVVNXPVUnED0XgFwG1HCvW99vxVa22zXT367Hgzcqp8LvVuffe+nqj4XTMzMx+HY1y/frii1bp/+oiO+ZQuzZvZd6m1ajpV1Tr/efQjwJ4Ba/hXf77XxtPt1uvF6/jwqpp9xRxuer3080fU+q9o2fbNi0NrQ7fp4s2aOqOeqrrqqnrq99LN0ei02g01jS6WzTasWqKabdumPBppp6obBxvjPHMrjF7zpm3Yon8Xaiez01eM/U6Fwzhdjh9vqiKr0x59yY+iPCABpW0AAAAAAAAAAAAAAFmqiK6aomImJjExPLleAeJ8LuANNPH3DZrPJ4Vd3SU/Smq3/AMfm7HkGH2W8e4ccDadTTd3bbbWLscaq/Ypj9p210x2++jr8aTcL41VE0Y+VXuJ6qLk93oq+9z7mPlamabmbw+3qY3NyzTHV6aqY+uHi70LgTwtq2a/RodbXM6C5XyVT/g11T7an4tXuo6uftefQN3lWreTartXI3TPf3xPjCD4GbkcPybeRYr1VTPXHdVHfE+iX2HFUVU5iYx1SuvGO59wom5Tb2XWXPCiP7LXM88U89qZ+L7n4OR7OguTj1412q3X64nxjxdp4ZxGxxTEoybM9vVVTvrpqjtiQBYbAAAABzXCLebex7dd1NdNM1zxqLVE+6rq9r8nvnzvevXtVeu379c13bk1V11fGq9s6zhru8bnvFy1bqzp9LxrVGOuvPhz88Y+RyUQ9TPRp9LmHMHEas/Nqt0T+IszNNEd01dk1fZCsQ73gjwX9k66ddraP7JTV4Fuf8Waf6afraDg/s9e9bhRZ5Ys0eHfqj3nG5o+GrmpfQdqzb01m3ZtURTbt0xRRTHVTTHJC3HnTuexm8u8Hpyqvwq/RuzRPm0z2V1en0Qv00026YppiIiI5IXQenQgAAAAAAAAAAAAABx2+7HTqYq1Wmo/Xc9dEe78n43pdiMLPwMfiWPXYv07pnsnvpnxj0rd21ReomiuNx9TxFOIdVwj2zvVz9Ms0Yt3KsXIj39Xuvz1uYhxPimFf4bmXcW98qnrirXVVTPZMetH7lmbNyaKu7snxh3HB3c+/2v0S9Vm7bjwZn3VH3uweO6e/c0uotX6OemrMfD2x50PV7F+i/Yt36Pa3KYmHR+UOMVZ2HVi3qt3seIiJntqtz2TPpjslt8K95S30ap86n6YZYCZM0AAAAAAABqN46NT+8j0Sydv6Ha8VXpljbx0an95Holk7f0O14qvTIM4AAAAAAAAAAAAAAAAAAAAAAAAAAAAAAAAAAAAAAAAAAAAAAAAAAAGp3fotPlx6JXtt6FY871pWd36LT5ceiV7behWPO9aQbAAAAAAAAAAAAAAAAAAAABr9Xq9PodNqNTqLkWrNmiq5crq5qaaPCmZbB8892bhVNFuzwc0tzwrkU39ZMdVHtqKPOmM1fBHws/hfDrvFM6xi29x0p3XV+bTHXM/cxM3Kowsa5fq+bHmx4zPZDx7hfwkv8Kt71GurzTYj9XprU/4drjcnJ76rnq+FzYv2bNy/dtWrVE13LldNuimmMzVXVPFppp+NVLudm1Zwse3ZtxFFm1RFNMdkREQ5jfv3Mi7XXXM1V11bn1y6Lgpwa1fCfdrWhsZot/tNRexnvVrPLPlVc1Mdr7J2rbNHs2h0+i0dmLdizRxaaftq7avfS5rgNwUs8Ftlt6aqmKtXe4tzV18+bnvYn3tPNT8/W75yDmTjdXF8uaLdc/gtmZi3EfOnvrn193oT/gvDYwceK7lP4+5G658I7Yp+8ARxugAAAAAAAAAAAAAAAAAAAHgnD3gtGiu17rorWNPcq/tFFMcluur3dPZTV7rsnxvNH1xqdNa1Vi7YvURXauUTTXTPXTVGMPmbhHsd3YdzuaWczZr8LT3J66KquTjfDTzVJLwvPm7R5C5V51MebM98ffDl/NfBIw734dj06s3Z8+mOyiv0eiWjoruWblFdFc0V0zTVTVTOOLNNXGiqnyZfSfBXf7e/bVReqmmNRb4tGopjqr99T8WrnpfNjqOCW+Tse8WrlyvGmvcW1qI6uLVPJX5s8viyucTsRkWZqiN10ddM/Y1/LfFZ4ZnU0116sXtU3PCJ31VezvfTYhExMZicxKaLOwAADm+EG4exez67WUziuKOLb8uvwafrnLpHlfdJ1k06fbdFR/iV1Xa4+CiOLHpViWu4tkzicOyr1M6qiiYp/Wq6o+mXksRPPM5zz560xttk0Xshuuh00xmm5dpmvyKfCn6oWq6pmdQ5TZtV3blq3THnV1RTEeudPYOB+0+xm02qrlP6/U8W9c86PBp82HaqRGIVXI6oiPB2DFx7eJj2bFv5NFMRHp9PtABfAAAAAAAAAAAAAAAAYl+xb1Fm5ZrjNFcTEx2vKNRYr02ou2K+e3NUZ+DqnzoexOC4UaamjUWNRHuqaqK/HT4UIRztw6m9gUZlNPn2J1Vrvoq6volg51qKrcVxHXT9UuWdrwX1U12b2mq/w6s0eKrn+txbcbHe7zuen7LnGtz50cnohBuXMycLjGHX0tU3KvJV+qvq6/RHaw8aroXqJ8er3vTQHcG6AAAAAAAAajeOjU/vI9Esnb+h2vFV6ZY28dGp/eR6JZO39DteKr0yDOAAAAAAAAAAAAAAAAAAAAAAAAAAAAAAAAAAAAAAAAAAAAAAAAAAABqd36LT5ceiV7behWPO9aVnd+i0+XHole23oVjzvWkGwAAAAAAAAAAAAGg3Lfdm2X9Hjcty0+k77xu99+rijj8XGeL288Nd/wBd8Dv/APSaD/71K/bxMu9TFdrFu10z2VU0TMT7dLNWRZoqmmq9RTVHbE1REuwHKaLhXwa3HU2tLot80d/U3M8S3RdiaquTjTxfkjLq1u5au2qujdtV26tROqo1Op9b3RcouRuiumqPGJifqAHh7AAabdNz0207drdw1NWLOmt1Xa/hinqj4ep8O7puWq3ncdduGqnN3UXarlfZHG5qafi0xiKXv3dp33vGi0OxWasVamr9I1ER/wBu3OKKZ8qvl+R86Opck8MixhXM6un8ZkTMUeiimdfTKC8y53lMmnGpnzbUbq9NU/dA9w7kHBf9L1d3ftTa/V6ae96bPurnuq/NicU+P4Hj2g0V/cNZpdFp6ONev3abVuPjVTxY43xffPtvY9p0+xbVott0/wCy09ri8b30+6qq+GqZmXvnLi04mDTiW6tXcncTMdsW47ff2LXLuB+E5c37kbt2dTEeNU9nu7W+AcqT8AAAAAAAAAAAAAAAAAAAAAAcNw02Kne9pri1TFWr03Gu2O2Zpjlo86Prw7ke7ddVq5RXTOqqZ3DHysa1mY97HvU7ouUzTP3+uHx1C5h2fDnZfYre7ty1TjT6vjXbeOaK6vb0/Py/K42ISmm/Fy3RXHZVES4jlYlzDyr2Pc+VbqmmfTrsn29r33gDvMbls1Onu15v6Oqm1VM89VHuKvs+R6G+a+Bm5ztW/aWqurFm/wDqbniqnkqq8mcPpRHcyiKL9XRjqq649rqnLOfOdwy3Fc7u2fxdXpiPkz7YAGKkQ8L4f3uPv0W/+1prcR46qpqn0vdHgPDbM8JddE9VNqI+hDzXV0aUa5qqmOGUUx8+9TH0TP2OUiHedz2xFe9Xr0xyWtNVjx1VRT97hHp3c4pjv+61fEtR9csaid3aPWinArUV8UwomPnzP8tMy9aAZbqAAAAAAAAAAAAAAAAAAA53hHa75tldXXbrpqj5+L9romDrNPRq9NdsVTMRcpxMxzwwOKY85fD8zHiN1XbNdNP60x1fS8XKZrt10xHbDyhfsVTav2rke5rpn6NUVOy/6W0v/qb3zU/cf9L6X/1N35qfucrp5R4/RXTXGPb3TO4/GU9sNbGLfiYnox73WCERiIj4E3YobUAVAAAAAAGo3jo1P7yPRLJ2/odrxVemWNvHRqf3keiWTt/Q7Xiq9MgzgAAAAAAAAAAAAAAAAAAAAAAAAAAAAAAAAAAAAAAAAAAAAAAAAAAAand+i0+XHole23oVjzvWlZ3fotPlx6JXtt6FY871pBsAAAAAAAAAAAAfOXd6jM8F/wDN/wC2+ecPoru88/Bf/N/7b56w7Ryn/wAv8P8A4nxy5zx6d8Wy/wBz4Iegdyn+/Wyfx/8ASqfZz4y7lUf+etk/j/6VT7NQvnr8r2P2Wn46kk5Z/wCBvf8Afn4YAELSIBxHDjd52XgpvGronF3vM2rU9ld2e90z5uc/Iu2LNeTfs2KI3Vcrpop9dU6hbu3KbNq5cq+TRTNU+yNvlfhnvP8A1Bwn3XXU15td+qtWf3VrwaeL5XP8rmYgiMRhcxiHerFm3jWLNi3HmWqKaKY9FMahyTIv1Xrly5XPnVVTM+2dvZO45sdOr3fU7vco8DR0d7tTPN3y7mmeL5NGfnfTrg+59s/sLwV2yzVTi9fo/Sb3bx7vhYnyYxHyO8cZ4/n/ANI8VyrsT5lFXk7f6tP3z1+10vg2L+CcPsUTHnVR06/XV93YANM2gAAAAAAAAAAAAAAAAAAAAAAADguHe1eyWw37tFOb2kq79RjnmKfb0/Nn5nz/ABD62rpprpqpqiJiY5c9cPmHeNuna9112imOS1dq4meuirwoq+aYbDEvzTbrtzPVHXH2ue844ERfxs2mPlx5Ov109cT7vqaymOzk7JfSnB3cvZXZtDq6pzXNHFueXR4NX1vnCIes9zfXRFG4aCqrmqpv0ed4NX2LeRXFUx19jG5VyfwfPm1M6pv0TT+9HXH3PWgGG6WPBOG9vicJNbPv6LUx9CKfse9vF+6Fp5t7vpr+PBu6bGfjU1T98LV75HtR3me30+G0zr5F2mqfbE0/a4KIekdzq7TGt3K176zbrjzapp+1526rgbqv0XftNEzyXoqtT51PG+yGvouRF63vxRLhFcWeI4dc9UeU1P70a+17uA2rp4AAAAAAAAAAAAAAAAAAAAAAAAAAAAAAADUbx0an95Holk7f0O14qvTLG3jo1P7yPRLJ2/odrxVemQZwAAAAAAAAAAAAAAAAAAAAAAAAAAAAAAAAAAAAAAAAAAAAAAAAAAANTu/RafLj0Svbb0Kx53rSs7v0Wny49Er229Csed60g2AAAAAAAAAAAAPnfu8c/Bf/ADf+2+ecPobu68/Bn/M/7b5+w7Jyp+QMD+J8cubcfn+9sv8Ac+CHfdy2P/Pexfx/9Kp9lvjfuW/352T+P/pVPshDeePytY/ZafiqSXlf8n3v2ir4aQBDUkHgXds3KaNHs22UVftbteouR8Fqni058qap+Z76+Su6xrp1fDDUWYnNOksWrMeOqO+T9dSS8p434RxqxVMbps0VXJ9nVHumWi5iv+R4ZciJ1NyqKI+ufqeZxDfcHNsq3jfdp2/ni/qbcXPIpnjV1fNEtI9g7j23fpPCTU6yqM0aTTVTHwV3Z4sfVl0zi+VOHw3MvxOqqLVXRn9KeqPpQDh9n8Lz8Wz2xXcjfqjrn6H01FMUxERGIxiIhcBw51wAAAAAAAAAAAAAAAAAAAAAAAAAAeKd0fb6bW4aLXU8kXrdVuvy7XhR9U/U9rcFw90f6RsV27EeHp71FyPO8GfS9U1dGd7abj+NGTwrKjXXRHlI/c65+h4dEOp4H6r9E4QaCqZ8G7VVZnxVRxafrw5uIZFq5XZuWrtPJVbrprifjU1can0Ma9f1O99jnOJXOPfs3Yjrorpq90vqEYmnv0X7Vq7TzV0U1R4mWvuvRMVREx2TG/ePPe6Boov7VY1NMZq017M+RX4M/Xh6EwdXpbWs0uo092M0XaKqJ8VXI8XKenRVT4wxc7GjLxL9ifn0zET4T2x9L5viE7VVdq5RXROKqa6aqJ7Jpq40VMjVaO9odVqNNejFdquqifN5qqfi1RyrMQj9yuYme6YcyiiqirozExVTOp8YmPtfQO07jTumg02qonHfI8KPe10+DNPztw8T4Lb5TtWpqsX68aW9VTmZ/wAOv2vG8XVU9pieNiYnk6m6xcinItRPzo1FUOj8LzozsamqZ/GUxFNyPT4+qUwGS2IAAAAAAAAAAAAAAAAAAAAAAAAAAAAADUbx0an95Holk7f0O14qvTLG3jo1P7yPRLJ2/odrxVemQZwAAAAAAAAAAAAAAAAAAAAAAAAAAAAAAAAAAAAAAAAAAAAAAAAAAANTu/RafLj0Svbb0Kx53rSs7v0Wny49Er229Csed60g2AAAAAAAAAAAAPnnu7c/Bj/N/wC2+fcPoPu5+24M/wCb/wBt8/4di5VnXAcH+J8cuZcwT/e+X+58EO/7l39+tk/j/wClU+xnx53L/wC/Oy/x/wDSqfYaG87flWx+y0/FUk/Kv5PvftFXw0gCHpMPh3hHrPZDhBver54u6y7NM/F4800/VEPs7cr8aPb9dqv+zYu3PoU8b7Hw1yz4U8szyz46k+5FtRNfEb/fEUUR7dzP1QhfN97VGFa8Zqqn2a0rS+ju4zoot7PumrmOW/q4tx5NqiPtql86PrbubaanS8Dtnp67tNy7PnVzVH1YbXnO/wCT4TFv/WvUU+yImr7Gp5Wt+U4pNf8Ap2qqvfqn7XfgOWOlAAAAAAAAAAAAAAAAAAAAAAAAAADUbtpv0vbNw02Mzd09yiI+GqmW3B4uURcoronsqpmJ9r5apjkpyuxDN11j9H1+usYx3u/cojyaa5ppY8Q0l+7MTVuXKIszRXVTMddMzHue6cF78ajYtsqn21NviT5kzT9jp3BcBrvH2m9b437PU1R9LFX3u9bXHr8pYtVeNMOm8Or8pg4tXf5OmJ9nUALzNeb8M9inUW/ZLTUZu24xeoj3dFPNV46fR4nmMQ+lJiJjExmHkPCbg1VoK69bpKP7LVy10x/hT/wq+ppuJY1WpvURv86PtRPjnC56c5dmncT/AItMd36X3uKdzwc4TzoYo0murmrT81Fznm38Wrtp9DiohNoaMq5jXIuW6tTH0+tpMS/exLtFy1Op747pjwl9C2rlF63TcoriqmYzExOYmGS8N2jfdbtFeLU8exxuW1VPg+b2PTtr3/bty4tNu53u9zd6rnl83qn5Ejw+K42VqmZ6Fzs6NXVv1T3prh8TsZeon8Xcn5s9/ql0gDaNkAAAAAAAAAAAAAAAAAAAAAAAAAAAA1G8dGp/eR6JZO39DteKr0yxt46NT+8j0Sydv6Ha8VXpkGcAAAAAAAAAAAAAAAAAAAAAAAAAAAAAAAAAAAAAAAAAAAAAAAAAAADU7v0Wny49Er229Csed60rO79Fp8uPRK9tvQrHnetINgAAAAAAAAAAAD587uXPwZ/zf+28Bw9/7uPPwb/zf+28Dw6/yt1cCwf4nxy5fzFP98Zn7nwQ73uX/wB+Nk/j/wClU+wXyB3Mf78bJ/H/ANKp9fofzp+VbH7LT8VSU8p/k69+0VfDSAIgk7j+G92dPwQ4Q3KZ5Z0dyiP4ng/a+OYh9Zd02vvXA3d8e7mzR9K7S+Uoh0vkmjo8Nya9fKyJj3Ux97nfONz+3Y9O+yxv31T9yOOSX2nwbsRpdg2SxHJxNFYifHxIy+M6aKpqpiOeZpiPO8F9x6eiLNmzR72imIYnPFz8Vw+3E9tVyfdEfevcmUbvZ9z82m3HvmfuZIDn6fAAAAAAAAAAAAAAAAAAAAAAAAAAAAPAuE1uKN/3OI5qrtNX0oir7WmiHWcMrfE3/UVf9y3an+n7HMRCKZtyKb16N61VLnGXa6Oblxrqi7X9b0fgBV4O52uqKrNcedE0z6HpTyvgLONZrqO2zTP0KuL9r1Ru+F1zXh25numqPdKZ8GmZ4fZ9E1R/7SANg2gs1U010zTVETExyxzxMLwEvL994JTRNep2yjNE+308c8eR2x8X5nDcWYmqJjE8bExPgzFT6Jczu/BzQbpxrlVPer8c12iOWfK7Wgz+D+U6VeNMRVPXNE9k+rwR7O4JRXNVzG1TV2zb7p9Xg8diE/ez2czcbjsO47ZNVVyzx7Mc12jNUed1w1cQh2TTds1zRdoqoqjumNNDVZuWaujXRNNXhMOi2/hNueiiKaq/0i1725yzj4s8/wA+XY6HhTtmp4sXZmxX2XOb6VPI8vTXsfjufh6iLsXKI+bXG/dPa2WNxDLsajp9Onwq69erve6WrlF2jjUVxVTPNMTmF94bp9TqdLVxtPfrtz18WqaY86OaXS6XhXuNnixfpovR1zMcSfpU8n1N7jc24NUaybVdqe+qPPp9fjr2Nxa4raqjVyiaJ9HXH3vTRyOn4WbdcxF6i5anrmY48fy8v1N7Y3DQ6mP1Gqt1/BFUZb3G4rw/L15HLtVTPzelqr3TqWwov2bmuhdpq9rYgNgugAAAAAAAAAAAAAAAAAAAAANRvHRqf3keiWTt/Q7Xiq9MsbeOjU/vI9Esnb+h2vFV6ZBnAAAAAAAAAAAAAAAAAAAAAAAAAAAAAAAAAAAAAAAAAAAAAAAAAAAA1O79Fp8uPRK9tvQrHnetKzu/RafLj0Svbb0Kx53rSDYAAAAAAAAAAAA+f+7fz8Gv83/tvBMPfe7dz8Gv83/tvBcOucsfkLB/ifHLlvMc64zmdX5nwQ7ruYx/532X+N/pVPr58idzP++uy/xv9Kp9dohzl+VLH7NT8dSU8pTvht79oq+GkARJKXmHdXrxwQvR7/U2I/m432PmCIfTnda/upH/ANZa9EvmZ1Hk6IjhFXpv1/VDmPN9U/0pTHhZp+uWVoqOPrdJR769bj6VcUvuF8T7XH/ie3R/8za9eH2w03Os7ucPjwpufY2vJPXa4jP6Vv6IkAQdOQAAAAAAAAAAAAAAAAAAAAAAAAAAAHkHDenG8Wp7dNR600uRiHa8OI/8V08//Lf1S4+IQfilzo5eRG/noNn0f2/K/X+x2PAnk3S/Hbpqv5a4ervKeBkY3e7+4uetD1ZveAVzXgeq5V9PWknBv+Cpj9OoAbttQAAAFJjMOV13BjbNZPGot94u8/Gojix50OrFjIxrGVR0L1qmun0x2epbu2bd6no3KIqj0/Y8k1fBfc9LMzbojUUR10c/nRVy/Nlopproq4tdE01dcVRMfVU94a7VaLS6ynF+xRcx76M4RfN5UtXJmcXImifza/Oj3x1w1d3hFueu1cmn0VdcPG1x6BqOCWguznT3rlmez28fzcv1tHqOC+5Wf2fEvR8WcVfzfeiWZwDi+PufwabtP51qen9HawquH5Frtt9KPGnrc5EJ/CyLuj1On/b6e5R8NVMxHz8yzCMXouW6ppuUVU1eFUalbijU6mmY9bYWNz1+l5LWruYjqmeNHzVNzY4UayjixfsUXe3i5oq+5zIy8XjPFMPXkM67TEdlM1dKmP3atwyqL163ro3Jj0f/AG9AscJdvuRxbnHtT8aMx89Lc2dbpNRH6nUUV/BEvKFevk5MdaQ43O/EbUayMe1ejxjdFX2x9DLozbkfKiKteyXso8ssbpr9PxYo1Vcx2VTx/WbzT8J7kcmo0sVR110Txfqq+9J8TnXhN/UXqbmPM99UdKmfVNO/piGVRmWqtb3T9P1O3Gm0277fqcRRfimrsr5JbhJ8bLxsy35THv0XKPGiqKtevXYyYqpqjdNUSqAyVQAAAAAAAAAAAAAGo3jo1P7yPRLJ2/odrxVemWNvHRqf3keiWTt/Q7Xiq9MgzgAAAAAAAAAAAAAAAAAAAAAAAAAAAAAAAAAAAAAAAAAAAAAAAAAAAand+i0+XHole23oVjzvWlZ3fotPlx6JXtt6Fp/O9Mg2ApkyCopkyCopkyCopkyCopkyCopkyDwPu28s8Gv8z/tvB8Peu7Zz8HP8z/tvCcOs8s/kTC/ifHLlPMs64zmfufBDue5p/fXZv43+lU+uHyT3NI/86bN/G/0qn1rlEucZ3xOx+zU/HUlnKH5MvftFXw0qimTKJpU8x7rFPG4KVz73VWp9NP2vmaIfUXdPo43BDWT7y/Yn+eKftfMUQ6ZyfVE8Jrjwv1/VDl3OXm8UonxsUT9Ms/beTcdDV2am1P0a4faj4m088S7bq95XTP0Zip9rROYzHNLV86R+MwKu6Yu/RpteRq92+JU+FVqffEpimTKDp4qKZMgqKZMgqKZMgqKZMgqKZMgqKZMgqKZMgqKZMgqKZMgqKZMgqKZMgqKZMgqKZMgqKZMg8p4bcu66f/6an15cnEOq4XzFW7xEe509uP5pc1EOa8Yu/wBvy4j8+fo6kNzY3m5M/py6vgbH/it2f/Yq9aHqbzDgZH/iGqnssetVD07KV8txP9GU1TPyrlU/YkHCo1iU9XzqlRTJlv2yVFMmQVFMmQVFMmQVFMmQVFMmQRmMxiYau/s+3aiJ4+koz20xxJ/lbbJlj38XHyaejesW7lPhXTFUfS81U01RqqmJ9cbcje4LaWvPeL9dE9lWK4ae9wa3G1y0cS74pxPzVfe9GyZaHJ5R4Jk7mMeqzV42qtfRO4+hYqxLEzuKdeqXkd7R6vTz+t09yn4ZpnHz8y3D2CWqv7XoNTnj6WjPbTHFn56Uby+Q7lMbxM6Kv0btOvpp39SxVgz82v3x9zzRV1+o4M25406e/VTPVFfLHz08rTajZ9w0/LNjjx7+3y/Vz/UjGZy9xfBiqbuHXVRHz7fnxrx6uyPWtVWLlPbT7utq8M7TbhrNL+xv1RHvauWP5mDjE4nk7YVamzfvY9yLlm7XbrjsqoqmmfoUp3E7idOx0vCO1XPF1dHEn31PLT98Ojs3rd+jj266aqZ5picvLWRp9RqNNXx7NyaJ68dflRzSmPDedMzHmi3nUeXo/Pp1Tcj7JZdu/VGoq64epjmNBvtq9xbeoiLdfVV7ifudNl0fh/E8Pilny2LeiumNdKOyqmZ7pjuZVNUVRuJVFMmWeqqKZMgqKZMgqKZMgqKZMgqKZMg1O8dGp/eR6JZO39DteKr0yxN56NT+8p9Esvb+h2vFV6ZBnAAAAAAAAAAAAAAAAAAAAAAAAAAAAAAAAAAAAAAAAAAAAAAAAAAAA1O79Fp8uPRK9tvQrHnetKzu/RafLj0Su7Z0Kx4qvWBsAyZADJkAMmQAyZADJkAMmQeD92v/APr3+Z/23hWHuvdo5+Dn+Z/23heHVuWvyJhfxPjlybmadcbzf4fwQ7jua/302b+N/pVPrR8n9zf++mz/AMb/AEqn1hlFOcPynY/ZqfjqS3k7r4Zf/aavgpAyZRRLHD8PrffuCO9xz8W1RXHmVxV9j5YiH19wls06rYN7sc816O9xY+GKJqj0PkWmOR0Pky5/Ycu3+be3/NH+zmXPFPRzcS5+dZ6P8s/7qY5H2Vt1zv8At+gvf9yxbr+lTFT46iH1dwS1H6Twb2OuZ5Y0tFuZ+G34M+hZ5zp3j4Nz825VT/NG/seuRLv9qz7cds26Kv5Z19rqQyZQJ0sDJkAMmQAyZADJkAMmQAyZADJkAMmQAyZADJkAMmQAyZADJkAMog8i4TTE73qo97Tbj6NMVfa0TZbxX33ddwr5479VEeKmri/Y1rk2dX5TMy69/KvXJ987QzIq6V+9V411fW7bgTT+v3Cvsooj6UzU9GcLwMt402uue+u00x5tOftd1l0HgFHQ4Vi/pdKr31TKS8Np6OHZ9O598gZMtwzgMmQAyZADJkAMmQAyZADJkAMmQAyZADJkGu1Og0erie+2Imce2jwavnpc1q+D1ynl0tzjR7yrwZ82eZ22TLS8Q5f4XxKKpv40Rcn/ADaPNr98dvteK7dFe90+15RctXLVfe7tE0VdcVRgelajSafVW+JftRVHV8Hicdr9nu6PjV25m5Z55nrp8r73N+Mcq5vDoqvWJnIx465qiPPpj0x3+uGPXZqo7OuGmw3e27re0c8S5mqx2c80+T9zTwI9h5uTgX6b+Ndmi5T4dkx4THfDzRM0zuJem2rtF+iK7dcVUTzTC+4Dbdxr0N3E5mzXPhx2fGpdxRXTcppqpmJpmMxMc0w7HwDjlnjONNURFN+jXlbfh6Y9EsumrpRtfDJlIHoDJkAMmQAyZADJkGo3jotH7z+mWVt/Q7Xiq9MsXeOi0+XHollbf0O14qvTIM4AAAAAAAAAAAAAAAAAAAAAAAAAAAAAAAAAAAAAAAAAAAAAAAAAAAGp3fotPlx6JXdu6FZ870ytbv0Wny49Erm29Cted60gzwBXQAGgANAAaAA0ABp4V3Z+fg94tT/S8Pw9z7s3Pwd/zP8AS8Mw6ly5P9zYf8T45ci5nnXG83+H8EO47m/98tn/AI3+lU+rXyp3OY/847P/ABv9Kp9VotzdO+JWP2an4qku5M6+GZH7TV8FIAiyX6WblEXrdy3PNVRNM+dD43vWatNfv2Z57VdVufHRM0/Y+znytwv0k6PhPvFrmiq/VdiPguxFz7Uw5PvRTkZlnq8+imv+WdfagfPdneNgX/zLldH80b+xzEQ+i+5tqe/8GbVqas1ae/dt/S/WR6Xzs9j7lOsxXu+hmeq3eop8mZpn7G85ot+V4VcmO23XRX9PR+1GOTb/AJDjlqnevLW66P8A5fY9rAczdj0ABoADQAGgANAAaAA0ABoADQAGgANAAaAA0ABoWrt2m1brrnmpjM+JdaTfr/6PtOurziZt8SPHX4P2rGRd8jYvXZ7KKKqp9kbW7lUW6K65+bTM+55FVcm5crrnnrrqmfOq4yIrPM5HMzMzMyhXjM971HgpZ4mz26p57ly5V9fF+x1DVbVYjT7dobXNNFqnjeVVHGn0tq6xgWvIYWJbntptURPr0mWPb8nYtU9mqIgAZa/oADQAGgANAAaAA0ABoADQAGgANAAaAA05Pddo9vqNPRjrrtx61P3Obh6g4veNB3ivv9uMUXJ5Yjmiv7qnM+bOXKMemriOHRqnf4+3EdUb+fGu7x96zXR2zHuaV0Wya2Yq/Ra+bwptzPb7aaXPJ01V26oqpnFVE0zHlUofwriN3hedYyre5imdV0/nUT2x93pInUw9KGJpr0amxbuxyRVTTMx2T1wy3eLV2i9bouW6oqorpiqmY74mNroAuK6AA0ABoADTVbx0Wny49Esrb+h2vFV6ZYu79Fp8un0Sytv6Ha8VXpkUZwAAAAAAAAAAAAAAAAAAAAAAAAAAAAAAAAAAAAAAAAAAAAAAAAAAANTu/RafLj0Subb0K153rSt7v0Wny49Ep7f0Kz53rSDOFAV0qKAaVFANKigGlRQDSooBp4h3ZOfg/wCLU/0vD8Pcu7Fz8H/Fqf6XiOHT+XZiOD4f7/xy49zTP9+5v8P4Idt3OP747P8Axf8ASqfUz5Z7nf8AfHZ/4v8ApVPqVGObPylZ/Z6fiqTHkr8lX/2mr4KVRQRdMNKvAu6jou9bzpNVT7XU6biT5dqri+iYe+PNe6XoP0ng/a1cUxx9Hfprqn4lXgz9cw2/Asn8G4rizM9Vczbn97s+nSPc04v4TwTLiI3VbiLsfuTufo2+fna8AtfGh4T7fmcU6jjaevzo8H64hxa9ZuXNPdtXqKsV0V01UT2VUVcaPrh0XNtU5WPfsVdlyiqn3w4/g5FWJl42RT22rlNXriJ632KNbt+tt7jotJq6IxTetUXI87wsNi5JMVU1VU1RqYmYn1w79RXTcoprondNURMT4xPXtUUFHvSooBpUUA0qKAaVFANKigGlRQDSooBpUUA0qKAaVFANKigGlRQDSriOGWo4um02mifb3eNMfFpji+mXbPJ+Euq/SN2u0081mKbUeOnwp+uWi5ivxZ4bcp313ZiiPV2z9ENfxO55PFrjfXXPR9nbLQMjQ2J1et0tj/uXKYnyaqvC+pjuo4J6Xv26VXsclm1nzqvB+9A8Gx+E5mNZ/OuRv9XvRzHt+Vv2qPGqP9/oen8kckfIqoOspnpUUA0qKAaVFANKigGlRQDSooBpUUA0qKAaVFANKigGlRQDSooBpVjamxRqbF21VjFcYz2fmWQLd21Ret1266YqorpmmqJ74mNTBp5vVTNFVVFUYmmqqJ8dPgjabxZijXV1RHJcimv5faz6GrhwHPxpws3Kxp/yrtVETPbMRPVPuWtdcup2C7mzesz7ivNPiq/GHQOP2Svi6zi9VVFUfRxU691vlDJnI4JjxVVubVVVqf3Z6o9y5EdUKigk6ulRQDSooBpUUA01e79Fp8un0SzNv6Ha8VXplibv0Wjy6fVll7f0O14qvTIozgAAAAAAAAAAAAAAAAAAAAAAAAAAAAAAAAAAAAAAAAAAAAAAAAAAAand+i0+XHolPbuh2fO9aUN36LT5ceiVdu6HZ871pBn5MogrpLJlEDSWTKIGksmUQNJZMogaSyZRA08V7sHLPB/xX/6XieHtfdf5+D/iv/0vF8Om8u/kfD/f+OXG+ap/v7O/h/BDs+55H/m/aP4v+lU+osvmDue/3v2f+L/pVPp1Gea/yhY/Z6fiqTLkjr4VkftVXwUpZMoiMJlpLLWblo7e5aDW6Ovkpv2rlufg43g8b7WxFYmqmqmqmdTTMTE+mHiu3TcoroqjdNUTEx4xL48vWbli7dsXacV266rdcdlVNXFn60Xfd0Pav0Df7uooo/VayjvsT1cenwa6fnxPyuBdTxsqMrGs34nqrpifVPfHvcFz8SvBzcnFr7bVyad+MdsT7Ye89zTc/wBJ2i/oK5zc0l3NET/27k8aPozl6dl8xcEN39ht90l65Xixd/U3fJqxiavJnEvptA+OYvkM6uumnVF7z49ffHvdV5Sz4zOFW7VVW7mN+Lqj0fNn3dXsSyZRGnSjSWTKIGksmUQNJZMogaSyZRA0lkyiBpLJlEDSWTKIGksmUQNJZMogaSyZRA0lkyiBpLJlEDTD1uqo0Wm1Goqjkt0TXjt7I86XjFVVddc11Tmqqapme2aquNLuuF2t4tuxoqKuWue+XPJp8GKfncGgHMuX5fLpsUz5tmOv9art+jqRrit7yl+m1E+bbjr9cj0vglpZs7dXfmPCvV1THk0+DT9rzexZr1F61YojwrldNEeVVVxXtljT0aaxasW/aW6Iop8VMYe+WMXymTeyJjzbVPRj9ar7oXOEWeldruzHVTGo9dX+zIyZRE8SHSWTLzHdd23TT7lrbNvWV00UXOLRTERiIqpiqOphxv28f+vr+aPuRa/zXhY925arxr+6KppnUU9068Wrq4pZorqom3XumqYns7nrWTLl+DWsv6zTaidRemuui7iJnGeLVTFUe1dM3+Fl287FtZNuJii5EzET29U662wtXIu26K46oqjsSyZRGUuaSyZRA0lkyiBpLJlEDSWTKIGksmUQNJZMogaSyZRA0lkyiBpLJlEDSWTKIGnNb/RT3zTVdtFUfRmKvtaF0e/82k8dX2OccT5spijmDiERHbNuffRCktltfJr7Pw8aP5ZdnlxW2R/btP5VXqy7NNeQ5meFZUd0ZVWv5KVdJZMoibmksmUQNJZMogaSyZRA01m79Ho8un7Wbt/Q7Xiq9MsLd+j0eXT9rN2/odrxVemRRnAAAAAAAAAAAAAAAAAAAAAAAAAAAAAAAAAAAAAAAAAAAAAAAAAAAA1O79Fp8uPRKu3dDted6ZU3fotPlx6JV2/olnzvtBm5MgK6MmQDRkyAaMmQDRkyAaMmQDTxbuvc+w+Tf/peMYe1d1vn4P8A8f8ApeMYdK4BP90Yn7/xy4xzZOuP5/8AD+CHY9z/APvbtP8AF/0qn05l8zdz/wDvbtP8X1JfTKM80TvPsfs9PxVJpyN18JyP2qr4KTJkEbTPRkyAacLw92ed12O7Xbpzf0n663xeeafd0+dHL8j52h9hcnNMZ7Yl8y8LdknY951Fm3RjT3eNd089XEr56fNnkSrl7M1RcxKquv5dH2x9rnPO/DJ6VjiFunqmPJ3deMfJn7HL46n0XwH3v2Y2e1RcrzqdJxbV3PtqqceBX50R88PnZ0XBffK9i3WzfqqmbFX6vUUR7yqr23jpnlpbDi2L+GY1URG7lE9Kj7vajvLnE/6M4jRVXV+Ju6ou+qZ6p9k/Q+n8mWPavW79u1dtVxVbuUxNNUddNUZiqPKZCCuzx1xExPUZMgK6MmQDRkyAaMmQDRkyAaMmQDRkyAaMmQDRkyAaMmQDRkyAaMrGov2tPZu3rtWKLdHHmfgp8JfcDwr3Smcbfaq+NemPpU0/bUweI5tGBi3L1XbEapjxqnshj5V+MazXcnt7KY8Z8HI6zVXNZq72oq57lXGiOyKfBiPNhjCVNNdyuiiijNUzTERHXNU8WKXLaqrl65VVVM1V11bmfGZn70Qmaq6pmdzVVPvmXWcEtD37VXdXXHg2Y4lHw11Ry/Rj0vR8tbtmio2/RWdNHPTGa5jrrq8Kqr52ydN4Thxg4Vq1MefPnV/rT93YluHY/B8eiiY1PbV65MmQbNlaeY8JrPet3u1Y/a0UVx83Fn0NFEO24W2ImNJqae2q3M+V4Ufa4tx/mCibHFcynuqr6cfv+d9qL5dvoZd6NdtXSj2uu4JXsX9XYn3VFNUR8NM8Wr0u7y8q2rURpdfprkzinj8WrxVeDL1VM+Tsum/wyqzvrsXJjX6NfnR9My3PDqulj9HfXTMx7J6zJkEtZ+jJkA0ZMgGjJkA0ZMgGjJkA0ZMgGjJkA0ZMgGjJkA0ZMgGnMb5Vm7Yo97RVM+dP4NKztyu991t6Y5Yp4tEebz/WwnB+PX4yeM8Ru0zuPKzRE+MUebGvR1KxDY7TRxtdRPZRVP1cX7XX5c1stvNy9X2UUxHnTxvsdK6XyVZm1wSmv/WvXK/dqj/4lXaZMglqmjJkA0ZMgGjJkA01W7dGo8un0Sz9v6Ha8VXplhbt0any6ftZu39DteKr0yKM4AAAAAAAAAAAAAAAAAAAAAAAAAAAAAAAAAAAAAAAAAAAAAAAAAAAGp3fotPlx6JNu6Ja871pN36LT5ceiTb+iWfO9aQZeTID0ZMgBkyAGTIAZMgBkyAPHO61yzsPk3/6XjmHsfdZ59h/zH9Lx/Do/AKv7pxf3/ilxTm3/mDP/h/BDruAMf8Amzav4vqS+lcvmzgD/ezav4vqS+k0b5n68+z/ANin4qk15E/JOR+1VfBSZMgjibGTIAZcfwy2L2d2mumzRnVabjXbE9dU45aPOj68OwFy1drsXbd2idVUTuGNl4trNx72Pejdu5TNMx9vrh8gcsTVExy80xPPFST0vug8Gp0Wq9ltNTjTX5/XUxzUXavdeKr0+N5snNjKoybNN2ieqqOuPCe+HEOIYF/huXexr0ddE9VXdVTPZMPXe57wl5Lezaur336LVVPP7qbX20/M9ey+Raaq6Kqa6K5pqpqpmKqZxPGpq40VUz8V9A8DuFVrfNL3jUVRRrrUeFHte+RT4PHpj1o6kd4rh9Gub9uPNn5ceE+PtTzlPj0XbdPD8mv8ZTGrNU/Opj5vrj6nc5Mg0ieGTIAZMgBkyAGTIAZMgBkyAGTIAZMgBkyAGTIxNZrLWgsV379WKKY+eeqKfhqea66LdNVVdUU00xMzM9kRHbLzVVFMTMzqIjcyw943SjbNJNfJN2rjRbp7Z7avgp908mrrruV1111zVVM1TM9czV4U1M3ctff3LU1X7viop6qY9zTT/UwHNeMcUq4jkebMxYo6rcfXM+mUVzsv8Ku+b8in5MePpkdnwU2zvtyrX3aPBt8aLUT11+6q83mc1tugublq6LFHJHPXV1UUU8//AOL1+xZt6ezasWqOLRbopiiPgpZ3LvDfwi/OVdp/F2p8yJ+dX90MjheL5W5F6uPMonzfTP8Asu5MgnySGTIA1m76b9N2/UWYp41XE49Hjp8KPpczy+IexvN960P6Hrq5pjFu7xqqOzjVe2p+dz/nfAq6GPn0R8n8Xc9ET10z7+pquI2Ol0LsR2dU/Y08Q9I2bW/puiomqfDteBX25p5p86Hm8NrtOvnQarjzmbVXJcj4vvvNRXlvi0cL4lRVcq1Yu6ouejr6qvZP0MXDuxYudfyZ6qvv9j0vJlGK6blPGpmJiacxMc0xV1pO0xMVRuOxvu0yZBVUyZADJkAMmQAyZADJkAMmQAyZADJkAMrGq1FNixdvdkckds1cy+5jd9VF27FimfBt1eHPbP8A+LScwcTp4Xw27e6WrtUTRZjxrmOr3dskRtqfCmapnlzyzPxkhe09ib96ijtnlnsp91U4hbt3L92i1biarlyqKaY8ZqnT3EOk2u13vS28xy3J40+L2sNjkiKaaaaaYxyYiPgpHfsDEpwcPGxqey1bpp34zEdc+2XiesyZBmBkyAGTIAZMgDWbtP8AZ6fLp9WWw2/odrxVemWBunR6fLp9WWft/Q7Xiq9MjyzgAAAAAAAAAAAAAAAAAAAAAAAAAAAAAAAAAAAAAAAAAAAAAAAAAAAand+i0+XHolHb5/slnzvWlLd+i0+XHolHQdEted60gzcmUQeksmUQEsmUQEsmUQEsmUQEsmUQHkPdW5Z2Lyb/APS8fw9g7qv/AME8m/8A0vH3ReAz/dWL+/8AFLiPN3/MOf8Aw/gh2HAL+9e1fxfUl9IZfOHAL+9e1fxvUl9Go5zN/wAfZ/7FPxVJxyH+SMj9qq+GlLJlER1NksmUQEsmUQFjVaWxrNPd02otxXZu01UV0Vc001PnDhLwe1PB/cKrFWa9Pc406e776j3tXw0+6+d9LNVu+06LetFd0WqpzTPhU1xz0V081VM++pZuDmVYlydzu3V1VR9vrR/j/BLfF8eOjqnJtxM2qp7/ANGfRP0PlxlaXUX9HqLWo096q3et1ZoqjqqZ29bLrNj11em1NGY57d2PaV0e+p/qjqalJfKUXaOlExVTVHvcjuW7+Leqorpqt3bdWpjsqpqh9BcGOFen361Fm7xLWuoo/WWubjRT7qjjc8e+jqdtl8m2bt2xdtXrNyqi7bnNFVM8tM0+6pml7PwY4dWdfFGl3W5TZ1Hg00Xva27k/D2VfVKP5mH5OqarXXT29Hvj/Z0fgPM9GTTTjZ1UU3o1FN2eqm56/CXpeTKI1qapZMogJZMogJZMogJZMogJZMogJZMogJZMogJZMotTue8aXbLf6yvjXao8G1Tzz90fCtXr9rHt1XLtyKKKe2ZW7lyi1TNVdUREd8s3V6yxorM379zi0R9c9lMdcvLd13W/ul/jVeDZp43e7fVFPvqu2qpZ3HctVuV7j36/Bj2lunmpj4v3sBAOMcbuZ8zZtRNOPE9nfXPjPhHhCN5ufVk+ZR5tv6/9hO1buXrtFq3RNVdU0xFPXM1KU0111RRRRNUzPJGM8tXuaXpOw7JG32+/X8Vam5HL1xRFXuafh99LC4Zw29xG/FEebbid3K/CPCPTKxiYleVciI6qY+VV4f7s7Ztrt7XpaaOSq9VxZuVds9lPxaW5yiOmWbNrHtUWrVPRopjUQldu3RaopoojURGoSyZRF1cSyZRASy1O7aGNfo6qIiOPR4dufjU/8uZtBj5WNazLF2xep6Vu5TNNUev7XiuiK6ZpnsmNS8mmmaZ4sxMTE1ZjsmnnpHW79tvHzq7FOav8WmOuPf0+T7pyUOH8W4Xf4TmV492Nx1zbr7q6e6fX4tFes1Wa5pnr8J8YdNse7RYmNLfr/V5/V1T7mfe1fA7XLyV0m1b1NiIsarM2vc3Ofi/Fq7YSvljminHpowM+ufJ9UWr0/Nj82r0eE9zOxcmKYiiuerun7HbZMoRVTcp41MxMTGYmPCiaVXTImKoiYnqbFLJlEVVSyZRASyZRASyZRASyZRASyZRASyZRASyZRa3W7jRpaaqacVXJ5o6qfjVMTNzsbh+PXkZN2KLdPfPbM+ER3z6A3DXU6ejiW/2lccnxY99/xcwVVV3auNVM1VTOZmRxTjfGL3GcubtXm2qNxat/m0+n0z3vcR6R0W1aXiW5v1R4VyMUfBT/APk1uh0f6Tc41X7Oj289tXvXVYpiMRydkJTyZwSq5cjid+jzKdxYiY7Z7Jq9UdkFU90K5MojprwlkyiAlkyiAlkyiAlkyiA1259Hjy6fVlsNv6Ha8VXplr9z6PHl0+rLYbf0O14qvTI8s4AAAAAAAAAAAAAAAAAAAAAAAAAAAAAAAAAAAAAAAAAAAAAAAAAAAGp3fotPlx6JR0PRLPnfalu/RafLj0Shoei2vO9aQZgA9AAAAAAAAAAPIe6rz7J4r/8AS8fewd1Xn2TxX/6Xj7onAfyVi/v/ABS4jzd/zDxD+F/+ul2HAP8AvVtX8X1JfRz5y4B/3q2r+N6kvo1HeZv+Ps/9in4qk45D/JGR+1V/DSAI6mwAAAAADU7vtOh3vR1abV0Zp9tRVHJXRX1VUz758+77wf12w6niXqOPZmr9VfpjwKqfe1dk++h9MMXV6TTa6xc0+os03LNyMV0VRmmfx+FlY2ZXjzrtontj7ke41wDH4tR09xbyaY825rt9FWu76nyxELsQ7/hBwD1Wgm7qNupq1Gm55tc9y3H20+LlcJTT+LNryablPSipzPJ4dlYF7yWRZmirunuqjxie+HX7Fwv3DaIos3s6nSx4MUVT4dNPxKqvRPI9e2rf9r3m3TOm1EcfHGm1V4NynzavTD55iF6nj01U1U1zFUVZiaZmmYq+LNLVXq6NzOm/4Xx7OwIpt1T5azHV0Kp64j9Gfs7H02PF9s4Z7xoooov1RqqI5MXOSvHxa6ftiXdaHhls2qimLlyrTXOuLkeDnyqeT58LMXrc9tWvWm2Jxzh+X0Y8r5Oqfm19Xunsl1wsWL9jUU8axeouU9tFUTH8q+uR1ttExVETExMT2TE7gAHoAAAACcRGZ5PhnmajU77tek5K9VTVV7234dX8vItXb9mxT0rt2minxqmI+t4ruW7cbrrimPTOm3WdRfsaa3VXfuU0UdddU4hw2s4W3p8HRaeKI9/d8KfNinkctqdVqNZc4+ou1XKurjTzeTHNCO5nM+JZiacembtX53XTT7+2fY1l/i1mjqtRNc+PZEfa67cuFczxrO3046pvVR6tNXplxdddy7XVXXXNVUzy1TOfC+NNSIh+ZxDLzq+lfu7j5tMdVNPqhor+Teyaulcr34Ux2R7Bcs2buou0WrVE11zPJTDP27Z9ZudX6qji2eN4V2rmjye2rxPSdt2nTbZa4tqjNcx4V2rnq+6PgZvDOC5GfMXKom3Y7657avRTE/WycPAu5Oqpjo2/Ge/1MDZdjt7bT369ivUzTyz7mimrqp/ql0YOhYuLZw7NNmzRFNEe+fTM98pNatW7NEUUU6pgAZC4AAAAAAplx+8bNNqatRpaM0z7e3HufjU/FdiNXxfhONxjFmxf6pjrt3I+VRV4x9sLV21Rdp6NUeqfB5XA6/c9kovTXe0tMU1882/axV5PZU5Oqmu1VxLlE01RyTExiYcc4rwfN4Re8nkW/MmZ6FyPk1e3un0NVcs12atVR1d0s7Q7lqNDViirjWpq5bdXN5vY7LR7ppdbERTXxa+u3V4M+b2vPyGbwnmXiHCujR0vLWI/y657P1Z7l21frtxre6fB6iOG028a2xyVV99pjqq5/Nnnb6xvuju8lfGtz8blj56XRcDmzhGbERVe/B7k/Nu+bG/RV2faz6L9FeuvU+luxatXbd2njW66a47aZir1V1I6K6blMVUVRVTPZMTuJ9S729YA9KgAAAAMS7q9LY9vdpieyOWfmpWb+RYxqJuX71FuiO2quqKY98qMtC5cotUzXcqimOvM4hpL+8+2psW/Oq+6lpbt+9eqzdrmrsz7WPJhEOJ868Pxoqow4nJuePybcT657fZ7xuNXuszxrenzHbcnn82Gk5ZmqZnOeWZkSc24jxTN4pe8rlXpq18miOqmmPCmO57iN76xl6PSXNTXiOSnrq/Pul3R7dc1E8arNNHb1z5LpLVqizR3uijFPVCQ8vcq3uI1UZOZRVbxY1NMT1VXfV+j6fcrNSVq1RZoooojFMc0Jg61bt0WqKaKKYpopiIppiNRER3Q8AD2AAAAAAAANdufR48un1ZbDb+h2vFV6Za3c+j0+X/TLZbf0O14qvTI8s4AAAAAAAAAAAAAAAAAAAAAAAAAAAAAAAAAAAAAAAAAAAAAAAAAAAGp3fotPlx6JQ0PRbXnetKe79Fp8uPRK1ouiWvO9aQZoiD0kIgJCICQiAkIgJCIDyPuqc+xeK//AEvIHsHdSpqqnZOLRNXJfziJ+L715L3m7/2bn0avudE4FMRwrFiZj5/xy4nzdTVPMGfMUzP+H2fqUuq4B/3q2r+L6kvo1868BqLlPCnbJqoqiP1nLMTT7iX0QjvMsxOdZ1P+RT8VSbch7jhGTuNf2ur4KUhER1NkhEBIRASEQEhEBJym9cEts3iar0Ufo+pn/FtxHheVHNPj53UisTpj5GNYy7c2r9qmuie6fs8JeC7nwY3baZrrvafvliOa9bzNGPjRzx8rSRD6Vc7uHBXZtwmap0/ers89y1iiZn40c0/MsXbddcTNMopmcq6masO7vwt1/ZP3vEYhdiHaazgNr7M1VaW/b1FPVFXgV/zck/O5u/t2u0VWNTortv4aqZ4vz08jTZMXre5qomI8dNHc4flY06vY9dOu/W6ffHUx7NVyzVTVauVUVdtMzE/PS3un4Rb3p8RTr66ojquRFfrRlpIheiGnryrlvc0XKqfVK7YuXrX+Hcqp9VUx9TrrfDLdaf2lvT1+bMT/ACyzaeGl/wB1t1ufJrqp9aHExC7EMa5xnOt/JyqvbET9cNra4hn9X9pqn16n7Hcxw0mf/h0f/c/Anhjc6tBT8tc/c4mIVYtXH+LT1Rl6/co+5k/0lm99/wD9afudXVwv10+00tin4Z40/awbvCPeLvNqIo8iiI+urlaIY1fFeJXI1Vm3PZPR+HS3Xm5dfbkV+ydfUyL2s1WqnN/UXK/KqmqPmY4nRauXquLaoqrmeqmJmf5WDNVy5V51VVdU/vTLG3VXV17mZ9qA32l4ObnqOLNVqLNPbcnE/NTyum0nBTRWOXUXKr9XZPJR81PLPztpjcD4jkzGrE26fzrnmx7u2fZDMs8Pyr2pi30Y8aupwem0eq1lfE09iqueuYjkjypq5IdptvBS1axc11cXKueLVPJRHlTzy621at2aIt2qKaKI5qaYjk+SlcSrA5cxMbo13p8vXHjGqI9Ud/tbnH4VYtaqufjKvT8n3d/tRoootU000URTTEYiKYxER8WKVxESOIiIiIjsbNIRBVIRASEQEhEBIRASEQEmFq9Dp9ZTi9R4Uc1Uckx5zLFnIx7OVaqs37dNy3V8qmqNxLzNMVRqY3DitZsuq0/Gqop75RHXTHLHlR9zT4emsLU7dpNXE1V24ir31Pg1fPTzoHxPkaiqarnDr/Q3/lXJmafZV1z72LXjR1zTPslwKTfX9guUcabF+K46oq5Pr5mqu6PVWJ8OxVHw4zHz08iE5nBuKYE1fhOFcppj58R0qP5qdwtTbrp3umVmmuaZzTMxPbE4n+Vm2ty11rm1FUx2VYn1mBCbCsZeVjTuxkXLU/oVzT9Uq0zMdkt1Tvmrj21Nur5Jj1ZXqd+r69LHyVT9zn0m1t8zcdtfJ4jcn9aIq+KJXorr/OdH7Px16WfpfglO+x1aWfpfg5xVf/rbzBrX4dH/AI6Pue+lV4t7O+3J5tPTHjmamPVvGtn2tVFPk0/8mqSYt3mLjl6Jirid6N/mao+GIeulM97Iu6vVXvb365jsziPmpWhOmiap8GiZ+CI4zU3Lt/Jr3cuV3a57OlM1VS9KKthZ2zVXeWaIop7auT6uds7G02LfFmuqa6uzmj5m6weWeM500zTiVWqJ+fd8yPZHbPue2isWL16rFFEz2z1edLe6XbLdrwr0xXV2dUfe2dFFFummKcRHVjwYST7hHJ+BgzTdyKvwm9HX50aoifRT96u0hETFRIRASEQEhEBIRASEQEhEBr9z6PT5f9Mtlt/Q7Xiq9MtZufR6PLp+1s9v6Ha8VXpkeWcAAAAAAAAAAAAAAAAAAAAAAAAAAAAAAAAAAAAAAAAAAAAAAAAAAADU7v0Wny49ErWi6La/PupXd36LT5ceiVrRdFtfn3UisMoMmRUDJkAMmQAyZADJkAMmQAyZADJkAMmQAyZADJkAMmQAyZADJkAMmQDnjE8ueeJ5jJkGtv7NtWpmqbugtTV28Xiz89LUXOCW018tHfbU/FrzH80OpyZY1zDxbv8AiWKKvT0YY1eHi3N9PHon09GI+pxdXA2x7jX1x5VEVerLH/6NuR7XX0fLRMfa7zJlg18C4Xc7cbXqrqj7Vj+jMH/Q16pn73Bf9H6r/wBZZ+jKscD7/XrrceKiqftd5kytf1d4V/oVfz1R9qn9F4f+nP8ANLi6eB8e718+bR/yllUcE9up9vev1/LER/LDqsmV6jgfCbfZhUz+tNVX1yuU8Pw6f8iJ9czP1y1FnYNpseFGjpqntrma/WnDa27Vu1TxbdFNEdlMRHqpZMthaxsexGrViij9WmIZNFq3b+Rbpp9UaAyZXlwDJkAMmQAyZADJkAMmQAyZADJkAMmQAyZADJkBVTJkGPc0elvftNPRM9uOLPz0sOvZtDVzRXT5NX/JtMmWvyOFcMyt+XwLFc/nTRHS9/a8zTTPX0YaKvYrfudRVHjiKlr2Br6tVHy0z97osmWsucp8AuduBr9W5XH0bU6FPg5v2Cvf+oo+aUvYO516in6MuiyZWf6ncBj/AKWv/wAtf3qxTTHc0VOxR16j5qfxXqdl08e2rrn5o+xt8mWTb5W4Da7OHUT+tVVV9cq6jwYNO3aOjmsxM9tUzV6zMpoopjFNER8ERj1UsmW2x8LExf8AAxbVr9SiKfqVAyZZQBkyAGTIAZMgBkyAGTIAZMgBkyAGTIMDc/2FPl0+rLZbf0O14qvTLWbl+wo8un1ZbPb+h2vFV6ZFJZwAoAAAAAAAAAAAAAAAAAAAAAAAAAAAAAAAAAAAAAAAAAAAAAAAAAA1O79Fp8uPRKzoui2vO9aV7d+i0+XHolj6LotrzvWkVhmi3kyKrgt5MguC3kyC4LeTILgt5MguC3kyC4LeTILgt5MguC3kyC4LeTILgt5MguC3kyC4LeTILgt5MguC3kyC4LeTILgt5MguC3kyC4LeTILgt5MguC3kyC4LeTILgt5MguC3kyC4LeTILgt5MguC3kyC4LeTILgt5MguC3kyC4LeTILgt5MguC3kyC4LeTILgt5MguC3kyC4LeTILgt5MguC3kyC4LeTILgt5MguC3kyC4LeTILgt5MguC3kyC4LeTILgt5Mgw9y6PR5dPqy2e39DteKr0y1m5fsKPLp9WWz2/odrxVemRSWcAKAAAAAAAAAAAAAAAAAAAAAAAAAAAAAAAAAAAAAAAAAAAAAAAAAANTu/RafLj0Sx9F0W153rSyN36LT5ceiWPo5/s1rzvWkVhliOTIqkI5MgkI5MgkI5MgkI5MgkI5MgkI5MgkI5MgkI5MgkI5MgkI5MgkI5MgkI5MgkI5MgkI5MgkI5MgkI5MgkI5MgkI5MgkI5MgkI5MgkI5MgkI5MgkI5MgkI5MgkI5MgkI5MgkI5MgkI5MgkI5MgkI5MgkI5MgkI5MgkI5MgkI5MgkI5MgkI5MgkI5MgkI5MgkI5MgkI5MgkI5MgkI5MgkI5MgkI5MgkI5MgkI5Mgwdx/YU+XT6strt/Q7Xiq9MtVuM/qKPLp9WW12/odrxVemRSWcAKAAAAAAAAAAAAAAAAAAAAAAAAAAAAAAAAAAAAAAAAAAAAAAAAAANVu0Z0nn0sTRdFted6zYblTnSXWu0XRqfKq9YVhliuTIqoK5MgoK5MgoK5MgoK5MgoK5MgoK5MgoK5MgoK5MgoK5MgoK5MgoK5MgoK5MgoK5MgoK5MgoK5MgoK5MgoK5MgoK5MgoK5MgoK5MgoK5MgoK5MgoK5MgoK5MgoK5MgoK5MgoK5MgoK5MgoK5MgoK5MgoK5MgoK5MgoK5MgoK5MgoK5MgoK5MgoK5MgoK5MgoK5MgoK5MgoK5MgoK5MgoK5MgoK5MgoK5MgoK5Mg1+4fsafLp9EtvoOi2fF9stRuM/qrUfH/pb3SxxdPaj4BSWQAKAAAAAAAAAAAAAAAAAAAAAAAAAAAAAAAAAAAAAAAAAAAAAAAAAAMfUxxtPqI+JV6Gi2/lsVR2V1fzUuhqiJpqjqxhzehzRVetz20/y+CKw2QiKbV0kIhs0kIhs0kIhs0kIhs0kIhs0kIhs0kIhs0kIhs0kIhs0kIhs0kIhs0kIhs0kIhs0kIhs0kIhs0kIhs0kIhs0kIhs0kIhs0kIhs0kIhs0kIhs0kIhs0kIhs0kIhs0kIhs0kIhs0kIhs0kIhs0kIhs0kIhs0kIhs0kIhs0kIhs0kIhs0kIhs0kIhs0kIhs0kIhs0kIhs0kIhs0kIhs0kIhs0kIhs0kIhs0kIhs0124cs2ae2qr7KXTxGIiHM3Y77rtLR2TTn6XGdQqpPaACgAAAAAAAAAAAAAAAAAAAAAAAAAAAAAAAAAAAAAAAAAAAAAAAAAA5eKe87jep5uNNUx53hQ6hzm50961di9HXFOfNnwvqkGWKCm3rSooGzSooGzSooGzSooGzSooGzSooGzSooGzSooGzSooGzSooGzSooGzSooGzSooGzSooGzSooGzSooGzSooGzSooGzSooGzSooGzSooGzSooGzSooGzSooGzSooGzSooGzSooGzSooGzSooGzSooGzSooGzSooGzSooGzSooGzSooGzSooGzSooGzSooGzSooGzSooGzSooGzSooGzSooGzSooGzSooGzSoojVVFNNVU9VNU/RNmmPo477uVVfVR/x4v2ujaDZ6ap7/AHp65pj+qW/VeQAAAAAAAAAAAAAAAAAAAAAAAAAAAAAAAAAAAAAAAAAAAAAAAAAAABqN1td80/G67c5+SrwW3Wrlum5bronmqjEg0li53y1RPxcT5VPgruWBo6poru2KuSYn66fBlnj0ZMgps0ZMgbNGTIGzRkyBs0ZMgbNGTIGzRkyBs0ZMgbNGTIGzRkyBs0ZMgbNGTIGzRkyBs0ZMgbNGTIGzRkyBs0ZMgbNGTIGzRkyBs0ZMgbNGTIGzRkyBs0ZMgbNGTIGzRkyBs0ZMgbNGTIGzRkyBs0ZMgbNGTIGzRkyBs0ZMgbNGTIGzRkyBs0ZMgbNGTIGzRkyBs0ZMgbNGTIGzRkyBs0ZMgbNGTIGzRkyBs0ZMgbNGTIGzRli6yrFjHvpx/VUymBdpnUay1Yj2sVcvrT9SpLd6C13vS2omMTMZ+kz0YiIhIeQAAAAAAAAAAAAAAAAAAAAAAAAAAAAAAAAAAAAAAAAAAAAAAAAAAAAAHObhT3jWUX45quWfHT4M/UyImmYzDM11jv8Ap66Y5ao5aPG02ju8a3ieej1fcisM3JlEeXpLJlEBLJlEBLJlEBLJlEBLJlEBLJlEBLJlEBLJlEBLJlEBLJlEBLJlEBLJlEBLJlEBLJlEBLJlEBLJlEBLJlEBLJlEBLJlEBLJlEBLJlEBLJlEBLJlEBLJlEBLJlEBLJlEBLJlEBLJlEBLJlEBLJlEBLJlEBLJlEBLJlEBLJlEBLJlEBLJlEBLJlEBLJlEBLJlEBLJlEBLJlEBLJlEBLJlEBLJlEBSquKaaqp5opyjtNrjXLuoq6+SnzvCliauuapos08s1TTyR/LS6LT2Y09mi3HVHLPbL08yyQBQAAAAAAAAAAAAAAAAAAAAAAAAAAAAAAAAAAAAAAAAAAAAAAAAAAAAAAcvrLdWj1vHinwLnL9Lnp+fldQwtbpo1NiaeuOWAa7n5Y5jLC0l2cVWquSqnmiefi+981mqPZkyCgZMgBkyAGTIAZMgBkyAGTIAZMgBkyAGTIAZMgBkyAGTIAZMgBkyAGTIAZMgBkyAGTIAZMgBkyAGTIAZMgBkyAGTIAZMgBkyAGTIAZMgBkyAGTIAZMgBkyAGTIAZMgBkyAGTIAZMgBkyAGTIAZMgBkyAGTIAZK6oppqqnm4uZGBfqrvV0WKOWZmnPlKksnbbdV/UV6iqOSPa+Or/AIw6RjWLNOntUW6eqOftnrZKrwAAAAAAAAAAAAAAAAAAAAAAAAAAAAAAAAAAAAAAAAAAAAAAAAAAAAAAAAAA53ctPNq5+k2uurwvglW3ci5TTVT188dlTe1UU10VU1RmJjlhzFy3XodRVTOZt1csT2x/ypFYnTNyZRzExnn7B5eksmUQEsmUQEsmUQEsmUQEsmUQEsmUQEsmUQEsmUQEsmUQEsmUQEsmUQEsmUQEsmUQEsmUQEsmUQEsmUQEsmUQEsmUQEsmUQEsmUQEsmUQEsmUQEsmUQEsmUQEsmUQEsmUQEsmUQEsmUQEsmUQEsmUQEsmUQEsmUQEsmUQEsmUQEsmUQEsmUQEsmUQEsmUQEsmUQEsmUQEsmUQEsmUUKpiKaqqquTrkEb16LVGeueSI+Mydr03Fpq1Fft7nNns995zD01iddf75XGLdNXLHb8X/k6aIiIenmZ2kAKAAAAAAAAAAAAAAAAAAAAAAAAAAAAAAAAAAAAAAAAAAAAAAAAAAAAAAAAAADE1Omo1Nqq3V44nsllgOSomvT3JsXuTwuSer/8AWpms/W6SjU0dlcc0/wDL4GjtXa7VVVm9GKo5pn1R6ie5mZMg8qmTIAZMgBkyAGTIAZMgBkyAGTIAZMgBkyAGTIAZMgBkyAGTIAZMgBkyAGTIAZMgBkyAGTIAZMgBkyAGTIAZMgBkyAGTIAZMgBkyAGTIAZMgBkyAGTIAZMgBkyAGTIAZMgBkyAGTIAZMgBkyAGTIAZxyyxYpua29Tao5KOufi++q/pRqquaqvvFuOTr7PKq+K6LS6WjTWuJT8s9r0pMp2bVFi3TbojEQyAHkAAAAAAAAAAAAAAAAAAAAAAAAAAAAAAAAAAAAAAAAAAAAAAAAAAAAAAAAAAAAAAa3W6KjV05jkuRHJP2S2QDkrdyuzX3q/TMTHJEz+faspttVpLeroxVyT1VR1Ofqi/o6+JejNPVPwfFHqJ8WUKU1RVGYnMT1qvKoAAAAAAAAAAAAAAAAAAAAAAAAAAAAAAAAAAAAAAAAAAAAAAAAAAAAAAAAAAAAAAAAAAAAAAAAAACNyqi3TxpkEvBiMzOO2WLNVzV3O92va9c9WO2r4Erdm/rq8UxxbXXM/nlqdDp9Pb09viUU4jrntenmZQ0ukt6S3xaeWZ56u1mgKAAAAAAAAAAAAAAAAAAAAAAAAAAAAAAAAAAAAAAAAAAAAAAAAAAAAAAAAAAAAAAAAAAC1ds271E0XKIqp7JXQHL39Ff0k8ezmqjrjsj4yFq/Rd5Oaeyf6XVtVqdstX/Co8Cvtj2s+VArE6a8Y9UajSzxbtEzT1T1ebK7Tdou808vZ1qPSYZMqAGTIAZMgBkyAGTIAZMgBkyAGTIAZMgBkyAGTIAZMgBkyAGTIAZMgBkyAGTIAZMgBkyAGTIAZMgBkyAGTIAZMgBkyAGTIAZMgBkyAGTIAZMgBkyAGTIAZMgBkyAGTIAt3L9FrnnM9kc63atarWe0o4tHXP551TceJc1MU8lPLV9TK0223L9UXdRMxHVT1/g2Ol2+zp/Cxxq/fT/T2Nkq8zO1uimi3TFNMRERzRC4AoAAAAAAAAAAAAAAAAAAAAAAAAAAAAAAAAAAAAAAAAAAAAAAAAAAAAAAAAAAAAAAAAAAAAAAAAt1U03KcVUxMdcS09/ardczXYr4k9k834N4A5KunV6af1tueL2/jSlTft1dePgl1OImMS117btLd5e98Srtp5PwFelLWKq3Nq1FrlsXIqjsnk/BjVfpdj9pYnHbjk+enkU0rtkDGjVUTzxMfzJxetz7uPl8EV3HivCHGieaYkyoJiGTIJiGTIJiGTIJiGTIJiGTIJiGTIJiGTIJiGTIJiGTIJiGTIJiGTIJiGTIJiGTIJiGTIJiGTIJiGTIJiGTIJiGTIJiGTIJiGTIJiGTIJiGTIJiGTIJiGTIJiGTIJiGTIJiGTIJiGSaojnmIBMWe/W49383hLU6qj3NEz/KqbjxZanJEZmcQtU0ay/7S1MRPXjEfPUybe0Xrk5v3sfBHKaU2xKtRbjm5Z+DmSos6zVe1o4tPb+edvLGg0tnli3me2rllnqqdKWo0+1WLXLc/WVfDzfM2uMRiI+ZIFAAAAAAAAAAAAAAAAAAAAAAAAAAAAAAAAAAAAAAAAAAAAAAAAAAAAAAAAAAAAAAAAAAAAAAAAAAAAAAAAAAGLXpdPd9tapn4ccrEubVpKo5KaqfFP8AybUBop2Wj3F+Y8cRKzOz349rfz9KPtdGA5eds13VOfO/E9jdf+avxdQA5f2N1/5q/E9jdf8Amr8XUAOX9jdf+avxPY3X/mr8XUAOX9jdf+avxPY3X/mr8XUAOX9jdf8Amr8T2N1/5q/F1ADl/Y3X/mr8T2N1/wCavxdQA5f2N1/5q/E9jdf+avxdQA5f2N1/5q/E9jdf+avxdQA5f2N1/wCavxPY3X/mr8XUAOX9jdf+avxPY3X/AJq/F1ADl/Y3X/mr8T2N1/5q/F1ADl/Y3X/mr8T2N1/5q/F1ADl/Y3X/AJq/E9jdf+avxdQA5f2N1/5q/E9jdf8Amr8XUAOX9jdf+avxPY3X/mr8XUAOX9jdf+avxPY3X/mr8XUAOX9jdf8Amr8T2N1/5q/F1ADl/Y3X/mr8T2N1/wCavxdQA5f2N1/5q/E9jdf+avxdQA5f2N1/5q/E9jdf+avxdQA5f2N1/wCavxPY3X/mr8XUAOX9jdf+avxPY3X/AJq/F1ADl/Y3X/mr8T2N1/5q/F1ADl/Y3X/mr8T2N1/5q/F1ADl/Y3X/AJq/E9jdf+avxdQA5f2N1/5q/E9jdf8Amr8XUAOX9jdf+avxV9jNdPPXjzvxdOA52Nnuz7a/j5Jq+1ejZbfur9U/JEN4A1dG16SiOWiavHMsujT2LXLRapj4YjlZIAAAAAAAAAAAAAAAAAAAAAAAAAAAAAAAAAAAAAAAAAAAAAAAAAAAAAAAAAAAAAAAAAAAAAAAAAAAAAAAAAAAAAAAAAAAAAAAAAAAAAAAAAAAAAAAAAAAAAAAAAAAAAAAAAAAAAAAAAAAAAAAAAAAAAAAAAAAAAAAAAAAAAAAAAAAAAAAAAAAAAAAAAAAAAAAAAAD/9k=;fillColor=none;" parent="1" vertex="1">
                    <mxGeometry x="6437.28" y="900.23" width="41.65" height="27.77" as="geometry"/>
                </mxCell>
                <mxCell id="08zl2Wz16HbDXzCnhwST-92" value="" style="shape=image;verticalLabelPosition=bottom;labelBackgroundColor=default;verticalAlign=top;aspect=fixed;imageAspect=0;image=data:image/png,iVBORw0KGgoAAAANSUhEUgAAANgAAAAuCAYAAABK69fpAAAAGXRFWHRTb2Z0d2FyZQBBZG9iZSBJbWFnZVJlYWR5ccllPAAAAyhpVFh0WE1MOmNvbS5hZG9iZS54bXAAAAAAADw/eHBhY2tldCBiZWdpbj0i77u/IiBpZD0iVzVNME1wQ2VoaUh6cmVTek5UY3prYzlkIj8+IDx4OnhtcG1ldGEgeG1sbnM6eD0iYWRvYmU6bnM6bWV0YS8iIHg6eG1wdGs9IkFkb2JlIFhNUCBDb3JlIDUuNi1jMTMyIDc5LjE1OTI4NCwgMjAxNi8wNC8xOS0xMzoxMzo0MCAgICAgICAgIj4gPHJkZjpSREYgeG1sbnM6cmRmPSJodHRwOi8vd3d3LnczLm9yZy8xOTk5LzAyLzIyLXJkZi1zeW50YXgtbnMjIj4gPHJkZjpEZXNjcmlwdGlvbiByZGY6YWJvdXQ9IiIgeG1sbnM6eG1wTU09Imh0dHA6Ly9ucy5hZG9iZS5jb20veGFwLzEuMC9tbS8iIHhtbG5zOnN0UmVmPSJodHRwOi8vbnMuYWRvYmUuY29tL3hhcC8xLjAvc1R5cGUvUmVzb3VyY2VSZWYjIiB4bWxuczp4bXA9Imh0dHA6Ly9ucy5hZG9iZS5jb20veGFwLzEuMC8iIHhtcE1NOkRvY3VtZW50SUQ9InhtcC5kaWQ6QTAwQkM2Mzk4NDBBMTFFNjhDQkVCOTdDMjE1NkM3RkQiIHhtcE1NOkluc3RhbmNlSUQ9InhtcC5paWQ6QTAwQkM2Mzg4NDBBMTFFNjhDQkVCOTdDMjE1NkM3RkQiIHhtcDpDcmVhdG9yVG9vbD0iQWRvYmUgUGhvdG9zaG9wIENDIDIwMTUuNSAoV2luZG93cykiPiA8eG1wTU06RGVyaXZlZEZyb20gc3RSZWY6aW5zdGFuY2VJRD0ieG1wLmlpZDpBMkM5MzFBNDcwQTExMUU2QUVERkExNDU3ODU1M0I3QiIgc3RSZWY6ZG9jdW1lbnRJRD0ieG1wLmRpZDpBMkM5MzFBNTcwQTExMUU2QUVERkExNDU3ODU1M0I3QiIvPiA8L3JkZjpEZXNjcmlwdGlvbj4gPC9yZGY6UkRGPiA8L3g6eG1wbWV0YT4gPD94cGFja2V0IGVuZD0iciI/PgQJy/MAAAxESURBVHja7FwNlFVVFT6PN8MMM8AIjPxomEyggCYgajIaguCkaC5AEocif9CIiLLyp9IMC9NgVRqrGpMSwcFSIs3URHERJoJCSlIgMQk0YCS/MjAww8zrbO/36rz99rnvzpt3Z6Z551trL5hz3z3n3HPO/t/3Rg6NL6lXIeCWXhfk0r99Ji05Hkb/IxojI8vK6lfbrk+fPl05OLQ2OrglcHBwDObg4BjMwcHBMZiDg2MwBwfHYA4ODr7IaW8PNOfliNryeKnqpM50u+vQXJRoGqlpmKZiTUc0HdT0hKa1Wclg+9/urWqqe6pOPf8vpjtYU39Nb4Mc2g6+oukWTSdZLL/sZLDDu4tU/ZE82+VZmko1NQgL9oymymYMPUTT7ZoaWXtU0wuafmm00QS/p+kLmvIhGedpmu3OdauDCiR+gLNiw7GsNRE75DSqSIeY7fJYTVdarp2u6TeajqY5NDFXueXaUcZgozV91fi7QNNdml7U9Cd3xlsVs1IwV1xAZieDpYCf5DlD0wWaVqTRbz9Nl/hcr2N/jxJ+E8H4jsFaD700fVFo365pIfwvcu7/xq53hWV0tqalmrZkK4OlkkrXpMlgE+EEB8V6S/tf3Ta0KiiYcSpre1fT5WxvOkAgfkLTJAjG09D+sslgLkyfiAlNZJQ4Y05t4j2/1/QQa7tf0x/cFrQqBoFxTDwpCD7ysztqukfTNE0DwUs13L93GiwRPTRN0fTjJtxThgBHU1CraYamRzSdrOmfmtZoirktaFU0Cm1vNMH0z3ofLAhI5T+ogkeKbhA2KYhlQJLuFbfcbZ7B6n32L2ZpdwwG7NB0GKZBHOdqGqqC5TnINLiIta1IEfDgdnwcMcsGSyhSXn6mGHtI972vaZem3QHHihkHpLumPvh/NZx5G05AMID+LcAB3K/pPU3/TmMPOmk6BX1SSuM4xv9XE/ujQENvzKsQ/dC89qCvVPvQgPE5cvFvlK1frkWQJvw+2xmMwucLNX3faKO81OSADEZBkW7G3xs1PRuAwegw/QSMorDBFJn6cgozcQhMy3OUV2XQjUnarZr+oulhTc8bG/5d3BMzJPUEHJA7NV2K/mJ4bko37GVjj0H7UAQCehjXDoExyZz6tabfBVg7YuqZCBQMZP1RXnAb5vINi9CI43xN12oarrxorulD12BemzUtUV4FBmfue5UXGazHGnDcrLwgVg5jsCjmzfv7oaZ9uB7Jdgaj518OM+90ZibehQ2yoQAba4LyaDsDjFuIyFS+0XYiGC1mOYxzNF3P7uGScxCIDtpKmLnERBTlupD9/sOafqqSUwbn4qDEQZryATBk1DJ2F2PscgQGvqbpHcvvidkpL/hRn7UdDJpvYbBiY006WvrpDCYgGg/rgnJcm4z9vwhCw4b4PIIgivVLUI/ZDNqYKhwIE30htfxwhUoM6RIzPi5EoWy2PmfeI5bfUtHXUmiu/IDPFROCKnys+5Scj6s17ieN+RIETjTg2BEw43ImtOIgbbHMh7lMHLOYzb2wJtN9mEvCGGj2YQHWPSPIdgaL4OBUCs7sZJ9DRe3Xsbb1MPMKMqxhf6a8yg8J+2CWvpXCjJI0xJU+QqcePs3DFiZR0E5kjm63XKcaywWGGRxftzkQYDwa9xLM6xWGeZonCCxqe0TwfePYjnnZtGdfCMJijFsYtomU7cjHAaV6wXFG+2iYBm8J9wwTDv2CEOY2zaJJKaw/D1piHzQOOffnKa9ANa8JwvN5+Ey1eN5SaI3bmKSP42n4GVW4pwD+z23wh0xcCC0zF3+XwFzlUbcvwWSsh6lbAu06Q2CwuN/GQRHZu5VXNH0EZu5H4GOOEZifinnvgKDsargGvEyK5v6MRRA9wMzHWqz/xv8yWPzrT2Hh3aVT0mbiiopFTb6nIT0tpiCtxzGHdaKFwa5h5to2I6iQKXTHAeDYAH9iG2vfgyAHMcDFKlhObTYOJT84A5Rcj0fpi88L7Tvg8y0TzM6bNP1c0wFNH1LJify16NcM1sTfLljErIhuYEaOF2Bx7BcE0ToEOD7Jrt2AQNObzN/iIG24yrJ+fDyKXK42+2x3JmLj3/Ue5qb1pbiVKvmVkc+o5MLOIjCYid8qL0ydSVwmmFLkt00VmEuxiN5TKnXRMh2a7wjtdZD4XVn7VkT0lM9hmyH4NKQtzjKEGWf8bsJYpkYwfdUyBGdMvAdm2W/powbz4vvTG9qam5+ShSMhT3AhItxFyFkwcn5DGAf9xlWzPhi8YuKSurQ7Wb7EfklFRknfRbxiQLWav+vEdEbbA0b5utHWDwf9Saa9TmaOeGUIS3ip0PaQRaOmgwU+Wk7ybxb6HOI4NkNQjWPtI8DQVNf3PvPLKPL4nPKitqnqQKWgDEVuq1PctxN7eBNrH4tgiQtyhGgimlikEstfSEhcbawTmU9T2D2vKnvxbrrIRbTNBDFDpmoV4/kuG3h+h3yyNQH7flVoiyfyqyzjlsLPIQYrhz8pYbBFEwfB60LbSWGfR1fsm4hNsOdNXG6YauT0f0xgykzjBJWYRI5r2OoM9d/oo41Iu3QRzMaDAfuWoopRo59vKa96RjK5Loa/RO/FfVYwvwqF5wgaPd0ltJ3iGKzlsUAl5l66woEmXMvs9G0qnAp4qWzqqErOZ4Wx95SczWnGWWmwPE8crykvT+b3ag5FJSkUP9dgziLBV2tUwcvLpJRLgWOwlgdJT/5C3VXKSypfleQKen5FphFRyeHpQhVyzgY4LvhmERW80r9TgN+QlUBpjtnKi/TZcKv6X9TwkEXzRZrxrNWOwVoeNYLjS5EwKisqZlL5FyHNoVbQBN1bwqRRXoHtQcF8C/qe3AChTSq2pagepQjoTfLPKS+cLoG+W9IT68EjlDkq+QVJG/oHNGcdg7UAHmXmGPlDl7H1WgVzJywmlzZ/Ugs8OwmOrUJ7WcDzJEU/1/ncQ5qJoqOUGpgnmHyUdD4N/98s3H9JwOcaK7S9FsLaxRyDpcY/lPfWsZ8ZsjjkOSwX2iiCWdoCwvNpoW1qAA1KTHiWwECvBJgThe+pGmSt8BwFhvnOQcUA56eY1wiBwSi9sroZa9QgCIMc7us5BrNLokofB3q7Cv/1/idUckEwmWqPQZsqi9P+aQRq8poxNvlIe1hbDwQeSnwO8YOCMHrU8FM/DvN7UAofkO9F3PeiMP47wprQ8w6z9EftVKWTKwiwjc30VQ8I/ucYznEO9kNGSd0hlms7Qx6ftCh9n+/brJ20yLNgNPrAShWk5lAwHh3iDSp4dE3CNuWVN32TtY/S9EeM/QYCFKdCg0xRyamFvczsy0OgiOZJCWIq8H0Tfh8l9amciadBdhhMRb+jOsj57DdngPkoxL8G8+8L5qJwfy/Bx71HNTttKqYIbgZf0ToNdAxmxxFosSGCRF3cQnOgV0rOVMnRS0I5qA5aI5cdoOaCXkQ8TzCtqJ7wVmONCnxMqFlM4zQamnYqiAIqlILoYumL8oxmDqsCQuRq9jti7pkgv3nR/t2hAn6ZNwWoOuR61kY5zDuxRnnORPTHYyo5okYSsqW+XUgH7zrllXDZ0FEwfzKR36mB9PcrYi7w8aemYf1MSLmoImgYqS8yw+cKphnVHv4qjXkdg4b5UYb25zkfRs1rlz5YLBbxS9h0FqSN3xqQGchfVahMYX5Jvk+h4LjzcqCuPgf9U8p7vSLI9+spqLBSJZZ8dREOepC9J9+JXiy9PeDYtfCxRsJf49inguUNyfSi98bGK/mt8sMwSamIN8i3JOuxJlSV4/fFsPyA+2n2e6NKrMhX7doH65jToKIRK4vRtykWMjNwb4pgB6n7pwyzJ1VBKkn8yaytSjhAk9jm7VX2ZC6Nez80Ah1ees+K6vK64x7SdFvge1HEbh07BMQgvdlz7Q+4pMehRYhhRiOYQS9h9oSgOYbno0O2WvnXLK5HH2fD9Ka3mvsY/WyEb0f+y6YAgagKBIOoxGo4668OPuKfsSarA/ily4Qgyusp7qE5U2piAnzUAUZgZkMkWnmg7VbT+8BWTd/wYgc1c/FYFcvv197N14hhcjWlZChTyDEOekMb6Ces/tId/4M9aXcmYjQaU+XnbM4G/zAG7XK8FZhLGWM3tJF+wuov3fEb26UPRss6vP9u5eDQFtD+GEzLjc6d69zOOjgGCw21bmMdHIM5ODgGc3BwcAzm4NAm8R8BBgAGrc+T79nGEQAAAABJRU5ErkJggg==;fillColor=none;" parent="1" vertex="1">
                    <mxGeometry x="5990" y="904.98" width="92.83" height="19.77" as="geometry"/>
                </mxCell>
                <mxCell id="08zl2Wz16HbDXzCnhwST-93" value="" style="shape=image;verticalLabelPosition=bottom;labelBackgroundColor=default;verticalAlign=top;aspect=fixed;imageAspect=0;image=data:image/png,iVBORw0KGgoAAAANSUhEUgAAAHsAAABwCAYAAAA+AA+8AAAgAElEQVR4nO2deZwb1ZXvv1Uq7b2pN/fqhXbbGG8YbDA2mMUscQJMXmAGBpIJEByGgcF82AmPYSCEz5AFGCAEJ8CDhIeBJGA/CAYTwIkNGBNjA8Fr2223e3UvarXU2kpV9/1RUrkX9S6p3bz3+3zqI6lUy7n3d5dzzz33XEkIIfj/+H8CyngLkG5EIhHa2trw+/3moaoqc+fOpaysbLzFyyi+lmRHIhHWr1/PmjVrePPNNwkGg0mvKysrY9GiRZx55pl8//vfJz8/P8OSZhjiawJd18U777wjrrrqKpGbmyuAER0ul0usXLlS7N+/f7yTkjZ8Lciuq6sT55577ogJTnbY7XZx5513iq6urvFOVsox4cl++eWXR1WTE4csy6KsrExUVFQIRVHM8zNmzPja1XJJiImrjW/YsIFvfvObaJo26mc4HA6WLVuGx+OhubmZPXv20NzcDEBxcTFvvPEGp5xySqpEHldMWAWtpqaGyy+/fExEA7jdbkpLS6msrCQvLw9FUVAUhfr6eo4cOcLZZ5/Nxo0bWbRoUYokHz/I4y3AaHHTTTfh9XrH/JysrCzsdjvhcJhAIGCey8rKAiAYDLJy5UpisdiY3zXemJDNeE1NDTNmzCAVok+dOpU5c+YQCoVobW2lo6MDn89Hd3c3uq6b1z388MPccccdY37fuGJcNYZR4pZbbkmJ5g2I/Px8MW3aNOHxeITFYhnwOqfTOeEVtglJdnV1dcrIHsmxcuXK8U76mDDhmnG/309ubm5KmvCRoqCggObmZhRlYuq1E05B2759+7gQDdDe3s577703Lu9OBSYc2X//+9/H9f2vvPLKuL5/LJhwZIdCoaTnPR4PVVVVFBYWjviZVVVVXHPNNaxcuXLIa9euXYuqqiN+x7GACUf2QONdn8+Hx+Nh2bJlnH/++UM+Z8qUKZx22mmcddZZeL1e3n77bbKzs7n55psHvc/r9bJ169ZRyT7emHCaRl+L2bRp07jwwguRZZmtW7fy+eefs3jxYubOncuXX37Z7363282qVasoKyvDbrcjyzLBYBCv18vDDz/MFVdcwemnn87mzZsHlGHnzp0sXbo05WlLNyYc2T1rdkVFBTfeeCPTp08nKyuLFStW8NVXX7F69WpkOXmjdf/997Nw4UJcLhdWqxVFUdB1HZ/PR2lpKStXrmTOnDmDyrBr166UpiljGN+R38jxH//xH+a498UXXxQHDhwQPp9PhMNhEQ6Hhc/nExs3bkw6Tn7wwQdFZ2enUFVVxGIx81BVVYTDYdHc3Cwef/zxIcfbK1asGO9sGBUmHNk/+tGPzExPzDm3traKSCRiXqOqalKS/H6/eY2u62Lbtm3i008/Faqqmue8Xu+QZM+dOzeziU4RJpyCluizjz/+eNxuN88//zzFxcUcd9xxvPrqqwAoisITTzzR675LLrkEl8sFgKqqLFmyhJNPPpnnnnuORYsW0dHRgSRJ5OTk8L3vfW9QGdxudxpSln5MOLITffbMmTORJImf/OQn5OXlcdddd7F161b8fj8AZ555JgDz5s1jypQplJWVIUkSAM8//zxbtmwBjH7/2muv5cEHHwRAlmUeeuihQWXIzs5OS9rSjQlHdmImKqFp19TU4PV6iUajlJSUsH79egAsFgtWq5Vp06axaNEi3n33XfMZPYdO99xzD/v372ft2rWmZW4oMh0OR0rTlClMOG08QURjYyNCCMrLy2loaOC9995j4cKF7N69GyEEd9xxB6qqsm7dOvNeTdNQFMWs/Qk8+uijAHR3d5OVlTWk0cRms6U4VZnBhKvZCXffcDiMpmmmAeWtt97igQceoCQnRt0fZP5w15+IfgTRjyCyGUKboOt9Kx+tXkZeXl6/55aUlJh9+kBWugSG+v9YxYQj2+PxmN+DwSD33nsvOTk5AFx/rswFk3/Mlg+g8TBYbcax5+/wynPQWAennbyJX/zzah68/OgzFUXhpz/9qTk2/+CDDwaVYefOnalPWAYw4aY433jjDS6++GIAfvWrX3HdddexefMmmv54HsvOjeJthd1fwP/4HoAbLMeBXse2D324smDWXOM5ug7hINQdlGnxPMWZF18HGC2G0+kcVAZJkujq6jJdlyYKJhzZmzdv5owzzjB/H2nYz7anprPgNEFRMfQynFmmg5wDag3Q1ftBwgqyBYiiazrRCOzbpfDQ+5fy8ssvDynHJ598MuG8Tid0Mz65ALavruLEU5IQDSC5AAFSH6LlYlCqQa4CqQxZlnA4Yc6CGE9d9TJWy9ByjPdU62gwYcm2KfDf34eZs6G4JAnRwgbIoPsNuxcYn1IRyKUgO0G2AxaIN26SDDkeePS7Q8uxadOmFKUoc5iwZH9rrkFyUWm8Ne4LSz6IAGg1Pc55wFIKkgII0PygN4IEP/4xrHkJJAkqh7G484033hizz3qmMeHG2U6nE7vdTlluhKxcGHDIKyKgdx79LWWDXAmSFYQGegtoTbz8KuzeCSu+BaeeAjEVHnltaDna29vZvHmzaambCJhwNRuM2v2/PoRgAAa0f4guIBz/4QS5HCQL6CGI7Wbb1ib+571wpAn+836DaACfF/6yp/ejLrzwQnME0BNr165NVZIygglXs8EwrDQ3N1NTIxNVdZxOWNTPl6BHEyspoHeB3kL9YS/PPWcUkmtXwtQp8at16PLCls1WZFnrtUAgPz8fh8PBNddcQ21trTkOX7dunWl9mwiYkGTn5uYC8KnlX7E3rcaVrfHMU1A5BS74VpIbhJ9fPe3nSAu4XHDtNVBWYfyl6xAMwr6dcPBgFh0zHuOf/unPvYZfbW1tVFRUoCgK1dXVeDweXnvtNWpra9mxYwcnnnhiBlI9dky4cTYYS3YOHTrEfffdhycvl6J9d1M9I4K3G6wKtLZBSwuEwkfvKSyAf/k+JFy+NQ1CAairhd17cpj0rdew2N2EQiH27NnD9ddf3+udV199NVarNX6vxrPPPgvAlVdeyYsvvpiRdI8VE65m+3w+Dh06BBjKWnlFJW32R9n5xZ3MqPIzbQYsKwFLEg1dFxCNQrcfGg5BbY2FvLNe4ISlJ5Obm4uiKIRCIRRFYc6cOb3G0lu2bOG0004z3ZgSWLNmDXfdddeQrkzHAiYc2T2dCB0OB4WFhbhcLg5oD/HVzp8QjTYTjUJRCciSMZRCgnAIvG3Q2QENdRCruJ7qq/4dj8dDTk4OdrsdSZLQdR23281tt93GVVddZb5r165d7Nq1i/POO4/PP//cPK/rOvfeey+vv/56JrNhVJhwZCfmq8HwGCkrKyMajRKNRjksfsSne39PsHsT2bmGocVqNYwl3X7o6oKAspQpF/6U4uJiiouLcbvdWHo0A7Isk5+fz1lnnUVlZSWHDx/u9f6e8+IJrF27lq1btx7z5tMJ1WcfOHCA2bNnEw4bnfG6des4++yzAdi/fz8HDhygoaEBf1cnYX8rTrpx0YXDouKefj6FpcdRUFBAUVERRUVFuFwu03ulLzRNMyM7DAdnn30277//fmoSmiZMKLIvuugi3nzzTQDsdjt1dXUUFxcDhvP+nj17qK+vp6uri2AwiNVqxel04nK5yM/Pp6CggIKCAgoLC4flbeL3+5k0adKw56+ffPJJbrjhhtEnMM2YMGSvW7eOb3/72+bv9evXc/7555tz0Lqu09jYyKFDh+js7CQYDGKz2XqRXVhYiMfjMbXqoaDrOq+88gpXXHHFsK53Op1s27aNWbNmjTyBGcCEILu+vp4FCxbQ1tYGwIIFC9i0aVM/L89oNEp9fT1er9ck2+Vy4XK5KCgoIDs7u1f/PBz4fL6kni0D4cQTT+STTz45Nl2XMu68PEKoqiqWLl1q+mxbLBaxb98+oet60uu7u7tFfX292Lt3rzh06JA4cuSICAQCA14/FDRNE48++uiIFu3ffvvtY0ly2nDMk33HHXf0ysinnnpKRKPRAa/XdV1Eo1HR1dUlwuGw0DRtzDK0t7ePiGxZlsUHH3ww5vemGsc02W+++aaQJKlXrW5qasq4HKqqipNOOmlEhFdWVgqv15txWQfDMUt2XV2dKCgo6JWBq1at6rXMJ5PYsWPHiGOwXHbZZeMi60A4Jqc4Y7EYl112Ge3t7eY5SZJYtmzZiBWsVKG6unrE97zyyiv87ne/S4M0o8MxSfbdd9/Nxx9/3Ovc8uXLcbvdaY2nIoRA13UikQjBYNA8wDDN3n777SN+5o033sjBgwdTLeqocMwNvd555x1WrFjRj9QbbriBxYsXs3z5ckpKSpJavmKxGJFIpNeQLBKJYLVaB1yvnbinZ/D5aDRKLBZD13VkWWb+/PlkZ2fT1NQ0qoD0K1as4K233hrxfanGMWUb1zSNW265pR/RNpuNrKws/H4/O3fuxGq1kp+f349ARVHYt28fra2tCCGwWCwUFRUxc+bMfu8SQuD3+2lvb6etrY2Ojg46OzsJhUL9fMs6Ozs5//zzKSgowO12093dPaJ0rV+/nj/+8Y9ccsklI7ov1TimmvEXXngh6WqL6dOnY7PZsFgsRCIRGhoa8Pl8SZv0WbNmkZ+fj91uZ+HChUmJBkMHyMrKIjs7G7fbjcvlwul0YrFYzNkvTdPQNI2mpibeffddrFZrr9UiRUVFprl2KNx8881mbNTxwjHTjIfDYaqrq6mvr+/330033cSCBQuYMWMG1dXV5ObmYrVaB5zEGA1isRidnZ10dHTg9Xrxer1mDNNYLIYkSVRUVHDOOedQVFRkBt9LRCvevn17L4UyGW699VZ+/vOfp0zmkeKYIftnP/uZGQhWkiSz1ubm5vL000+zePFiysvLh23XHgtisRg+n4/Ozk4OHz5MXV0d4XAYWZY59dRTUVWVk08+2bz+zDPPxOl0cuDAAfbu3TvgcxVF4bPPPmPu3LlpT0MyHBNkRyIRysvLaW9vx+VykZeXR2NjIwD33nsvP/jBD6isrBxQyUonAoEAe/fuZd++fXR1dWG327n00kspKSnptfR3/vz5ZGVlcfDgQRoaGgZ83umnnz5uCwyOiT77tddeM5vAqVOnmktnHQ4H5513HuXl5eNCNBixxxcsWMDChQvNgHqfffZZP+36888/59ChQ1it1kEnQTZv3jxuITGPCbJ//etfA4bLrtVqpampCYAHHniAk046adwDw0qSRFVVFaeffjqVlZVomsbs2bPN/xVFIT8/n87OTlP2wYw/49Vvj3szvm/fPmbOnIksy8yaNQtJkvjyyy+xWCwcPHiQ8vLylCpiY4Xf76epqYnc3FyeffZZ7rnnHnJycpg0aRJgTIlKkmQ6VwyEL774IuN997jX7GeeeQYhBEVFRVitVlpbWwHD1Ngz6M2xguzsbKqqqsjJyTHdjRPOipIk4XQ6icVilJeXm0ECkuEXv/hFpkQ2Ma41W9M0Jk+eTEtLC7NmzUJRFHbs2AEYNWSwzDoWoKoqNpsNm83G5MmTASPWSzAY5IILLiAYDA6ojFmtVmpraykvL8+YvONas999910aGxvxeDy9AtvceuutEyLWmMViYcmSJUSjUWpra6mpqTFt6aFQaNA0qKrK448/nilRDWR0jq0PLr/8cgGIyZMni/nz55tTg4cPHx5PsUaETZs2JZ3eLC0tFStWrBh035G8vLxBHTFSjXGr2Z2dnaxduxZFUbBYLKYpccmSJcM2QR4LOOGEE5Keb2pqQtO0QeOfd3Z29pvdSyfGjewnn3yScDhs7qmVGLLcd999o7aSjcfeWwmbQDIEAoFeS4WSYcOGDakWaUCMC9mBQIDHHnsMMDxC/X6/2dfNnz9/1Bp4Y2Njv4B26cZgNoDOzs4hA+h97cl++umnTYuZ2+02V3jYbDZzOe5oUFNTk/EtHQYrmB0dHUPKs23btiEnUFKFjJMdCoXMMaaiKEyePJmCggIArr322jFNdLS0tBxTTXlHRweRSGTQe3Vdz5j5NONkP/LII+Yutg6HwzSmAFx++eWj9jELBAJDZmw6IEnSgGPlgoKCYRW+TDXlGSW7paWFhx9+2PztdDp7rXceixYeCAQQQgyqMKULVVVVSc8P12CSbC+TdCCjZN9///29FKieZkYYW2jnBNmZmO/uiylTpvQ7N23aNEpLS4d1f0dHR6pFSoqMkR2NRvuFo4jFYgghzBptt9tH/fyuLiOKYabJliQpqRPiSOKsfO0UtA8//LDfsMjn8xEOh03Dw1iISvikjce8d7Kuw2azDdtgkqkp3IzlTM+YowmEQiG6urpMpWwsCwDG05lP9JlLKigoIBQKmatOh0KmJkMyRvacOXOS9sk1NTVomsbixYvHNJ05lKUqXRBC9HItnjp1Kqeeeiq7du3CZrMxc+bMIeetEzNm6UbGXEAURWHevHmcU7WVu68FpwtCIcg9x09NTQ1lZWVjigWanZ1NW1sbQoiMzoFrmsZLL72Ew+Fg+fLl5OTkEAwGiUQi6LpuhvNI1N6Wlha2b9/e6xk9gwykExmdz677g5XKqTF6cqHrsOY1uO4JN7///e/5xje+MSqyduzYwbZt27j66qsz2m/7/X5ycnKorq5GVdUBl/pIksQZZ5zB0qVLiUQiPPLII4BhQWxubs5IoPqM1ey617OYPC1mhC7CET9UZNnPFZeA1dbNqlWr+Pjjj02L2kiQn5+PJElEIpEhdwIYC4KBWrS/VeGwAzKoXrjwVIm3t9UOakARQvDXv/6VSCTClClTKCwspK2tjUsvvTRjOxJkhOyu1lrKyrrjr/OAnAeS3YjzrXcgiSb+8SLYvm8fFRUVZrM+khru8Xiw2+1pDwvt2nsieOYbAdaEIL9U441fHkBaOLwlQQ0NDQQCAVzWAIG/QEPjO2mVtycy0t5FtlYZYSSlfCOKv5xtkC07wFIMch6SBD9eZawMqaioYNeuXSNSulwuF5WVlWld0uut+wykRK8nG1GOJRtYhu9Vc+TIEWMxwesq7pw5zJhVRGhTZrqdtL/lzw/mkl8kAAWkHINgetRYSTEi+wsbigKBvxinZ8+ezcaNG4ddUy0WC1OnTk1r4JovX19lxDEXASNmOYDQ2PvlkWE/IxqNsv3pEHbbccZOBpINZ9bXYOj17s+XcMriLiOOqOQ2tmpIKoUT5EKQwO2G7c8Yp5cvX85jjz027GnLdNfsmG5BU6NGOGvRBbqXkH8HB2uGvjeBq86AGSc4wJKFuZ+Fpb8NIh1ID9lCsPmZqyjP/5isXEAHpKz4dg3JIIGcH9/ABebNg9nTjH9uu+02Tj/99GEZTdI55IpGo4QjMaIq8e0oGhCxA3R5QY3C3GFUzlsvgP+6HSRLCehh0FqNzwzZCFKmoKmRbnZt+G8OblmNwmGKigXTTkps1GIDycmgZUu2gZYPeghZFmx/CWynGX9t3bqV3Nxc6urqxsWXPDGk6uoKoEbA6QiCFNcvdcjzwI8uhqf/DH/ZlyRpEjz0HTjvLCgusQIB0A7F+/9cEJmZqRvTOLtt/1Z2/mEJcxdoOJ2GgqoDWszYu8NqS0QFzgW5It5fDwI9AnpdfMsHaGmEkj67NXz00UeccsopGYutous6zc3N7Nmzh7o3/43zzthNWaXxnxDQ6YXGg9DUBL42aO+E3Y2wtxny3FCWB4tmQGklnDAP8otkQI/vRJR4i8zhzvOpXL4+uRApwqhr9safz2He3K9Yenby2N4mJKuhmEnDmOSQbSA8QAiESnEpTC2Cg61HL1myZAmPPfYY119/fcaiCKqqSiQSQVU1Aj7Qy40WS4rrGHmFoAkjAnJ2HpSWwlk6KFbjKCiE8smQmw9IOsgzQXZhsC1AC1Kanf4h2KjJrq76ivxeXrJWzKIqY2zRITtBygM51ximDAnJ2GFPC4JoRZJg91pw9Nn/4+abb2bHjh388pe/TLuzgiRJWCwWIyIDgnDY2IUgYaSz2aFwkrHdlMMOkSioEcN2lGjd8ovAUwAW+wxDd+k5GkECSxaKNJvwhzKOpenrv0dNdq6pQNqNoZPkxmA53iso8aIvWeiduCEgWQ1lTQ8AIex2+OQpOPXfel/2/PPPs3v3bt555520LxMyA/DogmjEUMh6zsba7VBYBO4sjv5vM7aosDnA4YjvPdaP6B6Q7Tjcs/G/L5N9TnoIH7U2Hk24e8lZxtBBdhjNsGyPH9a49j1SZUoymjhLoXlrjyAHvbBlyxY2b96c1nBZkiShKIpBttCIxSAS7n+d1QY5uZBfCMWlxmeux9iARpYBqYoh80K2k51/Ah0b0tNajZpsb2KqNpYOP23ZqN0YzYfFAv4Bdjl+4YUX0m4itVqtCCHQ9BiqapA9UPmSZUPeRJ9u8GuL99HDgOwgf1I12qepX+s2erK98eGhHAUtDY4DkgLypPiemkYT+dDK/pe1tLSktWYncOTIEbzt7WgxY0+wfkNjAUavaDVMqJINcAJuIx0D2hiSQLJisc+E7ZMJtqbOGXHUZMei0tHSLdqPmg9TCdll2NIxasntP+h/yckDtfEpRCQS4f3330fEQuiasYVjL7IlF1gmg2UGWKpAKgVpEshF8bkADyPPahksRbga/pmuD1JTy0dNdijUo/8RGoh0OOdLxgaqkmFmVRRoetNw47nzzjvZuXMnDz30UFqdDGOxGGvWrOE3v/kNBdlgiW+7baZeshnEWgrjZl83WApALohbBXOHN+xMCglkBzl5UyDSOvTlQ2BU2rgQgkjEDoRMmY7uW5xiSPFpURECCYqL4dXH/5VT/+HujBhW9uzZw6pVqwBwO40CZ1Hi0/IA5BrDxb7DqWENNYcJi4PoZ+XYTouO6TEjrtm6rqOqKp78SFzLBHCMrE8aEaS4xm/UblmG2bn3Eo2OLeFDQQjBvn37zM3ZbBZjuKUooFjiyhdWowlPJbHJhcHrG/7WFQNhRGRrmoaqqqiqyvTjhZFgYTHmptOZYMkG4qg3R3YObH8qK22L+FRV5bvf/S4zZswwz5XmGmRbrUZTbmjaLpD6TNmmA3qISd8Y/jTqQBg22ZqmEYvFzCMrJ95sS3IGEpxoFo0CJctw4kKdP/3iGyn1KlVVlf3792Oz2XjppZd6/Tdz0lHzp1GzE4U8nYsSBOghmrwlKXnasMjuGbQ1QbapEwmRtu76KBL9xdECZbXD5Oz32bljy5gI1zSNYDDIhg0bsNlsTJ8+Pel1M0sMohNjaKPw9bAYphQC9DBq9x70eV9Ses7GlDx1WGQniE4cobr/w1EHzhiII6D5QI/Gh2CpzgCpn6hCGM353361lI0bN9Ld3Y2maQOOuYUQZmENh8O0trby9ttvc/zxx+N2u7ngggsGlaAi39DCZSVu+hSJAphK06YOehgtsptD0n8RO7E1pQajIbUqXdf7Hfbm66DngkvRCYRBOI1hkhT3HpXiG2H2qZUjhtSfbF03alhpCVx72XIOtkv88Ic/ZOnSpVRXVzNp0iRsNhs+n48DBw6wa9cuPv30Uz7++OOkkY+HgifLUM5kKTHLF0+PEPF56dGkT8SHrVEQXsLBVv729zM4/pKN5MZXtyaOVLhHD4tsYWwcY36X5SSlWYRBCoPuj/djVsBmfEr2uEXJFnfSkxmZbijFn3f0Hk2LE26B82bBrzcJVq9ezerVq0fw3OHDaTNIPjraExi1ejg1Ox4gSSQ+Yz182Xy0Hwnxt635HH/Vfo6bZjXzuednRsgGTLIT36Ozd6M1VvefxxZgNOsxzDF4AnpcwZIcgNuYAZITQ7bBar6Idw9+41M28kyNGoRLElRPGm5yRwdFNvprSTYKWCQELrdq1EjCIBTADn09aES8MIgIoIJQjUpBEC0WpqFOY/fnMsXf3EDVldPMfO57pCwdw7morxuQkF1s2nIq82Z+gmKN62g9C68UH4/G+zeLDJKsIUkashwFuow+T8Rtx5IrfiTRbEUIdC/QYVbsaNTIcDViEO4e/UrfYSHXaRRFLWYUskgEwmENhyPuK65rRuslemanHi8M0TjZYYQeIdCl01QP9XUQyb+a8n+8OWPLjIckO0F0YtF84jju26/S3F7PrpcuxWltxu4UOB09hieKoTErijH9lxij2p3G/K5i1ZHlbiSpO94iWONm0URzIQExjBphtBJCGDNO/i5jP+yoatip/cF0ZM1R+ELGe2KqUdDCIQh0AXoUh1MDKRIvqIm5exGXPYrQIkQigg6v4bbU1gJHmmSKv7kGT3F1r2AEffO453+pwLDIlmXZfHHiuyzLuDxlzPvhX4jFYnR3NtGy7X/j3/82llgzVpuOzWF4cthtR8l3uow5XrsLnE5wOI3CYLGoSAxsJNG0o5kc6IIuH3QHjJrWNsJZVkmSsNls2O127HY7NpsNq9VKe3t70tBaMd3wQImpxjx+sNtQDnUdoqqGYg1itcWnNTFagHAEwkEIBiDgh84O6GwHf7SCKZetwWZ3Istyv6NvHic+U4EhyU4IYbFYTEXBYrH0U9pcuSVULltFbMkNxGIx1EiQzv1/pW3PG+jNu5ClIA67wOGKE+42iE78dsQLhs3e0+4MCIhpRpPdHYDuLvD7we8zSA92w8e1xqVz587l3HPPpaCgAJfLZW70kvhMEGu3282xeV9jUUtLCwcOHKC2tpba2loOHTpEfX09/pBKQdR4n0UxuudYDKJhYzimKJgjTjVmdDPBAAQC4O8EXwdYpl7J1KU3mlEd+x6JvE1WCFKBYXmXCiEMAlW1V8YMdPTMwMR3LRYj0LCNwJe/A/8uHE4dlwucbqNpd8UJtzsNjVeSjuo7mmYcoWC8ZvuNpjzgg/f2ZsNxl3LRRRcxbdq0XpMjPfcaSQZd15PK3deuEIvFaN34ALmxz8nJBXeO0SrZ7EbXJMcNLQnXYi1mFIruQKIVUii54Amyyk9EUZQBD6vVmvR3RslOljEDkTtYpmmaZlrjwq178X35W/S2bbicMRwuo6Y7XUYmyvJRbw9dM2qRqhp9daAL/H6JosC1VfIAAAG9SURBVKX3UDT3H8yakagxicwZLGk9jSwDyZqQV9d1YkEv7X/6F9zumFFAHYnu56icCbJV1ajV3X5Q5QqmfOc57O68XjL2JdpisfQjO3E+VRiR37gQAlVVByV3qIzrmYGJriDia8S347dEGj/AaY/icBqTDYrl6HBHi8X77W7oDto47jvPkFU2p1cz2LN5HKg2JJKbjOTELn19iU7I2vnV63R99gT2eJejxKc6LRYMj2DdGG3FYhAMyHgW/jvFJ105oIw9CU1W01M9hTviRQLJakSyTOtJbt+M65mBib4zIUa4bT9HtjyF2rodiTCWuFaRIFx2TWbWFb/FllXQq5/reyiKklSTTXRJQ8marFAKIQi27KLh/R+j+Q9hkYXZAuk66EICbNjyjmPaxY9hzykeUMahSE9HQIFRrwhJNOt9M61vhg1FdE9jTb93qCG6G79A7W7FYnORUz4Pp6eil+IyGOGJzEuE3hhI3pEWSuPQUQOtRP3NxIKdODwVuAqmYrE6emnRfRWvoUhP7BiYDow5zMZQzXWyDOyryUNysvuON3tm4kgITyhqgxXK4cg6mJyJz4FkHErOgVqiVOL/AurFGAg5tYUtAAAAAElFTkSuQmCC;fillColor=none;" parent="1" vertex="1">
                    <mxGeometry x="5910.89" y="903.98" width="25.01" height="22.77" as="geometry"/>
                </mxCell>
                <mxCell id="08zl2Wz16HbDXzCnhwST-96" value="" style="shape=image;verticalLabelPosition=bottom;labelBackgroundColor=default;verticalAlign=top;aspect=fixed;imageAspect=0;image=data:image/png,iVBORw0KGgoAAAANSUhEUgAAARQAAAC3CAMAAADkUVG/AAAAb1BMVEX///8SfMEAd78AdL4AeL8Acb0Ac76ixOMEesC/1uxMk8vx9/schMcAcL2sy+bS4/I2i8mDsdnc6fT2+v3F2u3c6fXo8fizz+icweFwp9Wlx+Tk7/eKttx5rNc/j8tdndGRut5po9NXms8Aabs2jswcqd0jAAAQgklEQVR4nO2dCduqLBPHEwTRNJcstUWtc77/Z3y1xRjArdDsvM//uq+z3FniLxiGYYDVatna7iPfTg7p6Zxdro6TB3f9dZzrJTuf0k0S+8f1t0s5j9a7eHPKHJdhSjFGlUzTZIwZlW5/VX+YzKx+j6srqOk62WkT779d7Im09pPykjNSozBN40ahX8yoAFV4cHAp7eO3n0Gj1v4mdMwbDDaQhYJOxYbSPEx+n8w6Ti9u1U7Q+zQgmooMK6zdt5/rbfnWxfUoMrXQ4MGYiKBi83M1Zh2f8rq16ObBgcHEPfnffs7B2sZhULeXyYA0QtQ4/wIXv8zJcCCs7ltuQujZOd/658EfYBJ2WnQ72m8KNARI7YTcfBDMjMpXuxbZ+XwOa50rP66o3DiD4VvPPaS3Yoj+3Wy//exq7cqAYLPzEWoWFQrXuYTWpvZWOx6lcnfjxAovuVnR6WPDMAqX5935IaPtVYRV/Sgm2L2GVrwb7bdvozjNckRqNB3Vxbsuyrr4Z6OVSNVSKDWc8BB/2vCPdnmt/L92MCZxloLFDw2qLmjtZtHgbPkaK3a0yYz2RroMLFFZ1RFl8aqxSuWQT+J3Hitzrr5rjeX63a5ou3GIomx1BXEvh2m/sjg0iLrFMhJOeudO+RnGUqkqIF4Q2rN0BH5oUiUWhOw57i9pbblU8uCrJlMBmTMoFBfqZkSv84emdhnFEhDinmcFctc6NeT6Whcnmbccdk5Micj1EM1bipeSv4pWxMhlvhJspW+mHpPZ33WyY0eBBbkzdUP7EIF2w9BCRu9xQOXKQudoQlHm8b1gRSRIv9ZoRNmGaOYMg5ymvmtUAFNS1ZF0WSP2UjR1VS80rWGpkLwqCTOpUS6mjjQ65lJlwc50t4sK7/UtmNhcarTLkgwuyie61ZGvJYhcv+MvDtLRFZ25aaiss1ctMbGRLi+WA5SJ3RCaoAWVXsMe0SLWfwPdOnhCE8K6re0GPZGYmKW/Mdcdi3UFa+2Z/eDpvZqes2BLIigSYwqevrLvn/aVIZwtrwPu0FGcu/d0eVTpMzaAzfI32s1Le6GuMFfTB9+NCaPGQdMHzqlIcOOwpmhcXQUZDX7HlAD5BFIhetzNG5If6IJbtIFUNDUgRvLfRVLpDH1bnOr40L8/jaRSAIwtw7/WW0yioweqCvrizMeClMIuyFv4qG0mwQb0X1W5yYcNiCw0h+Vj+TGvPu+9AAFKpKUDWqByUqcZP348/intg9xdRtBZGeer2AmvZcWjoRzeTCCr+X1y8Y+xHO6BVYWOcmsNzEnjQFu/WqAk6X5z8Feh+NQ+iK2Y5zG3coHv94NQipVVHi929begnL+eoTG3+nUou8PqkKwsa1WKvkgCfJVR7efXofjJapM72WplSfYQtB9UjrjVr0NZhysr2earVSa9AZhaFoy41QRQjsCh0Jb71mJTzuskqVrQrpTeANuPN8J/mwBK6vEd2iiz36W2LrmorYWtmMxYg/aD+4b+uxe1KaDw4Qx9w442KKskO2fKgoMBUJ9TG/95/XsCKNbMUFp14gtidk+M2QS//vMvQ7F5o9JtaTceo6///QPNp1VHfvzT6b4dqiv/T6CswBwQaQ9KWnWggYPCCCG00u3PP/8YFGBpaatzcGNicDblCKQlFrMcKMB9a+2T71MijOgqqFKLMbSrM4DSkjFp34N0E0cIlgMF9Mloo7wmvltjMvEU8XKaDyyJ8i3RPVcOa3O8BxXlm1BgnVW5tOv7AkVzqqTBRkuFUiquCO5Wh00e7V8OlLQPSnG/wJs+DxZ8P2Y/lCg5FXnlRLpBcepYRPUGlLKn+ZT3cYCUwmIgTrBbohh1yHCvoXoJB4BSudfNp6u+jzhjt7XH9wXt9eqytqTDN6CEAIrUv8T3zlgeFbn8raCb37KA8fGs9fprTAvFg6bqNzJFmNSSl6syRM5KLB87b6Kfsn68SqSsvo6xTyeU5yMQeXlaCxQDi1A2TF5+cXtiquoo3oCSt3/j9at3KLiU3vchlKq+UNF9Hghln8sLdZpLc7myvAEFbAggVtSHQVElOn0MxWCeUC+HQYnl5ZmcTFMKzo+HsgdTpxTa8N1jCl6VEvc5FKlHGwTFIkx91UMMi1TGQ4lB60SwV3gYU2VATgcUwfexBkBJifoa/nKhdx4PBfTIwhz76QGMqnwALVAQGDkMgJJ46kt4mUJjHw/F4RuoCeZVo0cBkDJ5XwsUw+PtYn/zifrriSGifgMKbD0l/9Kj52FI6WnpgQKA90NxJXvCVNsOeaBfGw0lbp/3SR4vtWSTDoaCuBkuJG3AwFd1CIW95sWeUEKBmompkTu5tMsG7C1HQwEhJpgM2JRNPRAcCgWlh4es6icMhAbAB0ABFHZ9vu/wXFl2FDKiiZPcX9mnhpAWzMeFRkOBvjIP+OGitM66D4UiptL5EArmBhZ9kTchHc3le2pxydsHUOLWrJ3t8xXaMswaDEV8/xGaMe6ePVCglcVCsk0Js0o4QzAWSgEqCv9oz+bbmt70NhTYZM3r64WeeArInOff93iWtn50JBTozvI1vZl4p23ru96H0jop2QOF30WCmVKBtmCXCa6Cj4QCgtYA/vMV1hqDfB+KDyo6Z8e6oQCWWBFDB0/DjfdHQoE7ePBxg+cr7RutzA7lwjUP5fwuqPfc0GQclFLox16tx8IdN58MSreh5d9kyjlZKzjZyVjz61FQttCT4od9bufNwSVzQQF9j7oCg/bzGrCNgiL4h1wvFhP5dzNA6Ww+IBGNKjO84SVN0cdAEf1DrnRN88Xtb58bCqgGnrJI4INfTz8GigMDWJw9b/rjjtYzOxTghqBjtIseP7Xu/wKxodf7R0DZwNgvb1Kbl7pyceaGAgfIVCW491Pjvg2HshY21OLHwk0danPxJ4LSaWjH7vRsNtt9DIfiwHvwHuL2Gd3qTIGbG8qg8BL/RE3hB0MphYkT3kNsjLg65PYdKNv2aY0WNR88FEoshjr5oEHW9D1ducYz25T15FD24t6JlH+oZtMM0rUA9V+DshX3CmH8ODx63b6DydxQJm8+gTjFBqpE0yHLIYsvQllNDMURg+YwNN2YlE47++UuGfdrFBSJifkXvN6MNbE6K/BLUMD9WLLpVTNmHABFYsIQsKfbpshSBsTUUDqbDxiVdIzJFE/cB2WbSxNOBA7DX3ZWPRR9am4oILLbkS4vqw/K3pDSGMRE0FfUr3ud/9xQwIujloD2QPEVe5GLrvyrYVPx7UBzQwFDYFWItlXdUBRpDIyJZT696lLnreY2tMB7a4+nK9QFZXtVbV8szWA0Aaaetaezx2jBchM5B69dHVBipsiK8uTRTfMRPd/G7NF8EGZvdSwVFrgdylmV7SImndVqvhDWvf/o1DWFielTcGMGop578RULTdqg2EyV+kFU3tmrVLNDAcFAeXYF3FG9NV1CFF/0FQQyX1BcVUKhkgkHpbv5gCauBwrMv8NiP2HBcKNiN/es7kk8sWe6tEAJ5FielLApQek2tB35t+9CEeYXaAkdpa3gUNAL9C6tR3MgAk24oqkTCmmJICmLqxDgrweKGIdFOHCujnPNHy1FDBeaxNlEN3DrXcIdCOPB3CswHdQFxURtSyi5J+2EAjoDTVAysZXfj9ZrzIchysSUYMYIpRiMAsD4Hswxd0BBQevggfvoTjcfeph6oEi7Kj8+/QnFVkavFYfIUUCFf/p2KF2nCHBXde8+xbdwTVAU2Y8AyiobmnhJ+REd36u1QWFeV6CEK0v3Hhl8YpEuKLayqnAxDClo2CKU89Wcf0ENBQfdIYHm0u4gE+grdEER53IlKFt1XZLeAX0s++W5KqEwr2fz8/z1/p4Fa6fXw2mDslVNBPLRrrV0HoIsJm1IEzY1UAGF0aBvV5/XRHbvUDRvLtUGZXVUUIEhwKt6AdRLqnOuzs9qLUNBLYuxwdtfFbhvi7Nt8Hx8fVBWR0OqCkJcNPU6DQvOVeZh8zi0RoSCvNOAVbTcULV9O4inCqIdSv2tCrVFDBbvC/lYnocYZi1Zevv78UsACkNUvexQFOf/DUjEtd2b1yRA6d59pA/KKjpjcN64HEHfFdBbexaYuh0huX2aY8p5uwEdvLs/N0I3hxxeYheVOwkH7B7h9EeG8od72ZMTYlf1OdsnxyDeQ38UvsHecuqT2s3HMo7bIlxD2gdS+lx/87rkMvx8MD7sR4ctWvcP8ESj/ZqTYj4avP7B3tq+dXbcigcz3PxSTnrmJec1z31c4XLF+U/ds8n/T+LDD94HlfufEp8D/89u8TxWaxDi/nZpliJ+9DjLsZa/ID4moO3on18XjKn9V1XuApGe/6rKXXBLlfLbxVmGwMI0gyz5oIC3ZP/tv0YWGOZOv5XZvIocMmYv70ZweZSeU6IWovrY1VEbnDcSNp/QdMzaArQN66jde1DEoLqU7vSb2pb41gTehCJM1ZnvfcqyVCO528o3oYhTiujnYwj7kDbdx7tQYmHWFnesJvwBRRnhxy7vVnxxqu6XqcRXOCnyNpRIzJHTftj0XNq44sZwb0MRj7SU5md/Q8czGpBQPVziRxnI/bWe2XY81dz0B1BEW1unP/3S2aW7kMmV5FMoigwZ5pXayjyttodAnHzVA0WVV9ST3LIQ2VevpZJ8DkW1/55Jlj48jDOkmmfWBaVOYJaFgwWPD+OzKW1prBkKn6zEfSa5LPPE3PiM+ol8DmVVKNOGTBou7XTYdXIZRkQDFHkd5l2IDkkAmktR6hA8kIgOKCt5JeYTy3kRHdHWPrsEDcwkvTPBn0dCgrZ0RESv33bm/NLBPV2NXGwt4dW2ulLbFqP8WnXZWVdMx241U32TpZ7bdyVpIpofZu+Ltn56RXRUm7mJIayvhxD3NYV3wiSXD02dTHv75NR5gmOriFFvkFDq7B1Sr7MMDBG35XwNnVrHaYEIHt1kHt8d0+2Lx73mDGEahPZUwYWjXRbG/UCSt2SSYIJMgX3Ql/19a7LEvVi+VjJH28pyXNWP0RaEK5c3VT8ZDtiy3rgfyWIUp8T/0Pyud/EhLFz6QfV4IMFmOJ3Ji+Ws+Q4ymLDgcrLs3X6MrdlHfnIoz9eAVTQ+qR1PIohO0W54Zd32ViwQM1EFhxLkOkV2Kg+bJI5jfxcd93dFke9Xv0k2Vno6X66Ba9aLAWsWpmIJ3BsyMQpHrP9/U77bFbxppVMvkETosYH+fUtDct/Y8LmdfsWhPtRJB4nmrpgWM52CnuIR5yd8T5WTEBzmi7Ovs56zZL6vypC46czDj+jautxmAaodyXJ6QyLLd7oXZ31NJiZB+g0iN+2K9hmEb8nE1Jl/cAq0P6N+H3c2VY3GyKYfffVre5Cmrr+ienThpL3rHWeTn40OfGkHUo1Dvx0AFLVNruRLXNi0A/PPtN6MiqXrAkLy00KBPLS1L8Yb4cG3cJi3AEW64GlKTrfI+rRgah7mddp1pfpVg6mbkva2VEdpvKp+/BiPRlFyDhDVVWfMGgd2i1OyW4AX8pkiuyxcSur29Fa1eYZiDOec2tHP4+B1jK1TERjeLYp2Cx21EbqtzDfvJCihbl6E6ccRzUVre/TtTRlm17/BzbkghD9Bo/pfPWvhBk5xPqUb248W3dFOo+16vT9G0e6u43G/Xi+9efwPs6XuIxBCFQUAAAAASUVORK5CYII=;fillColor=none;" parent="1" vertex="1">
                    <mxGeometry x="6008" y="938.98" width="28.31" height="18.77" as="geometry"/>
                </mxCell>
                <mxCell id="08zl2Wz16HbDXzCnhwST-98" value="" style="shape=image;verticalLabelPosition=bottom;labelBackgroundColor=default;verticalAlign=top;aspect=fixed;imageAspect=0;image=data:image/png,iVBORw0KGgoAAAANSUhEUgAAASwAAACoCAMAAABt9SM9AAAAtFBMVEX///8AAAB2uQCdnZ1ytwB+fn7n5+en0HZrtACm0GuayllvtgCFhYXR0dGmpqZtbW0TExOvr6+/3JwYGBi6urqWlpZDQ0Pv7+/d3d2w1X9RUVF3d3f8/veIwjP5+fmsrKz3++7s9d4zMzPj8M/JycnU6LfX6b9ISEidzF7z+elaWlqXyU+32Yk8PDyZmZksLCy93JOAviDh78vN5KyQxkNjY2Ojz2hubm6Sx0gkJCSEwCqz14VpYjZMAAAI2klEQVR4nO2b7VbiPBRGa40SDOqIKKJFy1RQBh35cBwG7/++3jZfpKXQPB3Wcs16z/5F06S0m+TkNC1BQPhy+NUn8C9BsgBIFgDJAiBZACQLgGQBkCwAkgVAsgBIFgDJAiBZACQLgGQBkCwAkgVAsgBIFgDJAiBZACQLgGQBkCwAkgVAsgBIFgDJAiBZACQLgGQBkCwAkgVAsgBIFgDJAiBZACQLgGQBkCwAkgVAsgBIFgDJAiBZACQLgGQBkCwAkgVAsgBIFgDJAiBZACQLgGQBkCwAkgVAsgBIFgDJAqgtazg58WQy3ecJfyW1ZbU580Q09nnCX0l9WSL0hJEskgVAsgDanHMhGCNZFUSDYbvXXizaL88rxkWFsP+zrEF7Eqa9qqc341Fvxnfq+t/Kitt91ZNEzymdf4gdEcyVdX9a4Pj43j3+sSH/taa0W/gc3B/n6N4HBbrlBwycRhtttgLJGjRF1olYGq3C5mg0msdmz7i3fTC6sk4PNvn24+rU7H8zhQ/u9z6a0rN0w3w+kqe/cbCnu4uu0/SX2ZG/Evc8jryvH5A1+EgdpabC50USyQDP+aw50nvHH9sGY5WsjO8dfTqm4If7zXemNNNgPreyPWelR/t1Y5ueG4n5azl3q3t3LW9ZcVN1qskoktsqdWCpu5dY1ZjPyseijyxj59huu999qcueAj9ZBwdXu2V1c5Uv9i2rLWSveh7Ygux2R8oQwtz8NXl9WQevssKr2XxcN7oxZQ/esg7Od8rKN3vdr6xBP9PAV4ktiV/6y2WWN2Q6+EzvWJQNRU9ZB7+yCj9zLhS2rOsvy0Sicllv+bo3gR9esqbSAX8xoobNmUodonkvzHQxrjtXEm7a8pUlO5Mdh2/rRqa3XQeALN01S2WZszDD2zfEe8iKTriMTjqUJx8sHYE2dYimch7kz2pzPNuw5S3rNqthf3Q72dsAc7ZD1kPK2dUP52h/tsv6rQvt2XiG+GpZieo7oYpWgxMZ5wVf51njZSZTvKvAH2/YKpV1phOgm4vv6+vLhtmVvXzT5sLdvU2Wrnv/sD7a4zZZ9/bHedKfPEN8payhHIIsHMutF6Vq2R72pnNbpydt9dVGVLRVKss5vZa9vCx/sNHcJg+mu+g4XC7L9o3uH1P0e5ss06hjf4fr/ciaqgmOSVexivNySkzzrJnVNc06n5iojbFPz3J/S/P7qthhL9Zcv9k+9JJVyD7KZL3ZNqaPeYb4ClmRciXkbDeQ0Zsv5J40z2J8qKsNZGfiOq/oM0yWLZTzoe1oOq236fuxn6zgyG1QIsv03Ttnt1+Ir+pZPZUbSFkrKUFnCTIp1XqGqlJb7ZkUctNKWfb6X91rMcmDufbvhcpbZdkDdMplmfuB7Mewv8ReZI1l12LN7LMcbGHgyGIyTqmhyhvlrjxk3epClS5c5raCb3rzp68sW+OhVJYZen9ydb1CfGWAb8prF3H6MZYRa+jIkr1J5e0md9hw5SHLdJ5LuWXHoRx3N7ktL1km6l2VyjJB/TD3ZV5ZfKUs1bVUWtUQpjPZZWU2eFfWTmRppF0xSJZJFy7zdWTyYG6tzSj0kGWSkaNSWWavSkTsb+ET4qvzrBdlK5sOY5EL8EqFiu0fsjDuq1LeCEVtWVaHTB6unW6yD1k37sGdys7t1V/ICmQ3YXKUtWUuH7uylJxPWVNNl3KWjBv2NhGWZaezwEnf7S9fLctEudJhaA6u14Q20tq/lDVXMUne7SyZGYiOLCZUHBuqBUCmJkyV69eRZaeoNAfv6I/rW8VKWbnbow1ZRTe2tkeI97mRbigv2e1MlPUdeWdjZTG+VNm9XqDh77FuN+/zWrJcH+Zi7SislmX8lqYOFxvHM2upHlm816qDTLCYTNDHmS02S2yA56HqVole+tMjUtFmtWSZTOjPWs06/lbKunbbFGWZFYzXa83Tm1t9D7LGKojLGXG8UquADZEtK7OJUhXpECXCkdtwXq9nrZP208IeD1nrW+lgU5ad/EqozuL9Fv8SFbbUgpZcX+a9OBmOErXSEE315MdPYrdZr+YwXKeKJg1y5qoKWesVLjnfFWTZuaOMSg2ey8oj11byzoXzKGz8olWJcOi2GeqBWUOWWXA6N6PmdF25XJba1+3YMai/oiBrl6vqEO+7Bq9tqXQqGHyulIEoaS+5ViVeIqdBsjS5Qw1ZncJluGsG5bJuU75/yzW635RVPG6ep33JChKZfYqVeWLRDvv995l5eM+E+Iyd2vPJejW+hqxiD3AzxnJZm6h7ybwssxjU6rjY9dWqEO//3FBG9jS0N5SUtmDm8Q4TfDZ1VEWLvvvgoo4s+2xU4YxCX1m6m+Rk2fDuPoZ1+lt2yO7d+dG2VWbkibSa8YRoJIFZdWCpKL7qJU6tpBfmn/HUkVUYL25lP1m3QYmsVmFn8ZDZ9zw9tDrF/Qbo8X2yUmvMfNZc9DIPs/fn6XDs1BhMVxxfotmUZZcwJblJ3UuWHbc5WaVfHjhPvDvB6c/D21ar+GaEBnwxZKHfmGFp0hVFUW5fNP9clb1/VCor9y6DfUixLjJLXBJ3FObfdSiV9e1o8/F9dmj75KM4zGxe9xrctA5fH8+7QSnwK0fDieBprGK9XGk2K4Zb3tRyZR3fHUnuctff0aVOHH/URZLcV5kjXGxUy7g67OS6xZlz6EP9+WdQxLT+3Q3OWze/tqWnNV5mixcfM2YfhUXxfNHs73ql7R97P+viqLNtV83XJOPB50mj0XxerkLOK16W/Mdk7eCv34PfpYlkaehtZQCSBeD/dxROsoYfTU8+2vs84a+E/kIHQLIASBYAyQIgWQAkC4BkAZAsAJIFQLIASBYAyQIgWQAkC4BkAZAsAJIFQLIASBYAyQIgWQAkC4BkAZAsAJIFQLIASBYAyQIgWQAkC4BkAZAsAJIFQLIASBYAyQIgWQAkC4BkAZAsAJIFQLIASBYAyQIgWQAkC4BkAZAsAJIFQLIASBYAyQIgWQAkC4BkAZAsAJIFQLIASBYAyQIgWQCH/wFArIye7hP3rwAAAABJRU5ErkJggg==;fillColor=none;" parent="1" vertex="1">
                    <mxGeometry x="5899.5" y="935.23" width="47.8" height="26.77" as="geometry"/>
                </mxCell>
                <mxCell id="08zl2Wz16HbDXzCnhwST-112" value="&lt;b&gt;DataContainer&lt;/b&gt;" style="text;html=1;strokeColor=none;fillColor=none;align=center;verticalAlign=middle;whiteSpace=wrap;rounded=0;" parent="1" vertex="1">
                    <mxGeometry x="5963.16" y="712" width="60" height="30" as="geometry"/>
                </mxCell>
                <mxCell id="08zl2Wz16HbDXzCnhwST-113" value="Tensor" style="rounded=1;whiteSpace=wrap;html=1;glass=0;shadow=1;sketch=0;" parent="1" vertex="1">
                    <mxGeometry x="5892.25" y="752.73" width="92" height="20" as="geometry"/>
                </mxCell>
                <mxCell id="08zl2Wz16HbDXzCnhwST-114" value="Mat" style="rounded=1;whiteSpace=wrap;html=1;glass=0;shadow=1;sketch=0;" parent="1" vertex="1">
                    <mxGeometry x="5991" y="753.73" width="92" height="20" as="geometry"/>
                </mxCell>
                <mxCell id="08zl2Wz16HbDXzCnhwST-115" value="Buffer" style="rounded=1;whiteSpace=wrap;html=1;glass=0;shadow=1;sketch=0;" parent="1" vertex="1">
                    <mxGeometry x="5891.25" y="793.73" width="92" height="20" as="geometry"/>
                </mxCell>
                <mxCell id="08zl2Wz16HbDXzCnhwST-116" value="..." style="rounded=1;whiteSpace=wrap;html=1;glass=0;shadow=1;sketch=0;" parent="1" vertex="1">
                    <mxGeometry x="5991" y="793.73" width="92" height="20" as="geometry"/>
                </mxCell>
                <mxCell id="08zl2Wz16HbDXzCnhwST-119" value="&lt;b&gt;&lt;font style=&quot;font-size: 14px&quot;&gt;&lt;br&gt;&lt;/font&gt;&lt;/b&gt;" style="rounded=1;whiteSpace=wrap;html=1;arcSize=8;fillColor=#d5e8d4;strokeColor=#82b366;gradientColor=#97d077;" parent="1" vertex="1">
                    <mxGeometry x="6301" y="711.77" width="300" height="33.23" as="geometry"/>
                </mxCell>
                <mxCell id="08zl2Wz16HbDXzCnhwST-120" value="OpenVINO" style="rounded=1;whiteSpace=wrap;html=1;glass=0;shadow=1;sketch=0;fillColor=#d5e8d4;strokeColor=#82b366;" parent="1" vertex="1">
                    <mxGeometry x="6405.25" y="756.5" width="92" height="20" as="geometry"/>
                </mxCell>
                <mxCell id="08zl2Wz16HbDXzCnhwST-121" value="CoreML" style="rounded=1;whiteSpace=wrap;html=1;glass=0;shadow=1;sketch=0;fillColor=#d5e8d4;strokeColor=#82b366;" parent="1" vertex="1">
                    <mxGeometry x="6303.75" y="787.5" width="92" height="20" as="geometry"/>
                </mxCell>
                <mxCell id="08zl2Wz16HbDXzCnhwST-122" value="TensorRT" style="rounded=1;whiteSpace=wrap;html=1;glass=0;shadow=1;sketch=0;fillColor=#d5e8d4;strokeColor=#82b366;" parent="1" vertex="1">
                    <mxGeometry x="6303.25" y="756.5" width="92" height="20" as="geometry"/>
                </mxCell>
                <mxCell id="08zl2Wz16HbDXzCnhwST-124" value="ONNXRuntime" style="rounded=1;whiteSpace=wrap;html=1;glass=0;shadow=1;sketch=0;fillColor=#d5e8d4;strokeColor=#82b366;" parent="1" vertex="1">
                    <mxGeometry x="6506.75" y="756.5" width="92" height="20" as="geometry"/>
                </mxCell>
                <mxCell id="08zl2Wz16HbDXzCnhwST-127" value="TNN" style="rounded=1;whiteSpace=wrap;html=1;glass=0;shadow=1;sketch=0;fillColor=#d5e8d4;strokeColor=#82b366;" parent="1" vertex="1">
                    <mxGeometry x="6405.25" y="818.77" width="92" height="20" as="geometry"/>
                </mxCell>
                <mxCell id="08zl2Wz16HbDXzCnhwST-128" value="TFLITE" style="rounded=1;whiteSpace=wrap;html=1;glass=0;shadow=1;sketch=0;fillColor=#d5e8d4;strokeColor=#82b366;" parent="1" vertex="1">
                    <mxGeometry x="6405.25" y="786.23" width="92" height="20" as="geometry"/>
                </mxCell>
                <mxCell id="08zl2Wz16HbDXzCnhwST-129" value="NCNN" style="rounded=1;whiteSpace=wrap;html=1;glass=0;shadow=1;sketch=0;fillColor=#d5e8d4;strokeColor=#82b366;" parent="1" vertex="1">
                    <mxGeometry x="6506.75" y="787.5" width="92" height="20" as="geometry"/>
                </mxCell>
                <mxCell id="08zl2Wz16HbDXzCnhwST-130" value="&lt;b&gt;...&lt;/b&gt;" style="rounded=1;whiteSpace=wrap;html=1;glass=0;shadow=1;sketch=0;fillColor=#d5e8d4;strokeColor=#82b366;" parent="1" vertex="1">
                    <mxGeometry x="6506.75" y="849.77" width="92" height="20" as="geometry"/>
                </mxCell>
                <mxCell id="08zl2Wz16HbDXzCnhwST-133" value="MNN" style="rounded=1;whiteSpace=wrap;html=1;glass=0;shadow=1;sketch=0;fillColor=#d5e8d4;strokeColor=#82b366;" parent="1" vertex="1">
                    <mxGeometry x="6303.75" y="818.77" width="92" height="20" as="geometry"/>
                </mxCell>
                <mxCell id="08zl2Wz16HbDXzCnhwST-138" value="&lt;b&gt;Inference&lt;/b&gt;" style="text;html=1;strokeColor=none;fillColor=none;align=center;verticalAlign=middle;whiteSpace=wrap;rounded=0;" parent="1" vertex="1">
                    <mxGeometry x="6405.25" y="712" width="114" height="30" as="geometry"/>
                </mxCell>
                <mxCell id="08zl2Wz16HbDXzCnhwST-139" value="&lt;font style=&quot;font-size: 14px&quot;&gt;&lt;b&gt;&lt;br&gt;&lt;/b&gt;&lt;/font&gt;" style="rounded=1;whiteSpace=wrap;html=1;arcSize=8;fillColor=#ffcd28;strokeColor=#d79b00;gradientColor=#ffa500;" parent="1" vertex="1">
                    <mxGeometry x="6091.75" y="712" width="200.25" height="123" as="geometry"/>
                </mxCell>
                <mxCell id="08zl2Wz16HbDXzCnhwST-140" value="&lt;b&gt;OP&lt;/b&gt;" style="text;html=1;strokeColor=none;fillColor=none;align=center;verticalAlign=middle;whiteSpace=wrap;rounded=0;" parent="1" vertex="1">
                    <mxGeometry x="6155.849999999999" y="711.77" width="60" height="30" as="geometry"/>
                </mxCell>
                <mxCell id="08zl2Wz16HbDXzCnhwST-142" value="NN" style="rounded=1;whiteSpace=wrap;html=1;glass=0;shadow=1;sketch=0;" parent="1" vertex="1">
                    <mxGeometry x="6096.53" y="745" width="92" height="20" as="geometry"/>
                </mxCell>
                <mxCell id="08zl2Wz16HbDXzCnhwST-144" value="CV" style="rounded=1;whiteSpace=wrap;html=1;glass=0;shadow=1;sketch=0;" parent="1" vertex="1">
                    <mxGeometry x="6096.75" y="776.5" width="92" height="20" as="geometry"/>
                </mxCell>
                <mxCell id="08zl2Wz16HbDXzCnhwST-145" value="AUDIO" style="rounded=1;whiteSpace=wrap;html=1;glass=0;shadow=1;sketch=0;" parent="1" vertex="1">
                    <mxGeometry x="6096.75" y="805.5" width="92" height="20" as="geometry"/>
                </mxCell>
                <mxCell id="08zl2Wz16HbDXzCnhwST-151" value="&lt;b&gt;&lt;br&gt;&lt;/b&gt;" style="rounded=1;whiteSpace=wrap;html=1;arcSize=8;fillColor=#dae8fc;strokeColor=#6c8ebf;" parent="1" vertex="1">
                    <mxGeometry x="6095.25" y="609.35" width="193.25" height="91.65" as="geometry"/>
                </mxCell>
                <mxCell id="08zl2Wz16HbDXzCnhwST-157" value="&lt;b&gt;&lt;br&gt;&lt;/b&gt;" style="rounded=1;whiteSpace=wrap;html=1;arcSize=8;fillColor=#dae8fc;strokeColor=#6c8ebf;" parent="1" vertex="1">
                    <mxGeometry x="5887.5" y="609" width="198" height="92" as="geometry"/>
                </mxCell>
                <mxCell id="08zl2Wz16HbDXzCnhwST-165" value="&lt;b&gt;&lt;font&gt;&lt;font style=&quot;font-size: 12px&quot;&gt;Resouce Pool&lt;/font&gt;&lt;br&gt;&lt;/font&gt;&lt;/b&gt;" style="text;html=1;strokeColor=none;fillColor=none;align=center;verticalAlign=middle;whiteSpace=wrap;rounded=0;shadow=0;glass=0;sketch=0;" parent="1" vertex="1">
                    <mxGeometry x="6298.5" y="603" width="104.75" height="35" as="geometry"/>
                </mxCell>
                <mxCell id="08zl2Wz16HbDXzCnhwST-166" value="&lt;b&gt;&lt;font&gt;&lt;font style=&quot;font-size: 12px&quot;&gt;Directed Acyclic Graph&lt;/font&gt;&lt;br&gt;&lt;/font&gt;&lt;/b&gt;" style="text;html=1;strokeColor=none;fillColor=none;align=center;verticalAlign=middle;whiteSpace=wrap;rounded=0;shadow=0;glass=0;sketch=0;" parent="1" vertex="1">
                    <mxGeometry x="6110" y="605" width="175" height="30" as="geometry"/>
                </mxCell>
                <mxCell id="08zl2Wz16HbDXzCnhwST-167" value="&lt;b&gt;&lt;font&gt;&lt;font style=&quot;font-size: 12px&quot;&gt;Process Template&lt;/font&gt;&lt;br&gt;&lt;/font&gt;&lt;/b&gt;" style="text;html=1;strokeColor=none;fillColor=none;align=center;verticalAlign=middle;whiteSpace=wrap;rounded=0;shadow=0;glass=0;sketch=0;" parent="1" vertex="1">
                    <mxGeometry x="5886.5" y="605" width="200" height="30" as="geometry"/>
                </mxCell>
                <mxCell id="08zl2Wz16HbDXzCnhwST-173" value="Image Segmentation" style="rounded=1;whiteSpace=wrap;html=1;sketch=0;shadow=1;strokeColor=#8F8F8F;align=center;" parent="1" vertex="1">
                    <mxGeometry x="5925.29" y="564.03" width="170" height="15" as="geometry"/>
                </mxCell>
                <mxCell id="08zl2Wz16HbDXzCnhwST-174" value="Object Detection" style="rounded=1;whiteSpace=wrap;html=1;sketch=0;shadow=1;strokeColor=#8F8F8F;align=center;" parent="1" vertex="1">
                    <mxGeometry x="5925.29" y="523.77" width="170" height="15" as="geometry"/>
                </mxCell>
                <mxCell id="08zl2Wz16HbDXzCnhwST-175" value="Image Classification" style="rounded=1;whiteSpace=wrap;html=1;sketch=0;shadow=1;strokeColor=#8F8F8F;align=center;" parent="1" vertex="1">
                    <mxGeometry x="5925.29" y="502.9" width="170" height="15" as="geometry"/>
                </mxCell>
                <mxCell id="08zl2Wz16HbDXzCnhwST-177" value="..." style="rounded=1;whiteSpace=wrap;html=1;sketch=0;shadow=1;strokeColor=#8F8F8F;align=center;" parent="1" vertex="1">
                    <mxGeometry x="5925.29" y="544.03" width="170" height="15" as="geometry"/>
                </mxCell>
                <mxCell id="08zl2Wz16HbDXzCnhwST-149" value="Memory Pool" style="rounded=1;whiteSpace=wrap;html=1;" parent="1" vertex="1">
                    <mxGeometry x="6308.75" y="663" width="82.25" height="30" as="geometry"/>
                </mxCell>
                <mxCell id="08zl2Wz16HbDXzCnhwST-150" value="Thread Pool" style="rounded=1;whiteSpace=wrap;html=1;" parent="1" vertex="1">
                    <mxGeometry x="6308.25" y="630" width="82.75" height="30" as="geometry"/>
                </mxCell>
                <mxCell id="08zl2Wz16HbDXzCnhwST-152" value="Node" style="rounded=1;whiteSpace=wrap;html=1;" parent="1" vertex="1">
                    <mxGeometry x="6198" y="630" width="80" height="30" as="geometry"/>
                </mxCell>
                <mxCell id="08zl2Wz16HbDXzCnhwST-153" value="Edge" style="rounded=1;whiteSpace=wrap;html=1;" parent="1" vertex="1">
                    <mxGeometry x="6102.53" y="664" width="80" height="30" as="geometry"/>
                </mxCell>
                <mxCell id="08zl2Wz16HbDXzCnhwST-154" value="Graph" style="rounded=1;whiteSpace=wrap;html=1;" parent="1" vertex="1">
                    <mxGeometry x="6102.53" y="630" width="80" height="30" as="geometry"/>
                </mxCell>
                <mxCell id="08zl2Wz16HbDXzCnhwST-156" value="&lt;b&gt;...&lt;/b&gt;" style="rounded=1;whiteSpace=wrap;html=1;" parent="1" vertex="1">
                    <mxGeometry x="6198" y="664" width="80" height="30" as="geometry"/>
                </mxCell>
                <mxCell id="08zl2Wz16HbDXzCnhwST-158" value="Infer" style="rounded=1;whiteSpace=wrap;html=1;" parent="1" vertex="1">
                    <mxGeometry x="5997.84" y="632" width="80" height="30" as="geometry"/>
                </mxCell>
                <mxCell id="08zl2Wz16HbDXzCnhwST-159" value="Postprocess" style="rounded=1;whiteSpace=wrap;html=1;" parent="1" vertex="1">
                    <mxGeometry x="5896" y="664" width="80" height="30" as="geometry"/>
                </mxCell>
                <mxCell id="08zl2Wz16HbDXzCnhwST-160" value="Preprocess" style="rounded=1;whiteSpace=wrap;html=1;" parent="1" vertex="1">
                    <mxGeometry x="5896" y="632" width="80" height="30" as="geometry"/>
                </mxCell>
                <mxCell id="08zl2Wz16HbDXzCnhwST-161" value="&lt;b&gt;...&lt;/b&gt;" style="rounded=1;whiteSpace=wrap;html=1;" parent="1" vertex="1">
                    <mxGeometry x="5997.84" y="664" width="80" height="30" as="geometry"/>
                </mxCell>
                <mxCell id="hj8YDBDI5wyhvHGkBoU7-2" value="&lt;b&gt;Device Manager&lt;/b&gt;" style="rounded=1;whiteSpace=wrap;html=1;arcSize=8;fillColor=#f8cecc;strokeColor=#b85450;gradientColor=#ea6b66;" parent="1" vertex="1">
                    <mxGeometry x="5890" y="841.77" width="402" height="34" as="geometry"/>
                </mxCell>
                <mxCell id="hj8YDBDI5wyhvHGkBoU7-3" value="RKNN" style="rounded=1;whiteSpace=wrap;html=1;glass=0;shadow=1;sketch=0;fillColor=#d5e8d4;strokeColor=#82b366;" parent="1" vertex="1">
                    <mxGeometry x="6405.25" y="849.77" width="92" height="20" as="geometry"/>
                </mxCell>
                <mxCell id="hj8YDBDI5wyhvHGkBoU7-4" value="Paddle-lite" style="rounded=1;whiteSpace=wrap;html=1;glass=0;shadow=1;sketch=0;fillColor=#d5e8d4;strokeColor=#82b366;" parent="1" vertex="1">
                    <mxGeometry x="6506.75" y="817.77" width="92" height="20" as="geometry"/>
                </mxCell>
                <mxCell id="hj8YDBDI5wyhvHGkBoU7-5" value="OpenPPL" style="rounded=1;whiteSpace=wrap;html=1;glass=0;shadow=1;sketch=0;fillColor=#d5e8d4;strokeColor=#82b366;" parent="1" vertex="1">
                    <mxGeometry x="6303.75" y="849.77" width="92" height="20" as="geometry"/>
                </mxCell>
                <mxCell id="1AGhxPWf7ZvOHqWeiri_-5" value="&lt;b&gt;&lt;br&gt;&lt;/b&gt;" style="rounded=1;whiteSpace=wrap;html=1;arcSize=8;fillColor=#dae8fc;strokeColor=#6c8ebf;" parent="1" vertex="1">
                    <mxGeometry x="6413" y="610.38" width="190" height="89.62" as="geometry"/>
                </mxCell>
                <mxCell id="1AGhxPWf7ZvOHqWeiri_-7" value="&lt;b&gt;Parallel&lt;/b&gt;" style="text;html=1;strokeColor=none;fillColor=none;align=center;verticalAlign=middle;whiteSpace=wrap;rounded=0;shadow=0;glass=0;sketch=0;" parent="1" vertex="1">
                    <mxGeometry x="6413" y="604" width="190" height="30" as="geometry"/>
                </mxCell>
                <mxCell id="1AGhxPWf7ZvOHqWeiri_-8" value="Pipeline" style="rounded=1;whiteSpace=wrap;html=1;" parent="1" vertex="1">
                    <mxGeometry x="6422.53" y="630" width="80" height="30" as="geometry"/>
                </mxCell>
                <mxCell id="1AGhxPWf7ZvOHqWeiri_-9" value="Task" style="rounded=1;whiteSpace=wrap;html=1;" parent="1" vertex="1">
                    <mxGeometry x="6512.75" y="630" width="80" height="30" as="geometry"/>
                </mxCell>
                <mxCell id="1AGhxPWf7ZvOHqWeiri_-10" value="Adaptive" style="rounded=1;whiteSpace=wrap;html=1;" parent="1" vertex="1">
                    <mxGeometry x="6422.53" y="663" width="80" height="30" as="geometry"/>
                </mxCell>
                <mxCell id="1AGhxPWf7ZvOHqWeiri_-11" value="&lt;b&gt;...&lt;/b&gt;" style="rounded=1;whiteSpace=wrap;html=1;" parent="1" vertex="1">
                    <mxGeometry x="6512.75" y="663" width="80" height="30" as="geometry"/>
                </mxCell>
                <mxCell id="J-cF5w1TuShEjrgGfDrh-2" value="OpenCV" style="rounded=1;whiteSpace=wrap;html=1;glass=0;shadow=1;sketch=0;" parent="1" vertex="1">
                    <mxGeometry x="6194.71" y="745" width="92" height="20" as="geometry"/>
                </mxCell>
                <mxCell id="J-cF5w1TuShEjrgGfDrh-3" value="CV-CUDA" style="rounded=1;whiteSpace=wrap;html=1;glass=0;shadow=1;sketch=0;" parent="1" vertex="1">
                    <mxGeometry x="6194.71" y="776.5" width="92" height="20" as="geometry"/>
                </mxCell>
                <mxCell id="J-cF5w1TuShEjrgGfDrh-4" value="..." style="rounded=1;whiteSpace=wrap;html=1;glass=0;shadow=1;sketch=0;" parent="1" vertex="1">
                    <mxGeometry x="6194.71" y="805.5" width="92" height="20" as="geometry"/>
                </mxCell>
                <mxCell id="Y8qZJC03_dcixNUR7gRR-1" value="&lt;b&gt;...&lt;/b&gt;" style="rounded=1;whiteSpace=wrap;html=1;strokeColor=none;" parent="1" vertex="1">
                    <mxGeometry x="6540" y="904.23" width="48" height="21.27" as="geometry"/>
                </mxCell>
                <mxCell id="Y8qZJC03_dcixNUR7gRR-17" value="" style="shape=curlyBracket;whiteSpace=wrap;html=1;rounded=1;shadow=0;glass=0;sketch=0;fontSize=12;strokeColor=#BABABA;fillColor=none;" parent="1" vertex="1">
                    <mxGeometry x="5857" y="495" width="20" height="93" as="geometry"/>
                </mxCell>
                <mxCell id="Y8qZJC03_dcixNUR7gRR-19" value="&lt;font style=&quot;font-size: 12px;&quot;&gt;AI&lt;/font&gt;" style="text;html=1;strokeColor=default;fillColor=none;align=center;verticalAlign=middle;whiteSpace=wrap;rounded=0;strokeWidth=0.5;" parent="1" vertex="1">
                    <mxGeometry x="5793" y="526.5" width="60" height="30" as="geometry"/>
                </mxCell>
                <mxCell id="Y8qZJC03_dcixNUR7gRR-20" value="" style="shape=curlyBracket;whiteSpace=wrap;html=1;rounded=1;shadow=0;glass=0;sketch=0;fontSize=12;strokeColor=#A680B8;fillColor=none;" parent="1" vertex="1">
                    <mxGeometry x="5856.5" y="599" width="20" height="286" as="geometry"/>
                </mxCell>
                <mxCell id="Y8qZJC03_dcixNUR7gRR-21" value="" style="shape=curlyBracket;whiteSpace=wrap;html=1;rounded=1;shadow=0;glass=0;sketch=0;fontSize=12;strokeColor=#BABABA;fillColor=none;" parent="1" vertex="1">
                    <mxGeometry x="5856.5" y="894" width="20" height="75" as="geometry"/>
                </mxCell>
                <mxCell id="Y8qZJC03_dcixNUR7gRR-23" value="&lt;font style=&quot;font-size: 12px;&quot;&gt;nndeploy&lt;/font&gt;" style="text;html=1;strokeColor=default;fillColor=none;align=center;verticalAlign=middle;whiteSpace=wrap;rounded=0;strokeWidth=0.5;" parent="1" vertex="1">
                    <mxGeometry x="5793" y="728" width="60" height="30" as="geometry"/>
                </mxCell>
                <mxCell id="Y8qZJC03_dcixNUR7gRR-24" value="&lt;font style=&quot;font-size: 12px;&quot;&gt;Env&lt;/font&gt;" style="text;html=1;strokeColor=default;fillColor=none;align=center;verticalAlign=middle;whiteSpace=wrap;rounded=0;strokeWidth=0.5;" parent="1" vertex="1">
                    <mxGeometry x="5793.5" y="917.5" width="60" height="30" as="geometry"/>
                </mxCell>
                <mxCell id="NBhH2FtDzweVXHM-JbC3-12" value="&lt;b&gt;AIGC&amp;nbsp;&lt;/b&gt;" style="rounded=1;whiteSpace=wrap;html=1;shadow=0;strokeColor=#333333;align=left;glass=0;arcSize=8;dashed=1;strokeWidth=0.2;" parent="1" vertex="1">
                    <mxGeometry x="6392" y="497.9" width="210" height="88" as="geometry"/>
                </mxCell>
                <mxCell id="NBhH2FtDzweVXHM-JbC3-13" value="Text Generation" style="rounded=1;whiteSpace=wrap;html=1;sketch=0;shadow=1;strokeColor=#8F8F8F;" parent="1" vertex="1">
                    <mxGeometry x="6426.29" y="564.03" width="170" height="15" as="geometry"/>
                </mxCell>
                <mxCell id="NBhH2FtDzweVXHM-JbC3-14" value="Image to Text" style="rounded=1;whiteSpace=wrap;html=1;sketch=0;shadow=1;strokeColor=#8F8F8F;" parent="1" vertex="1">
                    <mxGeometry x="6426.29" y="523.77" width="170" height="15" as="geometry"/>
                </mxCell>
                <mxCell id="NBhH2FtDzweVXHM-JbC3-15" value="Text to Image" style="rounded=1;whiteSpace=wrap;html=1;sketch=0;shadow=1;strokeColor=#8F8F8F;" parent="1" vertex="1">
                    <mxGeometry x="6426.29" y="502.9" width="170" height="15" as="geometry"/>
                </mxCell>
                <mxCell id="NBhH2FtDzweVXHM-JbC3-16" value="..." style="rounded=1;whiteSpace=wrap;html=1;sketch=0;shadow=1;strokeColor=#8F8F8F;" parent="1" vertex="1">
                    <mxGeometry x="6426.29" y="544.03" width="170" height="15" as="geometry"/>
                </mxCell>
                <mxCell id="NBhH2FtDzweVXHM-JbC3-17" value="&lt;b&gt;&amp;nbsp;NLP&lt;/b&gt;" style="rounded=1;whiteSpace=wrap;html=1;shadow=0;strokeColor=#333333;align=left;glass=0;arcSize=8;dashed=1;strokeWidth=0.2;" parent="1" vertex="1">
                    <mxGeometry x="6136.71" y="498.5" width="210" height="88" as="geometry"/>
                </mxCell>
                <mxCell id="NBhH2FtDzweVXHM-JbC3-18" value="Translation" style="rounded=1;whiteSpace=wrap;html=1;sketch=0;shadow=1;strokeColor=#8F8F8F;" parent="1" vertex="1">
                    <mxGeometry x="6171" y="564.63" width="170" height="15" as="geometry"/>
                </mxCell>
                <mxCell id="NBhH2FtDzweVXHM-JbC3-19" value="Question Answering" style="rounded=1;whiteSpace=wrap;html=1;sketch=0;shadow=1;strokeColor=#8F8F8F;" parent="1" vertex="1">
                    <mxGeometry x="6171" y="524.37" width="170" height="15" as="geometry"/>
                </mxCell>
                <mxCell id="NBhH2FtDzweVXHM-JbC3-20" value="Text Classification" style="rounded=1;whiteSpace=wrap;html=1;sketch=0;shadow=1;strokeColor=#8F8F8F;" parent="1" vertex="1">
                    <mxGeometry x="6171" y="503.5" width="170" height="15" as="geometry"/>
                </mxCell>
                <mxCell id="NBhH2FtDzweVXHM-JbC3-21" value="..." style="rounded=1;whiteSpace=wrap;html=1;sketch=0;shadow=1;strokeColor=#8F8F8F;" parent="1" vertex="1">
                    <mxGeometry x="6171" y="544.63" width="170" height="15" as="geometry"/>
                </mxCell>
                <mxCell id="NBhH2FtDzweVXHM-JbC3-22" value="" style="shape=image;verticalLabelPosition=bottom;labelBackgroundColor=default;verticalAlign=top;aspect=fixed;imageAspect=0;image=data:image/png,iVBORw0KGgoAAAANSUhEUgAAAHAAAAAbCAYAAACk0wvSAAAN/UlEQVRoge2aeXBd1X3HP+fcd+/b9J721cL7Etky3mQwocYudoIBs5akQClOSMnUpRMGQtsMbULoJIROGBJIcGnIJEAgAcIWjGvAsQFZjrd4tyxbqmxLsqWn7elJb393Of3jyYvsJ0OHqRkGf/95M++ce37n/L6/89vuFUopxQV8ZiE/7Q1cwCfDBQI/47hA4GccFwj8jMP1cScqwDQV8YRFMuWglMIwJD6vhtcjkQJA/L9t9FxIpR1sG3QdDP3zZZMfi8BkymFPU5TNe+Ic7bTpGzAxTYeCoE5VmYtZU90srAtSUqRzvkm0bYdfvhqiu18xd7rOTUvLzqv8TxsfQaBiYNDkl6/2sH5rit6wg0LDUU52WFhoBzKs35ri9fUR7r2jlHm1QYQ4fyQqR7B+a5K2ThuUm5uW8Gk5gk8F5yQwYyoef7aTNfUZpJQUBuDKS10snBMgEDDY3xzhvc1JmtsdDrRKvv9UN99bCfNn5oM8f3oUQiCE5HPF3DBGJdCyFE+/1MWajRnchmDJAoN7biujsszNCUXNnu7n5qsc/rChj1+9PkhXn+Cp3/Xx42ovpcXGeTmA+vxxNgKjRvx9zVFefieOlJJFdW7uW1FJZZmHkVYu8Hk1/vrqMu5fUYSh2zQednh5bU826wFAMWqzRymUIjv3rCkKx1FEYxaDURPLUpycrBheU41YK6cIIJm0CUdMYnGLrPc/Y65SKEeRTFlEhkzSGWe05UaIUyrHtrMnRp042yibUiePc/YkdfqcnBJOIecNtB3FOxsjpE0XxUFYvjhIUb4+6iJSCq68tJDNu1O8XZ/itXVxvvlVRW84za9f7yMylOHbd42hqsw94rnwoMnDT7ZRWmRw+/UlTBzrz8q3FTsbh3jqt920daZQCsaU69y3ogoUvPxOPy5h8cgDU855uFBvhl+/FmLdlgi2JZGaw/QJHv7+9kpqpwQ4EarbO1M8+0YXm3bGSZsQ9AuuuSKfO26oIs+vnbXu/uYhnvl9P24dblxayGVzCjgV9hXRqM2/r2rDtAR3/VUZs77g53TD7+xN8/RLIQYHFbctL2DBnPwR40ePJXj+zV4GhhRLF/i4dnEZYpSrlpPAaMziyPGsFVWWCmZOzeOj8hJdF8yp8fLfG+MMxRSNzUOkM5JNu0z6h2xuaDPPIvB4yKJhL+T5Msyfk2LiWD/JlM3zb4R4bnWcdEbD5fKhSWhuV3zrkR7GVcKhNoWQDj9Ugtx3ALbtGeSRX/TQ3i1wSS+6LrAzsKVR0vRIiO+tNFlYV8j7Wwb4/qoukmk3LpcXTYOuMPzi9QwvrtnP49+ZwNwZAbRsnYRpKV54O8KmXTYOiry8BLNrAvi8WaKVglW/bWfDdoUApOjhsX+ZgNROUVS/fYg19RkQkrbuLn73WACvJ/u87Sjq/xxnbYOJaQsi0Th1MzNUlOYOSTkJHIqZxJMOKCgt0gnksMIzIaSktEgj4BMMxiXNR5OMq8reKIFCnNMVZA+rFHywLcJzq6OkTY2ZUwRX1AXxeiV9YYs1H0Ro7tAQUgDOqGsNRm1+9Ew3Hd2SymLFjUvyKcqXJDOK3U1JEilFzaQ81m/u58EnegCdmVM0Lp/rJ5gn6e6zWPenGMd78/jhf3Xxg28JaqcGAGjrSHC4w8IBBIItu6OE+gqZeJF3WHc267eZCDRAsWl3huPdacZWeYAsQX9YPwBIUIpQv8begzEunZ2ffT5qsetAAtPKnqYjZHOgNUF5iZHzEuUk0LLAHo4Vui6Q8qMzBQHoLolLA5CkM85Z4x+FdMbhiedDpDMG82oED91TRWWZByHBthzqaj08+JNOhhLGqLFBIVj14hHaugQBX4Zvf72CxZcUZl2QgmsXWSSSNsE8nVfXxXFwM2Oi5LsrKxhX7cElBKblsHh+gG881MGxHhcNu5JMm5iHSxPsb03T3m3h2CnKilyEwjoHWpPDBCo+2NJHJKYR8EsCPsXxXp23/tjLP955EQBNLTFajkFpkSCTNhlKuPjjliHm1QZxaYLufou9zSlcGpQWSLr6YeeBJJfPCeJ2n+1Hc3pWn1fiNrIqH4zaZKyRylIoIoMZesOZ0xIDiMUtEikHpRxKC43T5gucczIoUCi6ulOEBgw0l2LFjeWMqXAjh8sRl0syf0aQW68uHTVhAXAcxdv1KZCS668sZeHcQqQUCARCCAqDOmPKPew7OEB7p4WUgkV1biaN9eKSAgToumTmNB/LLhU4jmDb7jjRuEUyZbOrMY6ZkVwyw+Bvri1BAC++1YttZQ1/yz4TZQsmjrFZepkPl1S8sWGQwZiFoxTPvBpCOZJ5NR6uqPOgFBxqcwj1pVFC0fDnCAMxjbrpOncs96GAP+2MMRS3c543J4H5QYPSQgFCEOqz6ehMnqEkwQP/0cSybzbxb08cZWDIxLYd/qfDJJmRGC6b2TV552IsJ7r7HTQp8XkcPJ6zSdI0CAbEqUZCDtiOwhEecGy8HgvXKNVMV0+GWNxE0zQWzg2eNS6E4KYvj0HgcKw7TSqt6AmbfLgjjsLm3jurmVXjIz/P4eBRm9b2OC1tCVqOZnBQ3LCkkPkzvOQHBCnTz/Z9UUI9Gfa1KtxuRe0UnduXl6C7LI4eN2lsSZJJK9bUR3FJhy9dXsCyReUUBx3aQg67GqPkivc5CfQYkksv9iCloqvPYdPOWDaNP6FIAdddWYmj/Ow+5HCsO0Nf2OKdjYMIJNMnSyrKPCPWdJwzhStsBac7V10fTp1tcJyRYwxv37bVWf+PVPxwiSEEKDlqoehxC1wuAcohHMlt3aG+FAqBoWd7vR9uDRNNuJhULZk83sdFlQYXT/MipcFvVvfQ1JrmWK+Noae4oi6fWdMDVJdrZDIOG7dHeadhgGhCUlwgmT8zwORxfi6eqhFLKHYeSNCwI0xHt2BshUbtFC9+v8Zls70oNF55t384rI1ETgKFgKsXFlOSnyKVEfxm9QCNrfFTBiBg6ReLyfcnGYoL1tYP8OBPDtPeLdF1i3/6+hikVHg8ApcrK+ZYKH4GGYK24wlORGYBjKsysKwMibTG8S4bzrhpiZTN3kMJpBy9Ya1JScCTRCBoOpwiPJDOOe8LkwKUFHmwTJvVH/Zin2FgjoJVL4UAwewaPz6fxgtvR1BKcd2VhRi6pCioM32Sga7Bhq0J1tZHME2NO68Jkp+v4/NqXD5Lw1GKpiMO6zbFcWzBpDEwrtqDlIK7b6lA4FC/I8Fzbw3gKKidYlBVZqBrgkV1QTyGzc6DFi2HEx+PQIA8v8aPHxhLcb5NeFBj5cPtvLUhTGtHksFoNkVauqAQgeCVd5PsbjHQXYrblgWYNNYLCMqKdXze7G1q2JmmoyuNZSlMU3G4PcFLawdGyCwq0Fk8T+AoyWPPhdiyJ87AoEki6dDZneH19wZYtyU1KnkAUigevLsahKJhV5K3PhikuzdDKu0QGbLYczDGnqYY1ZVeJo/NPrO9UfDau330R0wSSZvO7hRPPttBZ6+BW7e5eJpBY3OM/iGdYJ7DtHE6CIUQsOBiL/lBSJhudhxy0LQ01y4pR6qsUd58VRVet01rh8WhdoVSDjd/qQhdyxru9MlexlcJusOC/S2CPK9k7gwf3uGyZHy1wYQqHYmbN9f3DnumUzhHLzSbOv/r3TarXgrTeszNw//ZT0UxzJjsx+eRNB2xUIAQEt1l89Uv+7hteQluI2sXZcUGfzHXTUt7gh2NJg/9PETtVC+OAzsPxGjvck7akAKkgPu+Np6en3bR0q5zzw+OsXBukOJCg0NH4hxoTaNrDLve3FAIrlhQxLLLo6xtUDz54gD125NMmeAjHMmwcccAwTwXj95fycpbS2nrPEZzm+TxZ/tp2JmipNBNa1uMA0cchJT85XyDxZfk89DP2hAIZk3zMXW8D0E24Zk+Ocj4qn76ItlNfXGWn8pS46SXLyxwcdksnfXbspovK8gwb8apmOt2C5YsCPCrN2MoR1JcAPNr804GiYsqPNROdXOoPcXmfRah3jRV5afq6Y94eSZYWFfAo/eP4ZYlLhAmobBk/dYUq+uTtLRbw7EGSgoc/u4rZZSd1gPVXYKv3VjOXTf4cZTFnkMWz6+O8sLbg4QjGW6/JoBQJkJY2TpRKMaNMXhoZTk1ExxAo35Xhjc2RGk6bDGp2uKWq/JAmUis0yKhjRAq+wtoQvDP36jm1mUe3LrDvhaL36+L8v62JKbjpqLEobzYzbhKH4/eX811iwxMR9GwK82b78fZfxiUyvAPX/Fz74pyEgmTo50K3WUzbbwkP3CqK6VpcMPiAEpZCFIsrPOhu06Lu0rxt9eXo2smApvblxfj852qqzUpmV3jpyDPAWEzv1ajouSUDg1DMn+GG69hMzBos6MxOpKhj/dVWravZ9mClsNxtu/tYyhmMm1SIXua07zyXhyXBk9/t4JZNXmMSDKGVw8PWny4tY/jXTFmTi/mkln5eAxBPJ5VgtsDcjgenugT9vSarGsIZeuyyyqYUG3gKEEq7SAEeD3ZW5DJgGWCboChi9PFkkwptu0ZYP/BCNWVPhZeUkZhfrakyDYXBEopwhGbDzb30NWbpGZyAQvmFOL3SVDgoEgOhx+Pl5NdmRObdRQkk1mX6nFL5Ol9j+HxdFph2wK/VyBG9EUUavhMli3wezmr7lZKkUhmdeJxk02+/m8Ejo69B2N856e99A443HaVwb0rqtG0z/krgvOIT/z9wdTxXhbNgalVCTRhDaf5F3C+8IlvIApSGQvLUrg0gdujZQP8BZwXfHICL+BTxf8CWBBQfhnQLg4AAAAASUVORK5CYII=;" parent="1" vertex="1">
                    <mxGeometry x="6265.4" y="938.23" width="86.17" height="20.77" as="geometry"/>
                </mxCell>
                <mxCell id="_F49FQrPf_jud_J2w9Fd-1" value="&lt;b&gt;...&lt;/b&gt;" style="rounded=1;whiteSpace=wrap;html=1;strokeColor=none;" parent="1" vertex="1">
                    <mxGeometry x="6540" y="938.23" width="48" height="21.27" as="geometry"/>
                </mxCell>
                <mxCell id="_F49FQrPf_jud_J2w9Fd-3" value="" style="shape=image;verticalLabelPosition=bottom;labelBackgroundColor=default;verticalAlign=top;aspect=fixed;imageAspect=0;image=data:image/png,iVBORw0KGgoAAAANSUhEUgAAAH8AAAAnCAYAAAAmYJeJAAAHiUlEQVR4nO2bb0hTXRzHv5vTGVIqiHtRDZVMQZNeRFnUEPojRVJCJLkakWlpERkjKHrji1QQwoz+qFn+idA3CwJ9k6U5MxAKmsKsiFSyclNTy8xt7TwvehbOe+52zrzT52H7wHmx3z2/P7vfe849O/dOBoAgSEAiX+4CgiwfQfEDmKD4AUxQ/AAmKH4AExQ/gAmKH8AExQ9gguIvMSUlJSCE+L2xIIMEO3zp6ekIDw8X2Kenp/H69WuuWAkJCVCr1W62wcFBDA4OctelVCqxdetWN5vdbseLFy/cbBs3bkRUVJTXeHa7HVarFRaLBZOTk9z1uNDr9aioqPDZnwWZTMbUjyymJSYmEjHm5uZIbGwsV7yKigpBHKvVStatW8cVRyaTEYPBIIg1Pj4u6NvZ2Sn6HcSwWq2koaGBHDhwgCgUCu7zptfruXPywFjH4sSniTWfkpISSeK9f/+exMTEMMe5fv06NY5U4s9neHiYFBUVkdDQUK7vevbs2UXl9YTfxVcoFGRsbMxjERMTEyQsLEySi+nVq1dkxYoVXmMUFxeLxvCH+C5MJhNJTEzkOof5+fmS5F6I38XPzc1lKiQ/P1+ymaS1tZXI5XJR/+zsbOJ0OkX9WcW32Wyks7PzbzMajWRoaMhjbEL+XOxxcXHcF4C3uLz4Xfznz58zFTIwMEBkMpkk4hNCSHV1NdVXo9GQubk5j76s4o+OjlJzhIWFkbS0NFJVVUUcDgc1x5s3b7hmOwBEp9NJegH4VXyxhV5NTQ3VvnfvXsnEJ4SQy5cvu/klJyeTqakpr36s4lutVq+1ZmRkkF+/flHznD592udBxdKSkpI8fk+/in/t2jVBwtnZWRIREUH6+voEx548eSKp+IQQkpOTQwAQlUpFPn36xOSz2JG/sB0+fJiaZ2hoiISEhDCfz+joaLJq1ar/vvhKpZJMTk4KEjY2NhJAfBWblJTkNXZ5eTmDhH+w2+0kOzubmEwmZp+xsTEm8VlGvqt1dHRQc2k0Gmbh+/v7iVqtXlLxfdrhy8nJQWRkpMBeX18PAGhqasLc3Jzg+KVLl7zGFtuc6OzsFNgUCgUMBgM2bNggODY+Po6BgQGv+cRwOp3MfV3feyH79u3z6hsTEwOj0YiUlBTmfFLhk/inTp0S2D5//oyOjg4AwNTUFB4+fCjoo9VqERsb6zG2mPgFBQXo6upiqm92dhZ79uzBly9fmOP72g8AXr58SbWnpqZ69IuJiUF3d/eyCA/4IH5qaiq2bdsmsNfV1bntKd+5c0fQR6FQ4Ny5c7wpAfzZWs3KyvI6mp1OJw4dOsS9rbwQHvE/fvxItS/cpp6PSqVCd3c3kpKSuGuTCm7xaaMeAO7fv+/2ube3F/39/YJ+RUVFCAsLE40vdtJlMhmmp6exa9cujI6OivoXFhaira1N9Lg/cDgcVLtCoaDaVSoVenp6llV4gFN8pVKJY8eOCexGo5F69d+8eVNgi46OxokTJ3jSujEyMoLdu3djZmZGcKy8vBw1NTU+x54Pzz0/Li6Oav/69avAtnr1avT09CAhIcHn2qSCS3ytVutxobeQpqYmqkgXL17kmlYX0tfXh4MHD+L3799/bS0tLUwLSn+wY8cOqv3Dhw9un133eDHhCeOjWKngEl9synfd7xe2Hz9+ICIiQtA/Pj4e+/fv963if2lvb0deXh4AoKurizojLRWuOhby9OlTt8/JycmiswTAt86QAmbxU1NTsXnzZskSX7hwgWoXm25po6KhoQFbtmxBVlYW7HY7k4/Uo+vkyZPQaDQCu81mQ3t7u6S5pIa+IqFw5swZSRNnZGQgLS0NJpPJzS6X069HsVHR29srmoPmI+Xo0ul0qK6uph67e/cuxsbGuOKlp6czrQVMJhNmZ2e5YtNgEj8iIoI6rVosFpjNZq/+oaGh1J+Her0eOp2OpYQlR+wiUSqVyMzMRFFRETIzM6l9vn37htLSUu6cLS0tXvs0Nzfj6NGjmJiYQF5eHurq6rjzuGASX6vVUu/dV69eRVVVFVOit2/fYv369W62I0eOQK/Xw2KxMMVYSqKiotx2FeVyOdasWQO1Wo2QkBBRv5mZGezcuRMjIyOS19Tc3Izc3Ny/t6579+5BqVTi1q1bPsf0ugdMe1DjcDi4XtESe8GirKzMrZ/Yg534+HjuZxDPnj0TxPHnyxyDg4MkJSVFtJ7t27f7HLuhoUH0sXhhYaGgP+M58txh06ZN1GLa2tq4hIiMjCQ2m00QZ3p62u3tnP+j+Ha7nTQ2NpKoqCiP9fgqvifhXe38+fNuPiznx+tqX+zn3YMHD7y5ujE1NYVHjx4J7CtXrlzUps9yMTw8jMePH+PKlStYu3YtdDrdot7oFaO2thbHjx/3+iulsrISxcXFXLG93vPfvXuHkpISgd1gMHAlAoDS0lLqAnH+RtDt27fR2toq6EN7SOON+vp6wcOgnz9/UvvRnhrOx+l0YmhoCGazGWazGd+/f+euh5fa2loUFBQw96+srER4eDjKysqYfbin02DzrfFM+zdu3PA5D+sb05L8aSPI/5Pg37UCmKD4AUxQ/ADmH6aCV6LUCvdiAAAAAElFTkSuQmCC;" parent="1" vertex="1">
                    <mxGeometry x="6106.93" y="938.23" width="71.64" height="22" as="geometry"/>
                </mxCell>
                <mxCell id="_F49FQrPf_jud_J2w9Fd-4" value="" style="shape=image;verticalLabelPosition=bottom;labelBackgroundColor=default;verticalAlign=top;aspect=fixed;imageAspect=0;image=data:image/png,iVBORw0KGgoAAAANSUhEUgAAAL4AAAAxCAYAAABkkhOQAAAXiUlEQVR4nO1deXwT17X+Rou12JZlyfK+7xiMsQFD2MMStiSFvCYNaWnShDR92ZqEl9CWtiFNUlrSbE1DSUgaSpuFlDQpIYWEnQDG2BhveN8XeZMsW7K1WZp5f8iWLWs0MzI20Pf08dMPa+bqzpX03XPP+c65I4IkSQo3FQjWFhRusiH78B8HwY0egDvYSE2A8DA5fBPCB67g3egB+ODDjcBNaPF9+D8PqwHUQAcoXTmo/krYjTXgKWdCEH83IIm9LkPwWXwfrisobQ3QVwPC3AlCKABPFgVioBj20mcxdHY+yLYPrss4fBbfh+sGsu0ieHyAMveAMqlBmTtA6gtAGusAPwD2TpDVD4EQEiDCHpjSsRA3n6rDBs+qjy+4vXlBDXTBXrYPPGUCqIF6UAO1sGvPgjI1gPADeGKAEDkePIkCvKxCUH7xUzYen8X34brA3nAcdk0pYNfC3vMtyP4rAGEFTwIQQoAQAOADBB8AekH1fQqEPjdl4/ER34frAlvradhqP4PdXwTA4LTuGCG9wDEBnM/NF6Z0PD7i+3BdQBnVAGEF7FYQ4mErz3eQ3PkYsfh8gIBuSh1Xn6rjw3UBLzjOYdH94DC3Arha+7HkFwCEUDa145nS3n3wYRj8qFucvrzz/zEPCDE6IQQAJV0+pePxuTqTjNNX1NANWMDnuatPFOV4LJ0VgeBA0Q0YnTv6B604V9oJm50EQSOYkSQQKBViWXYk7XviCn7i7eBfTQVlrnG4MwJXa88bcXH4AOGnBOW/ccLX4gIf8ScR7ZpBfP+lk+jSmTy2CQ4UoXzf3ddxVMw4W9KBjb/8hrHNHQvisCw78pquQ4iCIZz/GqwX7gKEVneLPzwZIOCBCnkTlGDqpEyAI/F/91EJ6tV6CPgTn/EjICkKgRI/JEbKkBIlw9x0FeQBftfc782A0notI+kBYG6aCiFB4us0InYU1/Wytlk5O/qarP0IeNHr4LfoU9irtgJD9a6k5wOEJBZQvQQq4L5rvhYbWInfpTPhDwdKoDNYpmQASZEy3LkwHtt/MOumWf4niksVPaxt5k8PmxQSTRYulHcynpeIBLg1O2LSrseLvBNEyAJAcwjUwCnwyDZArAJkt4KSbQQE4ZN2LSawEr+oRjtlpAeAerUer/+jFCeL2nHwNyuRGDG10fxU4mxpB+N5HkEgN111nUbDDk2/GUU1GsY2KVEyTIsLntTrEn4hQOSDIPDgpPbrDVhVnXNlzF/mZKGkXovtewvcjlNuD8//biS6dCaUNjC7DcGBIuRmhF6nEbGjoKobvQYzY5vlOVG0Qe9/Olgt/omi9usxDgDA4bwWVDb3YVqcnLGdps+MiuY+NHUa3FYjHo9AjMof0xOCkRIdNJXDdcGlym70D1gZ22SnKKGYoDtnttohEvInlYSXKnpAsdiL5TnXFtROBrR6MwyDQ+jpN8Fmp9DZa4TdTjk/C5ICAiVCqORiRKv8EaaQsvbJSPzaNj0qm/smZfBcYLTYUNPWT0v8nj4TDue14rMzDSiu00LTb4bNTnrsSx7gh8QIGTavTsW9y5OgkjMHlJYhO8obelHTpkddux6t3QPo1BphtdlhHSKh1g6CHHc5hUyEAIkQ9y5PQkevCSQLixbPdPWVu3QmbN19EZcquj2+xk6SsNpIbFqejF/dn4NAqdDlvM5gQVlDLxo7DGhQG6DRm6HVm9HbbwbPQyxhHSLxyJ3TUNbEvELFhAZgSdbomA3GIcfn0mtE35hJHigVIilShsRIVzfVZidRUqeFyWIHjwcMmGwYMA05z7d0DcJqs0Mo4OHe5UmIUErRoNZj54fFUGsGoTcOoavXBJPVBovVDqPFBopyfFd0kIoECJQKERMagLW5Mbh9QRxmp4XQtmUkfl5Fl8tAmZCZqEB2cghIigJFUWjtHkR1ax+ryjEe48k1aLZhz78qsfuLcjR3DXDup2/AiqJaDYpqNfjTP8vx+uO3YN18900OVxt7se9ILb4uaEW9Wu/xQ6VDw7AX+N2lCSit1zK2JQhg7hj/vrCqBw/+/gwqmnWs19m2aRZ+sTkb/uLRr+tMsRofHK3BhbIuNHToOY95BJtWJqGkjnnMUSFSlNZrcaygHQXVPWhQ69HZa4Le6L6yqeRiLJ4ZgV/9MAeZiQoAjhzB7T8/ip4+ZnfKXyzAD1alAABOXenAB0eqvX4/gMNwGi02dOlMKKzuwa5PSrBpRTJ2/SQXCpmr4WMk/rky5oh/LF7ekov182NcjjV1GrDzo2K8d7iKUx98HoGggFGLVtbQi0de/Rb5lZ4tIhfUq/W4Z8dx/GXbUtxzaxIAh/V6Yd9lvPtlJYwW24T7Dg4UIT1Wjhf3FzG2C5VLkJ3isD77v67B1t0XWUWDuLAAvPXThS4TtqhGg9/sL8LhC80THnN8eCCEfB6aO5kNSWG1Bkue/JJTnz19ZvzzbCNOX1Hj85duw8LMcIj9BPjRmnT09JsgFPBQUNWDK7XuwfR3FsU7V+TLNezKGFdYhuzYd7Qa5Y29+OKl2xCuHHWBPAa3liE7q9Q1gpAgMa1aER8eiJcenItwDj4XAChlYmQMuznHCtuxbtuRayb9CMxWO9790jEBq1v6sOLpw3jjYNk1kR4AUqODYLaSrCtbTmoIVHIxnvtzPh78/RlW0q/IicLx19a7kH73FxVYtfWrayI9AEyPD0Zbj5HVNWNyJT2h12DBE2+eh8E4BH+xAL/98VzsfXYJdj+9CDGhAbSvWTdv1GAWVk0e8Z19Vvfg6bfzXI55tPhXm/pQ185tCZ03LRTKIPqgzTJk5+w+rJkXg3CFFFdqNbjvxRPonUQZNS4sAG88fgu0ejPu/c0JlLEoMCNQysTITlEiPTYYUSp/iP34IEkKBEHAYLQiOyUEeVe7WPuJDgnAXb86hkPnm1jbbts0C79+IAciId957NUDZdj2zkXW1wZKhchJCUFyVBBUcjHCFVIM2Ul0ao3o1VvQ1GXA2nkx+LqgjbWviaK0oRfFdRqXmKaz14iCKncjpggUYX5GGACgvl2PyhZHTJkUKUNylAwxYQHwFwmhkkvQP2CBbtCCikYdLnD4zMfi82+bUFjVgznDBtoj8c+XdWLIxm3GL5gRDp4HueGdQ5Wc8gD+YgG2bcqC0WLDT147x0r6sGAJ7l+dhltmhMFPwMOJy+3Y+1UlDEb3mETA52HP1sWYkajAllfOciL9bXOisXl1KpbNikCYQjLm/bm/zzf+Ucra3/5valgNQEiQGH/66UJ8d1miy/Gj+a342bvMpJ+ZqMCW26fhzgWxCFdKIeDTL+Z20qGKsLlm4zE7NQRZSSGwUyQ+O9PIGvuV1PW6EP9KrQYdWqNbu1nJSsRHBDqfv/XkQtwyPRShwRLIA0S0KpZlyI7L1T145u2LKKzmtkLY7CROFXdwID5HN0co4GFNbozb8do2Pd78rAx7DlWw9iES8vHXny9HeqwcL/y1iPXNzEhQ4NMdK5EaMypXrs6NxswkBR743Wm39ltuT8eqOdE4V9qJ/UdrWPve+eO5WDtvfCBMYDSbMIoOrREl9ewTiY30izLDseeZxUgfp2h195nw2BvnPMqOBAE8f/8cPHX3DARIhPSNxoDPI1DX1s9ZdMhKUmLHj2Zj1ZxoiP0cK9CdC+Jwz47jsDPsWlVrXEl+JJ9+hVk3P875d1KUDElR7AlMkZCPBTPCcWjnaqx65itcbWIXCABA3TOIke+RlvhavRnnOQa2cWEBCAkSoaV7AO09Rpwv78L5sg6cLu6gjf7HQykTY8/Wxdi4OA7dfSbs/uIqY3uRkI+3n1rkQvoRbFgcj7B3JC5fapC/H7b/IBsA8OZn5Yx+7d3LEvHWTxd6VUtT3qiDVs+sWrDhsQ3T8fLDc2mJ+8pHpYxq1ptPLMSjGzK8ut7JIm5Jyf9amoi9zy6GTOpaS7VyTjQilFK09Qxy6sdsteNYoTvxBXzeNZVDhMoleOaemXho1xmvX0tL/PLGPqhpliU6dGiNWPTEIXTrTF5JgQCwfn4sXtoyFzOH5a/PzjRB089MotW5MViYGUZ7jscjoJK7Ev+eW0f14eOXPfu1S2ZG4IOfLXNaNa44VaT2qv1YhAVL8NuHc3H/mlTa802dBvzliGdF7IerU70mPQDkV7L7x4syw7HvZ0shEblTZMhGQihgTvqHjMmbFNdq0NxpcGszIyEYabHMyUou4yQIsCbiALi4TbTEP3GZe7Z20GzDoJm7vk4QDv/5sY0z3OTPI/ktrK+/e5z/OxYkScEwZpXhEQTuWOBwWc6VddL6/wAg9uPj9z/J9Zr0FMWNRJ6u+fGvV7gkiMbjwMkG9A/Sr5p+Ah4eWpfm9XU1/WbUtPaztvvl5mxa0gOA2Wpj1eaTIkf99lPFHbDSxIvzMsK8/szHg+LC+GGEyCXOv93eGUlRuHCVu37vDeZNC8XbTy3CrGSlW9Ci1ZtZs8QiIR+zU+kzcQDQP2B1sfYquRhz0x21MefLPRM0M1HhbOcN2jWDE85sD9lIHLnYykj8L841ejwXrpBieoLC6+tWNfehtYfZUGUlKbFopudxVbf0MQa3fB6BhOGAlaI8G9I1udEcRsyMgmr2sosRjK0IcFuv1Bojyhu5SX3eorvPhLjwANpIvUNrhFrL7DNGq/wR4kE2BYCiWg3M1lF3Kz1W7kyMFNMkTkYQ5D+x/QD17f3o7vMuMz0CO0nhlQMl2P81fbBd19aP8kbPQVv/oBU9E7g2F6J8Z2E8oyU+X86cW4kJDUCE0h8AoNYM0ialggNFmJN27ZWqXJOjgVIhspNHjaYb8YvrelmXsRF8f2WyV4VgjR0GbH/PvQITcJQYjCUtHVRyMQKlnkl64rKrv50aI3f23drteVJdrtGgQe1d2r+xw4BXPmGXMdnwxJvncZFGky5t6IWJIbnWP2jFh8fqvLpWeUOvx4k2Aj6PwO0LmO9feYnFvUuLCXIanLyrXbQu5uzUEIQGS9yOe4OX9l/BmRJugfqcNJWLbOpG/GMMAeB4PHJnBh7fOINzewD4+ze1uFzjXiPCZbkymm0es4ndOhP+NS45FBnisDo6gxlDDFlIncGCh3adQU0ru9tS29aPZ3fn45ZHv8DRS63O40H+fh61cyYMmm3Y8spZNzGhm4Pc+IcDJdjLweKV1Gnx1Ft5WPLkly45jHCFu96fFiNHRrzn+vvuPhNrDf+8jFHxoYjmuwaABdPDnRtyhmwkGjv0nPNGXToTnvlTHnbsK+TUHgDuWuIaG7r4+DY7yVnGVMnFSIoMRHpsEF7cf5lVjRmB0WLD8x8U4PDOta4D4UCahg4Datv6MTNJ6XbuF+8VoLXb1XcVCR19khR7EPRtaSdufeow7luRgiWzIjA9QQ6xnwAURaFXb0FJXS+OFrTi8IVmN/82KVIGAZ+HmjbXiRMSJMa6+bGsVraqpQ+Pv3EeB55f4VRLunXsn6fZasd/v/YtvsprxvdXpSI3PQR+QkdmuaV7AOWNvTh8oQUnr6jdVo8VOVFo6jSgS+dKtkWZ4YxuTkFlD6vit3K2o5SZpChUNNO7zbnTRt2cI/kt2PzyKWQmKrBkZiTS44KQEBGISKU/pMOFeTqDBXXt/Thf1oV/nG5ASzd3QUUlF2PDoniMzcG4EL+qpZ+T1QMciZ6RGpwH16Zj1yfFnAdyJL8VR/JbsXZMjYZKLkGARMgYNA2YhvDkHy9g549zMT0hGCTpCLReP1iGg6cb3NqPFGH5iwUgOBSyd+lMeP1gKV4/WApFoAgCPg8UKJgsdo/jWpEThdBgCT49Ve+2amUlKbFn62IMmm347Iz7+Mbi0Pkm7Px7MX79QA4AQBXMPZdwOK8Fh/NaoJSJwecRoEBBPzhEKy/zCAJb1qejoUOPehr3bsEMeql4BEfzWxnPJ0QEIiPeEXQbjEO0ClJwoAizUhzGy2Yn8ebBcgyabbhY0Y2LwyXaQgEPARKhc5+3xUpyygvR4dENMxChlMIj8S/XaDBo5la0tSRrdIPCoxum4f1/V3mVyNn+3iUsz4l01qMkRAQiK0nJmjE+V+awzAkRgSBJCs1dAx7dn5J6x5IcrpAiKVLGOb0NgFOd0Jb16ZCKBHjny0raLObsVBX8BDzsfnohqpp1rBnGF/92GdmpStyxIA7JUTLO+vQI2D7/QKkQOx/ORXGdFsdplBZ/sYAx4NQbrTjOsjFpfkaY8+YBA8Yh2uRbeqzcmSQ8XthOu2VzyEZOypbXOWkq/M/3Mt2Ou/gXJ7zw71eM2ZkTExqAh9alezWgknot3v2y0vmczyPw0HpufdjsJGrb+lGv1jNWEBZWa5wZw5Fy5MlAqFyCv21fjihVAN7+4qrHxF3uNIdEqpSJse/ny1h3X1EUsGXXWVQ06bAkKwIxKvpqxokgK0mJQ79djYqmPrz3FX1cEBsWwFgycKVGg3qWwsWlY+RZG0nBanP/bKbFBTtWUwrY+WGxV5PbG8SFBeAv25bR5iOcxDdb7c5lhkuH6bGuas5/b5gGpcy722bs+rjYxV/ctCIZGxcneNUHE2x2Eo0djozhQ+vTXDaCTAQE4Ujjn/njHWjpGsAL+wo91qsE+fshN2P0etkpIdizdQlrLKPVm/HIq9+CRxDY+r2saxrvCH60Jg2fPL8Cew5VYve/PJeEzEkLZczIHslvYyz5EAn5uHXcVkW65qnDSuAHR6o514R5i5GJnhFPnxl2vsuiWi3ngCEzUeFG8tjQADy41rtMolprxKsHSpzPhQIedj+9CN9ZdO03E8qIC8bBF1bh4dunAXAQ8e/bl2PBdGYf1hNWz43G4Z1rcOD5FejWmbD9vUuM7TMTFYhUuu5DuGtJPH4xXDfEhLyrXXj8jfN4bGMGNt9GX87ABTkpIfh0x0rsfW4J/nm2CQdO1jO2H9koQ4chG4mvC5j9+8xEBeLCRlcpiYhPe8uYvgELTl1RY8cHhbhzYfyk7iMO8vfDM3fPxNd/WMeY4HOuAQVVPZzlpKWz6DcgP7YxA+//u8qrOvo9hypw/5o0Z72OSi7BpztW4e3Pr2Lv4QqvM6Nz0lS4d3kyHlib6najqqQoGY69th4fH6/HxyfqUNGsoy2VBRyuV2aiArdkhOGe5YlYlBnh/IKOsAR4gEOuo8OvfpiDerUeHx6rZXz9+/+uQkp0EN7ftgSpMUHY+2UlJ8MkFQmQOy0U9y5PwqaVyfAXC0BSFKdykOwUz0Q5W9LBWs49b1qoy4qmCpLgtrnRbhPudx8V45OT9dizdTGKarSc9igwIUIpRWaCAgszw3HfyiQkcLhFjfMXUVY88xVOF3MruLq05y7MTnWXFAHguXfy8eoB7xI7i2eG4+iu9RCNk9H6B6zIr+zGN4WtKK7VoqfPBKuNdKmIl/n7ITrUH7npoViaFYFZKUqXDRxMaOsZhFoziJauQZisNvAIAiRFwV8sREq0o0RWSuMf1rXroWHJmiZHB3ms8jRabChl2e9KweE65AyXaHT2GpF3tQt55d2oU+udWVuJHx+hCimSImTISlZgerx74ZedpFBWr2VMEAr4PMxIVHiUMjt7jWjsMDD+CnFCpAxh45JSjR0GbH75pNONjlRKsWZeLH65ORuxYQFYtfUrnLrimXf3rUxGZqISRtOQU5kLV0rhL+ZDIRMhLFiKsGAJolT+DCMDRsvKh5+NEP/rgnYMmNjkIsJZf+/nwRfUGSw4yfBG6MAjCNyWG0VLsrGw2khYrHaXpZFLDboPNxZGiw0Fw1tIU6KDnIlFTb8ZuY987nEl4/MI5P95A2YxuGDc4SA+AYfcO4HfwJq4Q3ajb/rkw82FvKtduPWpwx6VuVC5BBX775mke6u6Et93f3wfbhiuNvYxytGpMUFu9xGaLPiI78MNw0WWYre5aaFTdoNdGqea7ec0md0V4hpcIR/+/4CiQFuVOhZZyd7vN+CKSf9hCJ8f7wMXVLXonMlFT5jKe5+OI77PWvtwfaDttyBt+IYB4wsI7SSFcIUE0xMm9/bkYzFO1WEmvs+a+zBZsJOUM2E6PnNLUY4bB3iSzCcGV1XnfwE7IV4II4cxvgAAAABJRU5ErkJggg==;" parent="1" vertex="1">
                    <mxGeometry x="6417.42" y="936.0999999999999" width="101.83" height="26.26" as="geometry"/>
                </mxCell>
                <mxCell id="_F49FQrPf_jud_J2w9Fd-5" style="edgeStyle=orthogonalEdgeStyle;rounded=0;orthogonalLoop=1;jettySize=auto;html=1;exitX=0.5;exitY=1;exitDx=0;exitDy=0;" parent="1" source="NBhH2FtDzweVXHM-JbC3-22" target="NBhH2FtDzweVXHM-JbC3-22" edge="1">
                    <mxGeometry relative="1" as="geometry"/>
                </mxCell>
            </root>
        </mxGraphModel>
    </diagram>
</mxfile>